{"glyphs":{"*":{"ha":3708,"x_min":76,"x_max":3600,"o":"m 3600 128 l 3600 479 l 3554 479 l 3554 128 l 3600 128 m 3407 53 l 3407 411 l 3372 411 l 3372 53 l 3407 53 m 3344 53 l 3094 411 l 3117 53 l 3185 53 l 3185 167 l 3344 53 m 3360 107 l 3347 119 l 3249 21 l 3261 8 l 3360 107 m 3078 47 l 3010 463 l 2822 269 l 2708 406 l 2664 82 l 2771 88 l 2664 82 l 2806 82 l 2754 139 l 2749 269 l 2828 190 l 2986 332 l 2975 53 l 3078 47 m 2793 117 q 2785 200 2785 147 l 2785 282 q 2780 329 2783 296 q 2769 415 2776 363 q 2762 490 2764 456 q 2760 557 2760 525 l 2657 454 q 2663 335 2657 396 q 2679 210 2668 275 q 2683 133 2682 167 q 2683 76 2683 100 q 2686 44 2683 60 q 2692 15 2689 29 l 2793 117 m 2583 382 l 2583 400 l 2408 400 l 2408 382 l 2583 382 m 2533 258 l 2533 281 l 2408 281 l 2408 258 l 2533 258 m 2431 104 l 2431 400 l 2408 400 l 2408 104 l 2431 104 m 2583 104 l 2583 121 l 2431 121 l 2431 104 l 2583 104 m 1835 564 l 1835 972 l 1818 972 l 1818 564 l 1835 564 m 1688 740 l 1688 978 l 1665 978 l 1665 740 l 1688 740 m 1864 740 l 1864 757 l 1688 757 l 1688 740 l 1864 740 m 2381 425 q 2356 443 2364 435 l 2349 450 q 2313 474 2329 469 q 2239 446 2275 482 l 2140 346 q 2122 279 2122 328 q 2143 208 2122 229 q 2193 174 2163 189 q 2236 142 2219 160 q 2154 121 2186 124 l 2051 18 q 2143 40 2093 22 q 2232 89 2206 63 l 2331 188 q 2344 217 2344 201 q 2329 244 2344 229 q 2286 274 2314 260 q 2243 304 2257 290 q 2225 368 2226 319 q 2253 350 2236 367 l 2258 344 q 2270 333 2265 338 q 2281 325 2275 328 l 2381 425 m 1619 876 q 1585 951 1619 921 q 1500 985 1549 985 q 1415 953 1449 982 q 1381 876 1381 919 q 1415 800 1381 831 q 1500 767 1450 767 q 1503 763 1503 769 q 1475 658 1503 750 q 1447 557 1447 564 q 1449 553 1447 553 q 1550 703 1479 563 q 1619 876 1619 842 m 2107 204 q 2069 290 2107 254 q 1976 326 2029 326 q 1885 290 1924 326 q 1846 204 1846 256 q 1883 118 1846 153 q 1976 82 1924 82 q 2068 118 2029 82 q 2107 204 2107 153 m 1329 871 q 1294 946 1329 915 q 1210 979 1258 979 q 1126 947 1160 976 q 1089 871 1089 914 q 1126 796 1090 826 q 1210 763 1161 763 q 1213 758 1213 763 q 1185 651 1213 743 q 1157 551 1157 560 q 1158 547 1157 547 q 1261 697 1190 558 q 1329 871 1329 833 m 1856 206 q 1740 144 1746 140 q 1709 173 1722 160 q 1685 197 1696 186 q 1631 236 1660 225 q 1610 247 1624 242 q 1578 260 1597 253 q 1586 266 1582 263 q 1594 274 1590 269 l 1693 372 q 1733 471 1733 413 q 1718 510 1733 494 q 1606 543 1686 543 q 1549 539 1576 543 q 1494 528 1522 535 q 1415 490 1438 513 l 1318 392 q 1265 301 1265 339 q 1288 251 1265 275 l 1386 350 q 1369 417 1358 381 q 1511 440 1436 440 q 1621 413 1589 440 q 1632 375 1632 397 q 1622 326 1632 351 q 1535 274 1551 290 l 1435 175 l 1514 146 q 1556 124 1538 135 q 1588 100 1574 114 l 1646 42 q 1742 92 1651 39 l 1856 206 m 1494 53 l 1494 485 l 1467 485 l 1467 53 l 1494 53 m 1108 565 q 1064 650 1088 597 q 1013 775 1040 703 q 986 839 1000 807 q 958 903 972 871 q 926 1043 926 979 l 824 942 q 856 804 824 878 q 883 743 869 774 q 910 681 897 713 q 962 555 938 608 q 1008 467 986 501 l 1108 565 m 836 729 q 769 878 836 815 q 608 939 701 939 q 449 876 515 939 q 382 729 382 815 q 449 579 382 642 q 608 518 517 518 q 769 581 703 518 q 836 729 836 640 m 1076 329 q 1074 404 1074 379 q 1074 432 1074 431 l 971 329 q 975 233 971 331 q 971 142 976 175 q 961 67 961 85 q 968 22 961 47 l 1068 122 q 1074 236 1058 150 q 1077 276 1076 253 q 1076 329 1078 299 m 858 264 q 844 401 858 364 l 744 300 q 756 161 756 264 l 858 264 m 1007 71 l 739 261 q 749 186 749 236 q 749 147 749 171 q 747 94 749 125 q 745 41 746 63 q 744 8 744 19 l 847 111 q 847 138 847 114 q 850 207 847 163 q 851 264 851 239 q 849 310 851 290 q 844 338 846 325 q 839 361 842 350 l 1007 71 m 694 140 q 536 319 649 219 l 438 221 q 392 125 421 196 q 342 33 364 60 l 346 29 l 444 128 q 478 183 463 150 q 594 40 558 106 l 694 140 m 581 121 l 581 128 l 444 128 l 444 121 l 581 121 m 172 471 q 129 501 172 501 q 88 471 88 501 q 129 439 88 439 q 172 471 172 439 m 422 321 q 374 429 422 381 q 293 482 342 463 l 201 507 l 101 406 q 149 393 125 399 q 196 381 172 388 q 276 333 243 367 q 321 226 321 289 q 314 182 321 207 q 219 138 235 153 l 121 39 l 125 35 q 199 72 143 53 q 278 117 256 94 l 376 214 q 422 321 422 260 m 144 82 l 144 450 l 110 450 l 110 82 l 144 82 m 183 65 q 129 88 183 88 q 76 65 76 88 q 129 42 76 42 q 183 65 183 42 m 3219 235 l 3106 235 l 3219 235 m 3236 207 l 3106 207 l 3236 207 m 1574 885 q 1551 843 1574 860 q 1497 825 1529 825 q 1443 842 1465 825 q 1421 885 1421 860 q 1443 926 1421 910 q 1497 944 1465 944 q 1551 928 1528 944 q 1574 885 1574 910 m 1619 876 l 1472 547 l 1619 876 m 2090 207 q 2058 131 2090 163 q 1981 99 2026 99 q 1901 131 1936 99 q 1869 207 1869 163 q 1903 282 1869 250 q 1981 314 1933 314 q 2058 282 2024 314 q 2090 207 2090 250 m 1283 879 q 1261 838 1283 854 q 1207 819 1239 819 q 1153 836 1175 819 q 1131 879 1131 854 q 1154 921 1131 904 q 1208 939 1176 939 q 1261 922 1238 939 q 1283 879 1283 904 m 1329 871 l 1182 542 l 1329 871 m 1058 575 l 978 950 l 1024 586 l 888 586 l 944 643 l 944 915 l 888 865 l 961 978 l 983 928 l 1058 575 m 814 740 q 753 600 814 658 q 607 542 692 542 q 461 600 521 542 q 400 740 400 657 q 461 881 400 822 q 607 939 521 939 q 753 881 692 939 q 814 740 814 824 m 961 65 l 839 361 l 961 65 m 1568 893 q 1544 929 1568 914 q 1488 944 1521 944 q 1432 929 1456 944 q 1408 893 1408 914 q 1433 857 1411 871 q 1490 842 1457 842 q 1519 844 1506 842 q 1544 857 1533 846 q 1562 874 1556 867 q 1568 893 1568 882 m 1551 854 q 1503 888 1551 888 q 1454 854 1454 888 q 1503 819 1454 819 q 1551 854 1551 819 m 1278 888 q 1254 925 1278 910 q 1199 940 1231 940 q 1144 925 1165 938 q 1119 886 1119 908 q 1143 851 1119 867 q 1197 836 1167 836 q 1229 838 1215 836 q 1254 851 1243 840 q 1272 869 1265 861 q 1278 888 1278 876 m 1261 849 q 1213 882 1261 882 q 1164 849 1164 882 q 1213 814 1164 814 q 1261 849 1261 814 m 768 747 l 764 751 l 731 718 q 689 704 713 704 q 629 717 664 704 q 578 738 586 731 q 549 808 554 760 q 640 796 600 810 l 740 896 q 638 913 692 913 q 567 893 586 913 l 467 794 q 446 735 446 774 q 481 640 446 674 q 533 614 514 619 q 593 601 571 601 q 651 629 624 601 l 750 728 q 757 735 753 731 q 767 747 761 740 l 768 747 m 1572 885 q 1556 851 1572 865 q 1513 836 1539 836 q 1471 851 1489 836 q 1453 885 1453 865 q 1469 918 1453 903 q 1513 933 1486 933 q 1554 918 1536 933 q 1572 885 1572 904 m 1515 860 l 1453 860 l 1453 933 l 1515 933 l 1515 860 m 1539 879 q 1526 840 1539 857 q 1496 825 1514 825 q 1465 842 1478 825 q 1453 879 1453 856 q 1465 918 1453 901 q 1496 933 1478 933 q 1526 917 1514 933 q 1539 879 1539 901 m 1282 879 q 1265 846 1282 860 q 1222 831 1249 831 q 1181 846 1200 831 q 1163 879 1163 860 q 1181 914 1163 900 q 1222 928 1199 928 q 1264 914 1249 928 q 1282 879 1282 900 m 1225 854 l 1163 854 l 1163 928 l 1225 928 l 1225 854 m 1249 874 q 1236 835 1249 851 q 1206 819 1224 819 q 1176 836 1189 819 q 1163 874 1163 850 q 1175 913 1163 896 q 1206 928 1190 928 q 1236 911 1224 928 q 1249 874 1249 896 m 1550 907 q 1501 933 1550 933 q 1453 907 1453 933 q 1501 879 1453 879 q 1550 907 1550 879 m 1550 893 q 1501 933 1550 933 q 1453 893 1453 933 q 1501 854 1453 854 q 1550 893 1550 854 m 1550 879 q 1536 913 1550 899 q 1501 929 1519 929 q 1468 914 1481 926 q 1451 879 1451 897 q 1467 846 1454 858 q 1501 829 1483 829 q 1535 844 1522 832 q 1551 879 1551 861 l 1550 879 m 1261 901 q 1213 928 1261 928 q 1164 901 1164 928 q 1213 874 1164 874 q 1261 901 1261 874 m 1261 888 q 1213 928 1261 928 q 1164 888 1164 928 q 1213 849 1164 849 q 1261 888 1261 849 m 1261 874 q 1247 908 1261 894 q 1213 922 1233 922 q 1179 908 1193 922 q 1163 874 1163 893 q 1178 840 1165 853 q 1213 824 1194 824 q 1247 839 1235 826 q 1261 874 1261 854 m 1546 888 q 1533 856 1546 868 q 1500 842 1519 842 q 1468 854 1481 842 q 1454 888 1454 868 q 1467 919 1454 907 q 1500 933 1481 933 q 1532 921 1519 933 q 1546 888 1546 907 m 1529 858 q 1492 836 1529 836 q 1454 858 1454 836 q 1492 879 1454 879 q 1529 858 1529 879 m 1256 882 q 1243 849 1256 863 q 1210 836 1228 836 q 1176 850 1190 836 q 1164 883 1164 864 q 1178 914 1164 901 q 1211 928 1192 928 q 1242 915 1229 928 q 1256 882 1256 901 m 1239 853 q 1201 831 1239 831 q 1164 853 1164 831 q 1201 874 1164 874 q 1239 853 1239 874 m 3419 418 q 3411 424 3417 424 q 3401 423 3406 425 q 3394 415 3396 421 q 3394 404 3392 410 l 3542 121 q 3550 115 3544 115 q 3560 116 3556 114 q 3567 123 3565 118 q 3567 135 3569 128 l 3419 418 z "},"A":{"ha":1189,"x_min":-6,"x_max":1132,"o":"m 1132 126 q 1119 67 1129 97 q 1076 25 1108 38 q 1015 6 1047 8 q 953 11 983 4 q 894 33 922 18 q 840 64 865 47 q 807 37 824 50 q 772 15 790 24 q 731 2 753 6 q 683 6 708 -1 q 617 40 644 14 q 558 92 590 65 q 526 42 549 65 q 476 8 503 19 q 392 15 432 -1 q 319 57 353 32 q 265 16 296 31 q 197 -1 233 1 q 131 21 163 1 q 73 68 99 40 q 28 128 47 96 q 0 192 10 161 q 4 231 -6 210 q 26 267 14 251 q 42 277 36 279 q 54 267 49 275 q 65 251 60 260 q 82 243 71 243 q 143 281 119 256 q 183 337 167 306 q 213 402 200 368 q 243 465 226 436 q 303 775 283 614 q 300 1100 324 936 q 340 1112 321 1113 q 379 1104 360 1111 q 417 1088 399 1097 q 453 1076 435 1079 q 488 1080 471 1074 q 524 1110 506 1086 q 549 1097 538 1111 q 574 1078 560 1083 q 618 1079 596 1074 q 662 1092 640 1085 q 705 1102 683 1099 q 750 1099 726 1106 q 810 1038 782 1071 q 854 967 839 1004 q 861 605 829 786 q 976 269 893 424 l 1003 249 q 1017 265 1008 258 q 1038 267 1026 271 q 1098 203 1069 238 q 1132 126 1126 169 m 1038 181 q 1040 213 1043 196 q 1026 240 1038 231 q 981 217 1008 218 q 928 237 953 222 q 889 278 904 251 q 754 660 788 458 q 733 1081 721 861 q 682 1080 706 1090 q 635 1060 658 1069 q 578 1058 607 1053 q 532 1088 550 1063 q 510 1071 521 1079 q 488 1061 500 1063 q 441 1060 464 1053 q 397 1078 418 1067 q 378 1083 389 1079 q 356 1088 367 1086 q 337 1087 346 1089 q 324 1076 328 1085 q 317 689 351 882 q 207 326 282 496 q 183 293 196 313 q 156 257 171 274 q 123 231 142 240 q 79 228 104 221 q 58 238 71 235 q 44 256 44 240 q 35 245 39 253 q 22 239 31 238 q 17 211 15 224 q 24 188 18 199 q 37 165 29 176 q 49 140 44 153 q 102 123 72 125 q 160 126 132 121 q 208 158 188 136 q 243 206 228 181 q 258 201 253 207 q 268 188 264 196 q 276 170 272 179 q 289 157 281 161 q 344 126 310 133 q 411 126 379 118 q 457 172 442 140 q 464 210 468 189 q 449 243 460 232 l 431 229 q 408 226 418 224 q 388 236 397 229 q 372 252 379 243 q 357 269 364 261 q 348 394 340 329 q 394 507 356 458 q 441 538 414 531 q 499 549 468 546 q 551 523 528 546 q 590 475 575 500 q 612 420 604 450 q 619 358 619 390 q 610 298 619 328 q 583 244 601 268 q 567 234 576 235 q 549 235 558 233 q 531 236 539 236 q 517 229 522 236 q 519 189 518 211 q 535 153 519 167 q 592 119 558 124 q 663 122 625 115 q 712 153 694 128 q 746 201 729 178 q 835 139 789 167 q 938 115 881 111 q 998 133 969 118 q 1038 181 1026 147 m 593 401 q 567 428 588 422 q 528 426 547 433 q 489 400 504 418 q 467 360 474 382 q 463 326 465 343 q 463 292 461 308 q 472 262 464 275 q 496 240 479 249 q 509 257 501 253 q 525 260 517 261 q 543 257 533 260 q 564 256 553 254 q 590 283 582 265 q 598 319 597 300 q 596 360 599 339 q 592 400 593 381 l 593 401 m 650 774 q 644 771 649 775 l 636 779 l 644 785 q 650 782 649 781 l 650 774 m 656 761 q 648 756 653 754 q 639 754 643 757 l 640 763 q 648 763 643 761 q 656 760 653 764 l 656 761 m 669 739 q 653 734 663 733 q 636 735 644 735 l 636 744 q 654 745 644 742 q 669 738 664 749 l 669 739 m 675 711 q 629 711 651 704 q 640 714 633 711 q 652 718 646 717 q 665 719 658 719 q 674 711 671 718 l 675 711 m 736 651 q 692 723 710 683 q 660 803 674 763 l 633 807 l 653 822 q 645 832 650 829 q 637 836 640 835 q 633 839 633 838 q 640 850 633 842 q 631 860 632 854 q 629 874 629 867 q 628 886 629 881 q 622 894 628 892 l 619 693 q 638 689 628 688 q 656 692 647 690 q 674 693 665 693 q 690 685 682 693 q 655 677 675 676 q 619 682 635 678 q 569 619 601 644 q 493 594 538 594 q 435 610 461 594 q 394 651 410 626 l 382 719 q 375 717 378 715 l 376 722 q 382 719 378 724 q 400 821 389 769 q 401 921 411 872 q 383 806 396 861 q 360 692 369 750 q 372 692 363 690 q 379 682 382 693 q 369 680 374 674 q 358 686 365 686 q 353 675 356 681 q 351 663 350 669 l 379 660 l 378 651 q 361 652 369 651 q 351 664 353 653 q 340 644 343 656 q 329 628 338 633 l 321 636 q 341 743 336 688 q 346 854 346 799 q 345 967 346 911 q 349 1072 344 1022 q 394 1062 371 1071 q 442 1047 418 1053 q 487 1044 465 1042 q 528 1069 508 1047 q 574 1043 550 1046 q 622 1046 597 1040 q 669 1060 646 1051 q 717 1071 693 1069 q 716 858 710 960 q 736 651 722 756 m 703 654 q 656 651 683 651 q 614 660 629 650 q 657 667 633 665 q 703 663 681 669 l 703 656 l 703 654 m 713 626 q 655 620 683 624 q 594 619 626 617 l 594 625 q 655 630 626 631 q 714 632 683 629 l 714 626 l 713 626 m 731 513 q 694 490 718 489 q 650 494 671 490 q 624 528 631 506 q 624 575 617 551 q 644 597 631 589 q 673 605 657 604 q 703 601 689 606 q 726 586 718 596 q 740 549 739 571 q 731 513 740 528 m 754 411 q 751 382 757 396 q 731 361 746 368 q 701 367 713 356 q 682 390 689 379 q 683 420 679 406 q 703 438 688 435 q 733 433 719 444 q 753 410 746 422 l 754 411 m 356 621 l 356 633 l 386 628 l 386 621 l 356 621 m 764 260 q 760 238 767 249 q 743 228 754 228 q 726 231 732 225 q 713 243 719 238 q 719 263 713 253 q 736 275 725 274 q 753 272 746 278 q 763 260 760 267 l 764 260 m 385 572 q 376 528 388 549 q 346 499 364 508 q 324 513 332 501 q 314 536 317 525 q 324 572 313 556 q 353 594 336 588 q 365 597 361 599 q 372 590 369 594 q 377 581 375 586 q 383 571 379 575 l 385 572 m 338 432 q 333 401 340 415 q 313 378 326 386 q 299 381 301 372 q 296 397 296 390 q 301 427 299 413 q 317 449 304 442 q 331 445 325 451 q 339 432 338 439 l 338 432 m 289 275 q 288 256 290 265 q 275 244 285 247 q 260 251 268 250 q 250 263 253 251 q 253 277 247 274 q 265 288 258 281 q 289 275 281 288 m 540 661 q 557 731 558 696 q 546 799 556 765 q 522 867 536 833 q 499 935 507 901 l 486 935 l 426 783 q 419 747 422 767 q 418 707 417 726 q 428 672 419 688 q 457 646 438 656 q 501 642 478 640 q 540 661 525 644 m 506 661 q 467 665 488 656 q 440 694 447 674 q 442 747 438 722 q 453 795 446 772 q 471 840 461 818 q 490 885 481 863 l 499 885 q 517 828 504 858 q 538 769 531 799 q 541 711 546 739 q 506 661 536 683 z "},"B":{"ha":1008,"x_min":-3,"x_max":961,"o":"m 938 189 q 960 281 958 235 q 948 372 961 328 q 910 456 935 415 q 856 529 885 496 q 849 535 853 533 q 840 540 844 538 q 833 547 836 543 q 832 557 831 550 q 877 613 857 581 q 913 676 897 644 q 925 761 926 719 q 910 841 924 803 q 874 914 897 879 q 821 978 850 949 q 719 1060 779 1031 q 594 1103 658 1090 q 561 1106 578 1106 q 532 1113 546 1106 q 424 1094 475 1110 q 325 1058 374 1078 q 301 1056 313 1054 q 279 1064 290 1058 q 258 1076 268 1069 q 236 1088 247 1083 q 211 1063 225 1075 q 176 1054 197 1051 q 103 1076 142 1068 q 29 1086 65 1083 q 8 1083 18 1085 q 1 1065 -3 1081 q 47 971 25 1018 q 88 874 69 924 q 94 844 86 857 q 99 814 103 832 q 117 748 114 783 q 131 679 119 713 q 138 483 143 583 q 107 293 133 383 q 91 264 99 281 q 68 244 83 247 q 57 247 61 244 q 49 255 53 250 q 42 265 46 260 q 33 274 39 269 q 15 265 21 272 q 8 247 10 257 q 6 226 6 238 q 1 208 6 217 q 15 144 3 175 q 49 89 28 114 q 97 44 69 64 q 156 15 125 25 q 196 7 172 4 q 242 8 219 10 q 270 22 254 15 q 300 36 286 28 q 314 48 308 40 q 325 63 319 56 q 338 73 331 69 q 356 74 344 76 q 413 37 382 50 q 472 8 444 24 q 488 7 479 6 q 499 0 496 8 q 589 -7 539 -11 q 683 0 639 -3 q 695 8 685 11 q 714 8 706 6 q 845 74 785 25 q 938 189 906 122 m 871 328 q 801 203 856 256 q 679 129 747 151 q 561 111 621 110 q 443 124 501 113 q 412 135 428 131 q 381 146 396 139 q 326 172 353 157 q 276 208 299 186 q 257 205 264 210 q 246 192 250 200 q 237 174 242 183 q 224 161 232 165 q 180 130 206 142 q 124 121 154 118 q 68 139 93 125 q 31 183 43 153 q 26 209 31 194 q 32 235 22 224 q 58 224 44 232 q 86 224 71 217 q 146 355 135 282 q 160 503 157 428 q 139 751 164 629 q 61 982 114 874 q 28 1056 49 1019 q 39 1065 32 1064 q 54 1065 46 1067 q 72 1063 63 1064 q 88 1061 81 1061 q 126 1048 106 1057 q 167 1034 147 1039 q 205 1033 186 1029 q 240 1060 224 1038 q 260 1052 251 1058 q 281 1042 269 1046 q 313 1038 296 1036 q 347 1044 331 1039 q 381 1058 364 1050 q 413 1071 397 1065 q 479 1082 446 1074 q 528 1081 503 1082 q 578 1082 553 1081 q 590 1076 583 1075 q 604 1075 597 1078 q 675 1053 640 1068 q 739 1016 710 1039 q 789 962 768 993 q 818 892 810 931 q 827 820 831 856 q 817 749 824 785 q 807 724 811 736 q 797 699 803 711 q 784 676 792 686 q 764 658 776 665 q 742 636 756 643 q 719 615 729 629 q 727 601 721 606 q 741 592 733 596 q 756 585 749 589 q 769 575 764 581 q 860 467 832 531 q 871 328 888 403 m 732 778 q 734 788 736 785 q 727 792 732 792 q 718 790 722 793 q 715 783 714 788 q 722 777 715 776 q 732 778 728 778 m 724 744 q 722 752 728 751 q 714 756 717 753 q 707 749 707 756 q 710 739 707 742 q 716 735 715 735 q 717 738 717 736 q 717 743 717 740 q 724 744 718 746 m 706 681 q 697 685 703 685 q 688 688 692 685 q 678 684 683 686 q 675 678 672 682 q 686 670 681 668 q 699 671 692 672 q 706 679 708 674 l 706 681 m 808 872 q 797 898 800 883 q 790 926 793 913 q 786 929 786 931 q 778 940 779 932 q 772 954 776 949 q 685 1026 736 997 q 576 1058 635 1056 q 547 1062 565 1061 q 517 1069 529 1063 q 480 1059 500 1058 q 440 1056 460 1060 q 403 1044 421 1051 q 369 1030 386 1036 q 332 1019 351 1024 q 292 1017 313 1015 q 276 1021 283 1017 q 261 1029 268 1025 q 247 1037 254 1033 q 231 1039 240 1040 q 193 1020 214 1022 q 150 1023 172 1018 q 106 1035 128 1028 q 67 1046 85 1043 q 61 1038 61 1047 q 133 851 110 949 q 172 654 157 753 q 174 631 178 643 q 181 611 169 618 q 197 646 192 626 q 208 685 201 665 q 223 739 218 713 q 235 796 228 765 q 238 824 236 808 q 250 844 239 840 q 256 823 251 833 q 260 800 260 813 q 256 796 257 797 q 251 799 254 794 q 246 790 244 796 q 253 786 249 782 q 261 788 258 790 q 262 774 264 779 q 256 767 260 769 q 247 762 251 764 q 242 754 243 760 q 254 749 244 747 q 271 750 264 751 q 274 740 272 746 q 272 726 275 733 q 254 726 264 722 q 236 724 244 731 q 241 711 236 713 q 253 712 246 710 q 267 716 260 714 q 282 717 275 718 q 298 694 293 707 q 311 671 303 682 q 412 603 350 622 q 536 597 474 583 q 569 609 553 601 q 604 618 586 617 q 603 610 604 614 q 606 606 601 607 q 620 604 611 606 q 636 603 629 603 q 651 606 644 603 q 660 617 657 608 q 649 626 656 625 q 637 625 643 626 q 624 624 631 624 q 613 629 618 624 q 624 640 619 636 q 638 650 629 643 q 642 644 642 647 q 646 639 643 642 q 679 639 661 635 q 683 653 689 651 q 666 653 676 654 q 649 654 656 653 q 656 669 643 656 q 688 722 676 693 q 707 781 699 751 q 712 814 711 796 q 719 846 713 832 q 737 787 739 822 q 725 725 735 751 q 723 708 722 718 q 714 699 724 699 q 716 710 721 708 q 703 714 711 713 q 699 710 701 713 q 697 706 696 708 q 717 697 715 704 q 714 679 718 689 q 705 659 710 669 q 703 642 700 649 q 731 656 718 646 q 757 678 743 665 q 778 712 772 693 q 794 746 783 731 q 808 807 804 774 q 808 872 811 840 m 753 492 q 750 524 757 506 q 731 552 739 540 q 704 575 724 564 q 685 580 694 576 q 666 585 675 583 q 649 585 657 588 q 633 574 640 583 q 640 529 628 547 q 672 497 650 506 q 713 479 693 489 q 735 478 724 476 q 753 492 746 481 m 796 396 q 791 411 796 406 q 779 419 786 417 q 764 424 772 422 q 750 429 756 426 q 733 424 740 422 q 718 414 725 425 q 710 398 715 407 q 711 378 704 389 q 719 357 710 367 q 739 339 729 347 q 758 337 750 336 q 776 340 765 338 q 794 367 792 351 q 796 396 797 382 m 747 274 q 728 287 740 285 q 706 286 717 289 q 690 275 694 285 q 692 256 686 265 q 708 240 699 243 q 731 239 718 238 q 744 253 738 246 q 747 274 750 261 m 282 686 q 279 694 282 692 q 264 694 272 692 q 249 697 256 696 q 236 695 242 697 q 229 683 231 693 q 256 681 243 681 q 282 688 269 681 l 282 686 m 301 658 q 262 664 285 665 q 218 664 239 663 q 215 658 215 661 q 215 653 215 656 q 253 647 233 646 q 293 646 274 649 q 301 649 296 647 q 303 658 306 651 l 301 658 m 339 631 q 299 632 319 633 q 260 633 279 631 q 231 633 246 631 q 204 626 215 635 q 208 618 204 622 q 265 615 236 614 q 319 614 294 617 q 335 617 326 615 q 338 631 344 619 l 339 631 m 647 379 q 613 499 649 444 q 549 547 586 531 q 471 561 511 563 q 431 549 453 554 q 392 528 410 543 q 355 469 368 500 q 339 401 342 438 q 360 305 336 349 q 428 238 383 261 q 463 224 443 229 q 503 219 482 219 q 543 225 524 219 q 576 242 563 231 q 631 300 615 261 q 647 379 646 339 m 314 554 q 275 590 299 576 q 226 589 251 603 q 203 565 210 581 q 192 535 196 550 q 203 507 194 519 q 224 483 213 494 q 257 474 239 474 q 290 483 275 474 q 312 515 308 494 q 314 554 315 535 m 296 406 q 269 428 288 422 q 232 432 251 433 q 214 406 222 421 q 214 376 206 392 q 227 358 219 367 q 244 349 235 350 q 269 348 257 342 q 290 361 281 354 q 297 382 297 371 q 296 406 297 394 m 290 258 q 289 270 292 265 q 282 282 286 275 q 267 289 275 288 q 250 290 258 290 q 242 285 243 290 q 235 276 242 279 q 235 258 232 267 q 243 243 239 250 q 257 239 250 239 q 272 239 264 239 q 283 247 278 242 q 290 260 288 253 l 290 258 m 639 825 q 564 672 643 728 q 529 654 551 660 q 483 649 507 649 q 438 656 460 650 q 403 675 415 663 q 359 726 378 699 q 338 789 340 753 q 349 881 329 838 q 408 949 369 924 q 465 969 435 967 q 524 972 496 972 q 556 961 535 964 q 614 904 596 942 q 639 825 632 867 m 619 431 q 619 340 629 385 q 574 269 608 294 q 508 244 544 246 q 439 257 472 242 q 426 337 424 294 q 451 411 428 379 q 514 453 474 439 q 590 453 554 467 q 608 445 599 450 q 619 431 617 440 m 610 756 q 621 826 624 788 q 603 893 618 864 q 568 924 585 908 q 529 947 551 940 q 507 951 519 951 q 486 949 494 950 q 388 904 429 953 q 364 843 374 876 q 364 776 354 810 q 376 744 371 757 q 393 715 382 731 q 448 676 417 692 q 517 668 479 660 q 574 701 549 676 q 610 756 599 726 m 597 853 q 600 790 610 821 q 579 733 590 760 q 563 718 568 726 q 546 707 557 710 q 508 689 531 690 q 463 690 485 688 q 448 699 456 696 q 440 713 440 701 q 443 776 440 742 q 472 832 446 811 q 500 852 483 846 q 532 865 517 858 q 548 863 539 863 q 566 865 557 864 q 583 863 575 865 q 596 854 592 861 l 597 853 z "},"C":{"ha":829,"x_min":-7,"x_max":800,"o":"m 786 82 q 788 48 792 65 q 778 14 785 31 q 752 38 767 25 q 721 58 738 51 q 640 65 676 74 q 568 40 603 56 q 497 10 533 24 q 415 1 460 -4 q 286 41 349 10 q 172 119 224 72 q 82 225 119 167 q 29 347 44 283 q 1 528 8 435 q 6 712 -7 622 q 57 883 19 801 q 163 1029 94 965 q 277 1098 214 1076 q 415 1104 340 1119 q 477 1081 449 1097 q 535 1050 506 1065 q 591 1075 561 1065 q 654 1076 621 1085 l 731 992 q 706 942 710 967 q 705 891 701 917 q 716 840 708 865 q 727 789 724 814 q 725 739 731 764 q 697 690 719 714 q 661 659 681 672 q 615 649 642 646 q 561 660 582 646 q 525 698 540 675 q 497 746 510 721 q 464 789 483 771 q 464 799 463 793 q 465 808 465 804 q 463 817 465 814 q 454 821 461 821 q 413 808 429 826 q 385 774 396 790 q 351 536 350 657 q 364 290 353 415 q 374 265 371 279 q 394 247 378 251 q 454 247 426 238 q 501 283 482 257 q 501 403 475 343 q 559 448 525 431 q 632 451 593 465 q 681 423 658 442 q 721 381 703 404 q 754 333 739 358 q 783 283 769 307 q 792 228 800 254 q 772 176 783 201 q 758 128 761 151 q 785 82 756 106 l 786 82 m 689 363 q 631 432 672 408 q 569 431 599 440 q 521 397 540 422 q 508 368 510 383 q 510 337 507 353 q 517 305 513 321 q 525 275 522 289 q 458 229 497 243 q 379 231 419 215 q 310 292 335 254 q 275 376 286 331 q 263 472 264 422 q 264 571 261 522 q 265 681 265 624 q 273 791 264 739 q 307 886 282 843 q 386 953 332 929 q 436 948 411 957 q 482 924 461 939 q 498 888 499 908 q 500 847 497 867 q 496 828 501 838 q 486 808 490 818 q 483 790 482 799 q 496 774 483 782 q 538 760 515 763 q 582 764 561 757 q 640 821 633 786 q 639 896 647 856 q 623 978 631 936 q 638 1057 615 1021 q 608 1060 622 1063 q 581 1051 594 1057 q 553 1040 567 1046 q 525 1033 540 1035 q 463 1069 497 1054 q 393 1089 429 1083 q 320 1090 357 1094 q 251 1068 283 1086 q 115 944 164 1019 q 43 779 65 868 q 22 594 21 690 q 35 410 22 499 q 62 316 42 361 q 113 232 82 271 q 185 165 144 193 q 274 124 226 136 q 347 108 311 106 q 416 120 382 110 q 483 145 450 131 q 549 167 515 160 q 616 171 582 175 q 686 142 650 167 q 670 191 686 169 q 642 236 654 213 q 681 292 667 263 q 689 363 696 322 m 606 1039 q 601 969 593 1006 q 615 899 608 933 q 615 835 621 865 q 568 785 610 806 q 539 784 554 788 q 514 792 524 781 q 520 831 517 810 q 523 871 524 851 q 515 909 522 890 q 492 944 508 928 q 439 972 469 965 q 379 972 408 978 q 302 922 328 957 q 265 842 276 886 q 249 749 253 797 q 242 657 246 700 q 221 685 225 665 q 206 719 217 704 l 188 818 l 174 822 q 185 822 182 818 q 188 833 188 826 q 187 851 188 842 q 188 864 186 860 l 182 869 q 125 749 157 808 q 47 643 93 690 q 60 758 43 700 q 96 869 76 817 q 140 940 114 904 q 197 1006 165 976 q 265 1053 228 1035 q 347 1071 303 1071 q 441 1056 397 1071 q 521 1007 485 1042 q 543 1013 533 1007 q 562 1025 553 1018 q 581 1037 571 1032 q 606 1039 592 1042 m 161 785 q 163 794 156 788 q 172 792 169 800 l 172 785 l 161 785 m 172 767 q 168 761 172 763 q 160 760 164 760 q 153 764 156 761 q 151 771 150 767 l 172 767 m 179 731 q 156 728 168 725 q 136 736 143 731 q 160 737 147 733 q 179 731 174 740 m 118 701 l 118 708 q 156 709 135 706 q 188 701 176 713 l 118 701 m 196 668 q 149 668 172 669 q 103 674 125 667 q 147 680 122 678 q 194 675 171 682 l 194 668 l 196 668 m 218 635 q 147 635 182 636 q 81 640 113 635 q 143 644 104 644 q 218 643 182 643 l 218 635 m 210 569 q 209 537 211 553 q 196 508 207 521 q 164 494 182 497 q 131 500 146 490 q 110 519 119 507 q 103 544 100 531 q 100 563 99 553 q 107 581 101 572 q 121 597 113 590 q 139 607 129 604 q 180 599 161 607 q 210 569 199 590 m 210 410 q 203 387 208 397 q 183 369 197 376 q 149 374 164 364 q 126 399 133 383 q 132 428 124 414 q 153 446 140 442 q 189 442 171 453 q 210 410 207 432 m 236 294 q 235 272 238 283 q 221 254 233 261 q 185 272 194 247 q 186 292 185 283 q 199 304 188 301 q 219 304 208 303 q 236 293 229 306 l 236 294 z "},"D":{"ha":1069,"x_min":0,"x_max":1028,"o":"m 985 706 q 921 842 961 771 q 825 972 881 913 q 701 1069 769 1031 q 551 1110 632 1108 q 492 1104 521 1111 q 437 1089 464 1097 q 382 1074 410 1081 q 324 1069 354 1068 q 312 1076 317 1071 q 302 1087 307 1082 q 291 1096 297 1092 q 276 1100 285 1100 q 238 1071 257 1076 q 199 1069 218 1065 q 159 1083 179 1074 q 118 1100 139 1093 q 76 1107 97 1107 q 35 1093 56 1107 q 132 840 104 976 q 163 571 160 704 q 158 491 160 532 q 151 410 157 450 q 133 331 144 369 q 97 261 121 293 q 79 258 85 253 q 69 271 74 263 q 60 285 65 279 q 46 285 56 290 q 13 251 24 271 q 0 210 3 232 q 9 168 0 188 q 31 132 18 149 q 58 100 43 115 q 86 69 74 85 q 179 28 126 42 q 283 33 232 14 q 303 43 294 36 q 322 57 313 50 q 341 67 331 64 q 365 67 351 71 q 424 33 393 44 q 488 11 456 22 q 605 -1 546 -3 q 719 17 664 1 q 823 65 774 33 q 911 140 872 96 q 985 265 958 194 q 1019 410 1011 335 q 1019 563 1028 486 q 986 706 1011 639 l 985 706 m 844 899 q 901 740 879 826 q 926 565 924 654 q 906 392 928 476 q 831 242 883 308 q 664 122 763 156 q 456 111 565 88 q 362 142 407 122 q 278 203 317 163 q 262 198 267 203 q 255 186 257 193 q 250 172 253 179 q 240 160 247 164 q 167 124 211 128 q 83 131 124 121 q 49 154 67 142 q 28 189 31 167 q 46 257 24 231 q 58 248 51 253 q 73 239 65 243 q 89 235 81 235 q 106 242 97 235 q 149 322 133 281 q 172 408 164 364 q 181 500 179 453 q 182 597 182 547 q 151 853 179 731 q 64 1085 122 975 q 124 1084 96 1094 q 177 1063 151 1074 q 228 1051 203 1053 q 281 1079 253 1050 q 336 1054 308 1058 q 391 1056 364 1050 q 447 1072 418 1061 q 503 1089 475 1082 q 561 1097 532 1096 q 621 1085 590 1099 q 688 1060 654 1078 q 751 1017 721 1042 q 805 962 781 992 q 844 900 829 932 l 844 899 m 767 789 q 761 808 763 803 q 751 825 760 814 l 754 789 l 767 789 m 781 769 q 758 781 775 781 l 758 765 q 772 766 765 767 q 781 769 778 765 m 792 739 l 792 747 q 771 751 785 750 q 754 743 757 753 q 774 740 763 739 q 792 739 785 740 m 811 710 q 783 717 801 721 q 750 717 765 714 l 751 710 l 811 710 m 825 678 l 825 683 l 743 688 l 743 681 l 825 678 m 856 646 q 797 653 826 657 q 736 657 768 650 l 732 646 q 794 643 761 643 q 856 646 829 643 m 849 568 q 831 595 844 585 q 802 609 818 606 q 770 608 786 613 q 743 590 754 603 q 733 546 732 571 q 751 504 735 521 q 779 492 763 493 q 811 494 796 490 q 844 523 835 501 q 850 568 853 544 l 849 568 m 888 639 q 859 797 878 721 q 793 938 840 872 q 678 1042 744 1003 q 524 1072 611 1081 q 463 1060 493 1074 q 404 1037 433 1047 q 345 1026 375 1026 q 286 1053 315 1025 q 239 1026 263 1026 q 191 1036 215 1026 q 143 1056 167 1046 q 94 1061 119 1067 q 141 962 124 1014 q 169 855 158 910 q 188 745 181 800 q 206 639 196 690 q 249 766 231 701 q 271 903 268 831 l 283 915 q 307 769 292 840 q 353 633 322 699 q 368 720 363 675 q 383 808 374 765 q 409 890 392 850 q 458 961 426 929 q 513 985 486 978 q 569 978 539 992 q 617 944 599 965 q 649 898 636 924 q 668 844 661 872 q 682 789 675 815 q 690 710 690 751 q 704 636 690 668 q 722 680 711 658 q 735 726 732 701 q 740 760 739 742 q 742 796 742 778 q 742 833 742 815 q 744 867 742 851 q 778 808 764 839 q 809 748 793 778 q 843 690 825 718 q 888 638 861 661 l 888 639 m 813 406 q 790 428 803 417 q 760 433 778 440 q 726 388 728 419 q 746 352 729 367 q 786 342 763 338 q 812 367 801 349 q 813 406 822 386 m 644 321 q 667 465 658 390 q 675 615 676 540 q 660 763 674 690 q 615 900 646 835 q 572 943 600 929 q 510 954 543 957 q 448 908 468 939 q 419 839 428 878 q 406 759 410 800 q 390 682 401 718 q 384 578 386 632 q 386 472 382 525 q 403 367 390 418 q 440 271 415 317 q 502 238 464 243 q 572 240 540 232 q 616 274 603 250 q 644 321 629 297 m 279 808 q 283 824 285 815 q 279 839 281 832 l 279 808 m 294 761 q 292 767 294 767 q 286 768 289 768 q 281 769 283 768 q 276 772 278 769 q 271 757 263 765 q 284 758 278 758 q 294 761 290 757 m 301 724 q 285 731 299 733 q 264 735 271 728 l 264 724 l 301 724 m 753 271 q 735 287 746 285 q 711 288 724 289 q 700 272 700 282 q 700 253 700 263 q 713 236 707 242 q 733 233 719 231 q 751 249 746 239 q 753 271 756 260 m 308 690 q 306 699 311 697 q 293 700 300 701 q 281 699 288 697 q 267 703 274 701 q 257 705 261 706 q 253 694 253 704 l 308 690 m 313 668 q 283 676 300 679 q 249 675 265 672 l 249 664 l 313 668 m 324 633 l 324 644 q 301 644 313 642 q 280 648 290 646 q 259 649 269 650 q 239 643 249 649 l 324 633 m 335 575 q 312 602 328 593 q 278 613 296 611 q 254 601 264 606 q 233 581 244 596 q 226 549 222 567 q 242 518 231 531 q 267 503 256 513 q 297 499 279 494 q 330 528 322 506 q 335 575 338 551 m 324 399 q 304 425 318 415 q 274 433 290 435 q 247 412 254 428 q 243 376 240 396 q 264 358 250 361 q 290 351 278 354 q 314 369 307 354 q 324 399 321 385 m 301 276 q 265 290 289 294 q 252 277 258 283 q 249 260 246 271 q 262 247 251 249 q 283 246 272 244 q 299 258 290 250 q 303 276 307 265 l 301 276 m 650 738 q 656 513 658 625 q 615 299 653 401 q 526 250 583 254 q 513 255 521 253 q 499 260 506 257 q 488 270 492 264 q 486 286 483 276 q 508 726 471 521 q 535 794 514 761 q 593 836 557 828 q 622 827 613 838 q 635 801 631 817 q 641 768 639 786 q 650 738 643 750 z "},"E":{"ha":994,"x_min":-1,"x_max":949,"o":"m 939 13 q 901 33 919 24 q 865 56 883 43 q 768 59 814 71 q 678 31 722 47 q 586 3 633 14 q 483 10 539 -7 q 417 35 447 17 q 356 74 386 54 q 266 24 315 38 q 165 25 217 11 q 106 51 135 33 q 53 95 76 69 q 16 151 31 121 q 0 215 1 182 q 8 253 -1 236 q 33 282 18 271 q 46 269 39 276 q 61 256 53 261 q 79 251 69 251 q 99 260 89 251 q 135 331 124 293 q 153 410 147 369 q 160 494 158 451 q 164 578 161 536 q 128 835 163 708 q 6 1064 93 961 q 47 1088 25 1085 q 90 1087 68 1092 q 133 1073 111 1082 q 176 1060 154 1064 q 218 1061 197 1056 q 258 1090 239 1067 q 313 1057 285 1058 q 371 1066 342 1056 q 430 1090 400 1076 q 490 1101 460 1103 q 586 1097 539 1106 q 674 1068 633 1089 q 738 1102 706 1086 q 811 1108 771 1118 l 881 1019 q 865 963 865 992 q 872 906 865 935 q 888 850 879 878 q 901 794 897 822 q 883 736 903 763 q 836 694 864 710 q 783 679 813 685 q 732 689 754 674 q 693 715 711 699 q 660 749 675 731 q 636 788 646 768 q 622 828 626 808 q 628 836 629 831 q 628 846 626 842 q 581 863 610 865 q 531 860 553 860 q 488 826 510 843 q 464 781 467 808 q 511 785 486 783 q 561 776 536 786 q 600 735 581 757 q 634 690 619 714 q 656 640 649 667 q 658 585 664 614 q 647 558 651 571 q 632 532 643 544 q 646 514 638 522 q 661 497 654 506 q 674 479 668 489 q 679 457 679 469 q 765 458 719 465 q 840 414 811 450 q 899 344 876 382 q 926 260 921 306 q 915 211 922 236 q 889 167 907 186 q 916 133 903 150 q 938 97 929 115 q 947 56 946 78 q 939 13 949 35 m 821 146 q 802 203 819 178 q 775 256 785 228 q 801 280 789 265 q 819 310 813 294 q 821 367 826 338 q 796 418 815 396 q 701 440 758 453 q 667 416 681 435 q 647 381 654 397 q 647 329 639 354 q 676 286 654 304 q 651 251 668 264 q 614 231 635 238 q 569 222 593 224 q 524 219 546 219 q 476 228 499 217 q 437 257 454 239 q 405 297 419 275 q 381 340 390 319 q 368 398 374 367 q 364 459 363 429 q 376 516 365 489 q 411 564 386 543 q 458 559 433 568 q 494 525 482 550 q 497 485 504 503 q 482 449 489 468 q 513 438 496 442 q 546 440 529 435 q 594 488 583 451 q 587 551 606 524 q 544 600 568 579 q 583 651 572 619 q 586 717 593 683 q 560 753 581 739 q 515 768 539 767 q 483 761 500 765 q 458 738 465 757 q 474 710 468 724 q 478 679 481 697 q 453 650 471 660 q 414 644 436 640 q 365 717 376 669 q 365 840 353 779 q 426 942 378 900 q 481 968 450 961 q 546 974 513 975 q 600 958 575 972 q 643 922 625 944 q 656 865 657 894 q 642 808 656 836 q 691 778 663 785 q 750 779 719 771 q 799 822 788 799 q 809 872 811 846 q 797 926 807 899 q 780 982 788 954 q 774 1038 772 1010 q 799 1092 776 1065 q 735 1081 765 1097 q 676 1047 706 1064 l 567 1086 q 483 1085 522 1097 q 406 1060 443 1074 q 332 1041 369 1046 q 254 1064 294 1036 q 201 1040 228 1038 q 146 1052 174 1043 q 89 1067 118 1061 q 31 1056 60 1074 q 119 917 88 993 q 164 758 150 842 q 178 588 178 675 q 172 414 178 500 q 160 365 164 390 q 150 315 157 339 q 131 270 143 292 q 94 235 119 249 q 59 238 75 232 q 29 257 43 244 l 19 211 q 33 166 24 188 q 64 129 43 144 q 124 116 92 118 q 183 125 156 114 q 231 165 210 140 q 261 215 251 189 q 280 203 271 211 q 298 187 289 196 q 317 169 307 178 q 338 156 326 160 q 418 124 378 131 q 499 122 458 118 q 579 135 539 126 q 660 151 619 144 q 742 159 701 158 q 822 144 782 160 l 821 146 m 649 276 q 628 311 638 293 q 619 351 618 329 q 576 354 596 347 q 538 373 557 361 q 502 399 519 385 q 467 426 485 414 q 460 383 464 407 q 457 336 457 360 q 463 292 457 313 q 481 256 468 271 q 521 243 499 246 q 566 244 543 240 q 610 256 589 247 q 649 276 632 264 m 779 849 q 736 804 765 818 q 700 805 717 803 q 672 824 683 807 q 678 875 683 847 q 667 928 672 903 q 606 980 644 969 q 526 993 567 990 q 485 987 506 990 q 447 977 465 983 q 411 960 428 971 q 381 929 394 949 q 349 870 361 903 q 332 803 336 838 q 334 734 328 768 q 357 671 340 700 q 402 629 374 643 q 463 626 431 615 q 495 664 482 642 q 494 714 508 686 l 483 746 q 544 747 514 758 q 565 710 561 732 q 563 665 569 688 q 515 608 544 629 q 444 594 485 588 q 361 635 392 603 q 312 709 331 667 q 281 799 293 751 q 256 886 269 846 q 200 642 253 753 q 185 748 194 694 q 161 852 176 801 q 123 951 146 903 q 67 1043 100 1000 q 113 1036 89 1044 q 161 1022 138 1028 q 208 1016 185 1015 q 253 1038 232 1017 q 311 1018 283 1019 q 365 1024 339 1017 q 418 1042 392 1031 q 472 1061 444 1053 q 529 1070 500 1069 q 590 1057 558 1071 q 617 1048 604 1056 q 643 1034 631 1040 q 669 1026 656 1028 q 696 1038 682 1025 q 726 1058 713 1046 q 760 1069 740 1071 q 751 1013 747 1040 q 762 958 754 986 q 776 903 769 931 q 779 847 783 876 l 779 849 m 275 774 q 272 767 275 772 l 264 767 l 265 779 q 275 775 274 779 l 275 774 m 282 746 q 271 743 278 742 q 257 743 264 744 q 267 753 257 753 q 282 747 276 754 l 282 746 m 290 724 q 273 715 283 713 q 253 715 263 718 l 253 726 q 272 727 263 726 q 290 724 282 728 m 300 696 q 286 689 293 689 q 274 691 281 689 q 260 694 267 693 q 246 694 253 696 q 270 706 250 707 q 301 697 290 706 l 300 696 m 308 669 q 273 666 292 665 q 238 665 254 667 q 247 676 239 674 q 265 678 256 678 q 288 677 276 678 q 307 678 299 676 l 307 669 l 308 669 m 319 647 q 272 644 299 643 q 226 643 246 644 l 226 650 q 274 653 253 647 q 319 656 296 658 l 319 647 m 332 588 q 339 558 343 575 q 324 531 335 542 q 287 510 310 508 q 246 519 264 513 q 226 553 235 535 q 226 593 218 572 q 249 618 235 611 q 281 624 264 625 q 311 613 297 622 q 331 588 325 603 l 332 588 m 314 439 q 310 411 317 422 q 293 390 304 400 q 264 392 278 388 q 243 413 250 397 q 245 440 240 428 q 261 460 250 453 q 294 460 279 460 q 314 439 308 461 m 292 281 q 290 258 293 268 q 274 244 288 247 q 247 258 257 244 q 247 281 249 269 q 257 296 244 292 q 276 294 268 300 q 292 282 285 289 l 292 281 z "},"F":{"ha":908,"x_min":1,"x_max":868,"o":"m 856 988 q 845 935 844 963 q 851 878 846 907 q 860 820 856 849 q 862 766 865 792 q 842 718 858 740 q 790 681 826 696 q 740 671 761 668 q 702 687 718 674 q 673 720 686 700 q 648 762 660 740 q 623 803 636 783 q 593 835 610 822 q 549 842 574 846 q 506 835 525 839 q 480 808 488 825 q 468 775 472 792 q 485 772 475 765 q 504 782 496 779 q 578 770 549 789 q 629 722 608 751 q 666 656 650 692 q 700 594 682 621 q 696 534 706 565 q 681 476 686 503 q 705 421 696 451 q 700 361 714 390 q 674 322 690 340 q 636 297 658 304 q 582 299 603 286 q 546 335 561 313 q 517 385 531 358 q 486 428 504 411 q 467 353 463 396 q 486 278 471 311 q 552 233 526 267 q 594 165 578 200 q 597 93 600 129 q 567 33 593 57 q 504 2 539 10 q 433 3 469 -6 q 406 13 419 4 q 381 31 393 22 q 356 42 368 39 q 332 32 344 44 q 303 7 319 15 q 269 -3 288 -1 q 230 -4 250 -6 q 192 0 210 -3 q 138 26 164 8 q 90 65 113 43 q 50 113 68 88 q 19 165 32 139 q 17 209 13 186 q 39 249 21 232 q 53 259 44 258 q 69 263 61 260 q 78 250 74 258 q 86 235 82 242 q 95 227 90 229 q 108 236 100 225 q 135 284 126 258 q 147 337 143 310 q 153 392 151 364 q 160 447 156 419 q 133 781 169 619 q 1 1079 96 943 q 49 1090 25 1089 q 98 1086 74 1090 q 145 1074 122 1082 q 189 1061 168 1067 q 221 1074 206 1064 q 247 1099 236 1083 q 283 1074 267 1088 q 325 1065 300 1061 q 409 1092 365 1081 q 498 1107 453 1104 q 587 1102 543 1110 q 671 1072 631 1094 q 735 1103 701 1089 q 806 1107 768 1118 q 827 1079 814 1093 q 851 1051 840 1065 q 865 1020 861 1036 q 856 986 868 1004 l 856 988 m 776 1093 q 746 1088 760 1093 q 719 1076 732 1083 q 693 1062 706 1069 q 668 1050 681 1054 q 590 1083 632 1074 q 503 1092 547 1093 q 417 1078 460 1090 q 340 1047 375 1067 q 289 1051 314 1040 q 242 1065 264 1063 q 196 1042 219 1042 q 147 1051 172 1043 q 96 1068 122 1060 q 42 1071 69 1076 q 110 922 82 1000 q 153 761 138 843 q 176 596 169 679 q 178 433 182 513 q 169 369 171 404 q 160 303 167 335 q 138 247 153 272 q 88 211 122 222 q 74 216 79 211 q 65 225 69 221 q 57 232 61 229 q 44 231 53 235 q 40 183 33 208 q 63 140 46 158 q 105 110 82 118 q 154 103 128 103 q 204 113 179 108 q 246 140 229 117 q 272 187 260 178 q 294 188 283 196 q 318 163 306 181 q 345 130 331 146 q 377 106 360 114 q 418 108 394 97 q 483 127 456 106 q 528 176 510 149 q 531 211 529 190 q 519 243 533 232 q 509 251 513 251 q 502 245 506 250 q 495 234 499 240 q 486 225 492 228 q 442 243 458 228 q 415 281 425 258 q 399 327 406 303 q 386 372 393 351 q 388 419 388 394 q 392 465 389 443 q 405 506 396 486 q 432 539 414 525 q 468 544 450 553 q 501 524 486 536 q 513 499 514 513 q 508 473 511 486 q 505 448 504 460 q 521 429 506 436 q 576 430 549 421 q 617 467 603 439 q 615 538 628 504 q 571 592 603 571 q 606 651 599 617 q 611 721 614 686 q 578 757 600 744 q 532 769 556 769 q 513 763 522 765 q 493 758 503 761 q 476 749 483 754 q 465 732 469 743 q 485 698 476 717 q 482 660 493 679 q 462 647 474 649 q 438 644 450 644 q 399 679 410 656 q 376 725 388 703 q 378 840 367 783 q 426 939 389 896 q 490 969 454 960 q 557 968 525 978 q 604 945 581 961 q 638 906 628 929 q 644 855 649 882 q 629 806 640 828 q 669 788 644 788 q 717 786 693 789 q 774 822 758 800 q 788 869 789 843 q 778 922 788 894 q 762 979 769 950 q 755 1037 754 1008 q 776 1092 756 1065 l 776 1093 m 743 1060 q 733 1015 731 1038 q 741 968 735 992 q 755 922 747 944 q 762 880 763 900 q 749 842 761 860 q 706 811 738 824 l 661 815 q 664 891 667 850 q 629 958 661 932 q 548 991 594 986 q 460 985 501 996 q 408 956 428 976 q 374 910 388 936 q 355 855 361 885 q 346 797 349 825 q 356 701 335 744 q 419 626 378 657 q 478 626 450 621 q 500 649 496 633 q 510 679 504 665 q 508 702 515 690 q 495 724 501 714 q 490 741 489 733 q 515 751 492 749 q 553 749 536 754 q 585 725 571 744 q 585 675 594 699 q 561 632 576 651 q 524 603 546 613 q 478 590 501 593 q 433 592 454 586 q 394 611 413 599 q 360 641 376 624 q 332 676 344 658 q 317 703 322 689 q 308 733 313 718 q 299 763 304 749 q 286 792 294 778 q 278 781 286 783 q 264 781 271 779 l 264 789 l 286 793 q 286 812 292 807 q 274 818 281 817 q 267 820 268 819 q 279 828 265 821 q 274 857 276 843 q 264 882 272 871 q 243 749 261 813 q 201 624 225 685 q 188 686 186 651 q 182 753 189 721 q 140 906 163 831 q 72 1049 117 981 q 122 1045 99 1053 q 167 1031 144 1038 q 210 1024 189 1024 q 253 1047 231 1025 q 308 1027 281 1026 q 365 1038 336 1028 q 424 1058 394 1047 q 483 1071 453 1069 q 588 1063 540 1079 q 679 1021 635 1047 q 708 1047 692 1039 q 743 1060 725 1054 m 281 767 q 273 763 278 761 q 264 763 268 764 l 264 771 q 272 771 267 769 q 279 765 276 772 l 281 767 m 283 746 q 282 740 285 743 q 276 736 279 736 q 263 739 269 733 q 261 749 256 744 q 273 749 267 749 q 285 744 279 750 l 283 746 m 253 717 q 274 725 260 728 q 299 725 288 722 l 299 717 l 253 717 m 304 692 q 278 687 293 686 q 247 685 263 688 q 256 695 250 693 q 271 697 263 697 q 288 697 279 697 q 304 699 297 696 l 304 690 l 304 692 m 246 663 l 246 672 l 310 672 l 310 665 l 246 663 m 325 639 q 276 635 299 632 q 229 639 254 638 q 248 649 236 647 q 274 651 260 651 q 301 649 288 651 q 325 646 314 647 l 325 639 m 319 574 q 317 535 325 553 q 297 503 308 518 q 274 497 286 500 q 249 500 261 493 q 222 538 231 517 q 224 582 214 558 q 244 601 232 594 q 268 611 256 607 q 301 602 288 613 q 321 574 314 592 l 319 574 m 311 414 q 305 381 308 399 q 282 361 301 363 q 265 359 272 357 q 253 367 258 361 q 242 379 247 372 q 233 390 238 386 q 236 426 231 406 q 263 450 242 447 q 294 441 279 453 q 311 414 310 429 m 297 274 q 295 251 297 263 q 282 238 293 240 q 256 249 264 233 q 256 269 257 258 q 265 285 254 279 q 283 283 275 285 q 297 274 290 282 z "},"G":{"ha":988,"x_min":-3,"x_max":949,"o":"m 936 374 q 885 303 918 332 q 851 319 865 306 q 824 344 838 333 l 810 331 q 804 249 807 289 q 801 170 801 210 q 805 92 800 131 q 822 15 810 53 q 735 28 778 7 q 657 81 693 50 q 613 52 633 68 q 569 26 593 36 q 489 4 532 11 q 403 0 446 -3 q 319 15 360 3 q 246 51 279 28 q 103 200 158 114 q 22 384 47 286 q 1 585 -3 482 q 33 788 4 689 q 78 897 50 842 q 148 997 107 951 q 240 1074 189 1043 q 354 1108 292 1104 q 416 1108 386 1117 q 476 1097 446 1100 l 571 1039 q 633 1065 600 1054 q 703 1065 667 1075 l 765 986 q 734 931 739 961 q 734 869 729 901 q 747 806 739 838 q 752 747 754 774 q 732 697 750 719 q 668 664 714 675 q 618 674 642 664 q 574 702 594 685 q 537 742 553 719 q 508 785 521 764 q 513 804 515 796 q 505 819 511 813 q 490 830 499 825 q 474 838 481 835 q 434 832 454 835 q 399 818 414 829 q 369 767 379 794 q 355 709 360 739 q 348 648 350 679 q 340 588 346 617 q 331 424 335 504 q 335 264 328 343 q 379 240 353 246 q 431 242 406 235 q 469 276 454 254 q 490 321 483 297 q 477 356 488 340 q 453 387 467 372 q 428 417 440 401 q 408 449 415 432 q 389 542 381 490 q 411 581 397 561 q 449 607 425 600 q 503 615 475 614 q 557 604 532 617 q 596 574 578 593 q 625 532 614 554 q 677 579 643 564 q 746 604 711 594 q 813 596 782 606 q 868 560 844 586 q 927 475 906 522 q 938 375 949 428 l 936 374 m 872 497 q 853 539 865 518 q 818 571 842 560 q 775 585 797 583 q 731 581 753 586 q 690 565 710 576 q 653 540 669 554 q 635 510 640 528 q 615 486 631 493 q 607 528 603 503 q 563 578 592 556 q 501 600 533 601 q 445 585 472 599 q 407 542 418 572 q 403 505 404 526 q 414 472 401 483 q 439 486 426 481 q 467 489 451 492 q 493 469 482 483 q 507 440 504 456 q 509 325 519 383 q 447 231 499 267 q 361 222 410 211 q 314 256 332 235 q 285 305 296 278 q 268 361 274 332 q 258 419 263 390 q 256 554 258 485 q 259 690 253 624 q 286 819 265 757 q 356 929 307 881 q 404 951 376 946 q 460 950 432 956 q 499 924 485 944 q 531 886 514 903 q 534 835 538 861 q 524 786 531 810 q 574 758 544 768 q 642 772 621 757 q 669 810 664 786 q 671 866 675 835 q 663 930 667 897 q 658 992 658 963 q 674 1046 658 1022 q 617 1041 642 1050 q 568 1021 592 1032 q 502 1060 535 1040 q 432 1088 469 1081 q 338 1089 383 1099 q 251 1060 292 1079 q 142 963 186 1018 q 72 842 99 907 q 32 708 44 778 q 17 567 19 638 q 23 436 14 501 q 57 313 32 371 q 124 209 82 256 q 232 135 167 163 q 327 110 276 115 q 428 113 378 104 q 524 144 478 121 q 604 206 569 167 q 665 145 631 171 q 742 117 699 119 l 740 124 q 722 212 728 165 q 719 303 715 258 q 739 390 724 349 q 783 464 754 431 q 823 463 804 475 q 850 436 842 451 q 872 497 876 460 m 642 1026 q 631 961 625 996 q 644 893 638 926 q 647 830 650 860 q 607 779 643 800 q 576 783 590 776 q 554 799 563 789 q 559 858 557 826 q 544 913 561 889 q 501 958 526 940 q 443 978 475 975 q 367 964 403 975 q 304 914 332 953 q 271 851 283 885 q 251 783 258 818 q 240 711 244 747 q 231 639 236 675 q 216 644 221 639 q 209 658 211 650 q 206 673 207 665 q 201 688 206 681 q 196 794 190 739 q 206 897 201 849 q 173 840 190 868 q 143 783 156 813 q 162 785 150 790 q 183 779 174 781 q 175 769 183 769 q 155 772 164 769 q 143 785 146 774 q 122 756 129 771 q 106 726 115 742 l 183 721 l 185 713 q 144 712 169 714 q 106 721 119 710 l 53 656 l 47 661 q 76 786 57 722 q 128 905 96 850 q 207 1002 160 960 q 319 1063 254 1044 q 449 1058 386 1081 q 564 994 513 1036 q 601 1016 582 1007 q 642 1028 619 1025 l 642 1026 m 658 367 q 651 363 656 364 q 643 357 647 361 q 631 362 636 356 q 624 374 626 368 q 613 363 618 369 q 597 364 607 356 q 583 401 582 379 q 599 439 583 422 q 615 433 614 442 q 624 417 617 424 q 640 429 635 419 q 656 431 644 439 q 667 400 668 417 q 660 367 667 383 l 658 367 m 186 814 q 185 808 188 810 q 179 803 182 806 l 168 808 q 174 818 165 817 q 186 815 182 819 l 186 814 m 126 738 q 134 747 128 744 q 147 749 140 749 q 164 748 156 749 q 179 749 172 747 l 179 738 l 126 738 m 632 256 q 627 241 631 249 q 614 232 624 233 q 588 244 600 229 l 596 274 q 632 256 622 276 m 94 681 l 99 693 q 122 690 110 690 q 147 689 135 689 q 173 688 161 689 q 194 681 185 686 l 94 681 m 201 644 q 138 644 169 647 q 74 653 106 642 l 75 660 q 138 658 108 653 q 200 653 168 663 l 200 646 l 201 644 m 206 590 q 203 544 207 567 q 178 510 200 521 q 136 507 158 506 q 99 524 114 508 q 84 558 86 538 q 93 594 82 579 q 118 619 103 611 q 150 626 133 626 q 182 616 167 625 q 206 592 197 607 l 206 590 m 194 424 q 185 391 197 406 q 156 372 172 376 q 124 383 136 369 q 106 414 111 396 q 110 438 101 429 q 125 456 119 446 q 169 458 146 469 q 196 424 193 447 l 194 424 m 200 288 q 198 272 203 279 q 186 264 193 265 q 168 264 178 264 q 154 274 158 264 q 156 294 154 285 q 168 307 157 304 q 190 304 179 308 q 200 289 200 300 l 200 288 z "},"H":{"ha":1136,"x_min":-15,"x_max":1082,"o":"m 1082 969 q 950 641 978 821 q 953 274 922 461 q 997 228 975 251 q 1035 177 1019 204 q 1056 120 1051 150 q 1047 56 1061 90 q 990 6 1026 15 q 913 -1 954 -4 q 872 12 892 0 q 833 31 851 24 q 796 34 814 38 q 760 3 778 31 q 708 -4 736 -8 q 656 11 679 0 q 575 97 614 50 q 528 200 536 143 q 537 238 532 219 q 556 267 542 256 q 577 247 567 258 q 604 242 588 235 q 635 281 624 258 q 649 328 646 303 q 651 378 653 353 q 644 428 650 404 q 592 453 622 447 q 535 451 563 458 q 481 422 506 439 q 442 374 456 406 q 438 307 428 340 q 468 241 449 274 q 508 176 488 208 q 534 115 528 144 q 524 59 540 86 q 453 8 507 32 q 413 6 432 3 q 376 15 393 8 q 342 33 358 22 q 308 53 325 43 q 259 20 285 35 q 200 8 233 6 q 135 24 167 10 q 78 60 104 38 q 32 113 51 83 q 4 171 13 142 q 38 285 -15 239 q 50 279 46 286 q 58 265 54 272 q 67 253 61 257 q 86 256 74 249 q 124 360 111 304 q 142 474 138 415 q 144 591 146 532 q 138 707 142 650 q 97 914 131 815 q 11 1104 63 1013 q 94 1108 51 1118 q 174 1078 138 1097 q 243 1110 217 1078 q 266 1097 254 1104 q 290 1085 278 1090 q 317 1080 303 1081 q 346 1086 331 1079 q 407 1106 374 1097 q 472 1099 440 1114 q 515 1040 499 1072 q 547 974 532 1007 q 502 912 524 944 q 467 844 481 879 q 449 770 453 808 q 456 693 444 732 q 490 682 472 683 q 526 685 508 681 q 560 698 543 689 q 590 718 576 707 q 626 781 621 744 q 635 856 632 817 q 594 979 625 922 q 524 1089 564 1036 q 583 1099 553 1106 q 644 1085 614 1093 q 702 1077 674 1078 q 756 1104 731 1076 q 772 1101 765 1106 q 783 1091 778 1097 q 794 1079 789 1085 q 807 1074 800 1074 q 858 1077 832 1071 q 910 1090 885 1083 q 961 1097 936 1096 q 1011 1085 986 1097 q 1053 1031 1039 1061 q 1082 971 1068 1000 l 1082 969 m 993 1069 q 932 1078 961 1086 q 874 1060 903 1069 q 818 1049 846 1050 q 763 1079 790 1049 q 714 1057 739 1057 q 663 1063 689 1057 q 608 1076 636 1069 q 553 1072 581 1082 q 590 1024 571 1050 q 619 969 608 997 q 641 903 632 939 q 650 832 650 868 q 639 765 650 797 q 600 706 628 732 q 569 677 588 685 q 528 669 550 669 q 485 669 507 668 q 446 669 464 671 q 397 707 417 683 q 363 758 376 731 q 353 845 350 803 q 369 928 356 888 q 406 1005 383 968 q 456 1075 429 1042 q 401 1079 429 1085 q 347 1067 374 1074 q 294 1062 319 1061 q 243 1085 268 1063 q 194 1058 218 1057 q 147 1069 171 1058 q 97 1089 122 1079 q 43 1090 71 1099 q 144 790 118 950 q 156 457 171 631 q 143 344 151 399 q 103 243 135 289 q 69 232 90 229 q 38 254 49 235 l 28 235 q 26 186 18 210 q 49 143 35 163 q 99 128 69 128 q 154 132 128 129 q 199 161 179 140 q 233 201 219 182 q 253 172 244 188 q 281 143 261 156 q 385 121 328 115 q 437 148 415 124 q 461 201 458 172 q 451 224 458 222 q 433 219 443 225 q 410 210 422 214 q 389 217 399 206 q 353 242 367 222 q 331 279 339 261 q 324 345 325 310 q 328 415 322 381 q 351 481 335 450 q 399 535 368 511 q 486 563 440 557 q 581 554 532 569 q 629 515 607 542 q 661 461 651 489 q 667 396 665 429 q 665 331 669 363 q 648 269 661 299 q 610 217 635 239 q 581 219 594 214 q 556 235 567 225 q 544 204 544 222 q 549 171 544 186 q 582 132 556 143 q 635 117 608 121 q 700 135 668 115 q 756 179 732 154 q 817 122 776 138 q 906 108 858 106 q 946 130 925 118 q 974 165 967 142 q 978 199 981 181 q 964 228 975 218 q 944 213 954 219 q 919 210 935 206 q 886 241 896 219 q 868 282 876 263 q 851 488 856 383 q 859 694 847 593 q 902 891 871 796 q 993 1068 933 986 l 993 1069 m 779 736 q 759 733 769 732 q 739 733 749 733 q 756 741 743 743 q 779 742 768 739 l 779 736 m 726 704 q 735 715 729 714 q 750 713 742 715 q 767 709 758 711 q 782 710 775 707 l 782 704 l 726 704 m 782 685 q 756 681 769 682 q 726 682 743 679 q 751 685 739 686 q 782 686 764 685 l 782 685 m 708 654 l 708 661 l 790 661 l 790 658 l 708 654 m 690 625 l 690 632 l 800 628 l 690 625 m 949 1054 q 866 853 896 958 q 826 635 836 749 q 801 698 807 665 q 781 761 794 731 q 767 758 774 757 q 753 758 760 758 l 751 767 q 768 765 758 768 q 782 772 778 761 q 781 782 785 779 q 775 788 778 785 q 767 784 772 783 q 756 785 761 785 l 756 799 q 767 797 763 801 q 779 799 772 792 q 772 812 782 810 q 760 817 763 814 q 770 831 768 822 q 770 849 772 839 q 766 867 768 858 q 764 883 764 876 q 746 796 758 840 q 711 713 733 751 q 655 644 689 674 q 574 603 621 615 q 433 606 499 583 q 317 669 368 628 q 267 661 296 661 q 219 669 239 661 l 304 671 q 307 684 311 678 q 299 694 303 690 q 224 694 260 685 q 211 677 215 686 q 203 658 207 668 q 195 638 200 647 q 182 621 190 629 q 154 849 178 738 q 79 1061 131 961 l 82 1069 q 122 1057 101 1065 q 165 1043 143 1049 q 206 1040 186 1038 q 244 1061 226 1043 q 285 1041 264 1044 q 327 1040 306 1038 q 370 1051 349 1043 q 413 1065 392 1058 q 381 997 399 1032 q 349 926 363 963 q 329 851 335 890 q 333 769 324 813 q 369 699 340 729 q 435 653 397 668 q 526 647 479 642 q 608 679 574 651 q 648 726 633 700 q 668 780 663 751 q 672 838 674 808 q 665 897 671 868 q 638 981 654 940 q 593 1058 621 1021 q 616 1060 604 1064 q 640 1051 628 1057 q 666 1040 653 1046 q 693 1033 679 1033 q 729 1036 714 1026 q 761 1054 744 1046 q 806 1031 783 1033 q 851 1035 828 1029 q 899 1047 875 1040 q 949 1053 924 1054 l 949 1054 m 808 574 q 810 535 817 554 q 790 500 803 515 q 753 492 772 493 q 718 504 735 490 q 702 540 708 519 q 708 579 696 560 q 731 599 717 593 q 760 604 746 606 q 788 595 775 603 q 808 574 801 588 m 801 406 q 797 370 806 386 q 772 347 789 354 q 738 353 753 344 q 715 379 722 361 q 722 415 708 403 q 754 433 735 428 q 800 404 786 433 l 801 406 m 775 267 q 757 238 779 242 q 739 240 747 236 q 729 253 731 243 q 731 272 725 264 q 745 281 736 279 q 763 281 754 283 q 775 268 772 278 l 775 267 m 206 633 l 210 643 q 275 644 242 640 q 336 636 308 647 l 336 629 l 206 633 m 294 533 q 288 517 294 524 q 274 507 281 510 q 231 506 251 497 q 200 536 210 515 q 197 583 189 558 q 232 611 206 608 q 260 611 247 614 q 283 596 274 608 q 298 567 299 588 q 294 533 297 547 m 299 422 q 299 394 307 407 q 288 365 290 381 q 258 351 275 353 q 221 354 240 350 q 196 388 199 365 q 200 429 193 410 q 219 451 206 444 q 249 457 233 458 q 279 447 265 456 q 299 422 293 438 m 281 278 q 273 249 283 263 q 247 235 263 235 q 219 241 233 233 q 203 264 206 249 q 210 294 204 279 q 238 311 217 310 q 264 302 251 311 q 281 278 276 293 m 274 760 q 260 832 263 793 q 256 908 258 871 q 255 838 257 869 q 265 781 253 806 q 258 768 268 769 q 243 763 247 767 q 258 763 250 763 q 274 760 267 764 m 276 751 q 270 742 275 744 q 258 740 265 740 q 246 740 253 740 q 236 736 240 740 l 281 733 l 276 751 m 286 710 q 260 715 275 717 q 232 715 246 714 l 232 704 l 286 710 z "},"I":{"ha":626,"x_min":0,"x_max":606,"o":"m 586 92 q 554 42 576 64 q 504 11 532 21 q 454 3 479 1 q 406 13 429 4 q 362 34 383 21 q 321 63 340 47 q 251 11 292 31 q 167 3 211 -8 q 73 65 114 21 q 11 158 32 110 q 8 191 10 174 q 8 225 7 208 q 15 256 8 242 q 38 281 22 271 q 65 259 51 272 q 96 251 78 246 q 128 331 121 288 q 139 421 136 374 q 119 779 150 606 q 0 1104 88 953 q 68 1108 35 1117 q 133 1088 101 1099 q 196 1078 165 1078 q 257 1108 228 1078 q 279 1094 268 1103 q 302 1080 290 1086 q 326 1072 314 1074 q 351 1076 338 1069 q 413 1104 378 1094 q 481 1110 447 1114 q 542 1085 515 1106 q 581 1024 569 1064 q 501 852 535 944 q 453 663 468 760 q 443 467 438 565 q 481 276 449 368 q 510 274 496 281 q 535 255 524 267 q 556 230 546 243 q 576 207 567 217 q 586 92 606 151 m 518 178 q 522 200 519 189 q 524 222 524 211 q 519 243 524 233 q 504 261 515 253 q 488 245 493 257 q 468 236 482 233 q 429 260 442 240 q 401 299 417 279 q 372 467 379 378 q 369 645 364 556 q 394 822 375 735 q 442 983 413 908 q 451 1010 444 997 q 465 1036 458 1024 q 478 1060 472 1049 q 486 1085 485 1072 q 424 1088 454 1092 q 369 1065 393 1083 q 339 1057 354 1057 q 309 1061 324 1057 q 281 1072 294 1065 q 254 1085 267 1079 q 200 1056 228 1056 q 144 1065 172 1056 q 88 1084 117 1075 q 29 1083 58 1093 q 117 868 83 979 q 157 633 150 757 q 158 431 164 532 q 117 243 153 331 q 99 229 108 231 q 78 231 89 228 q 58 238 68 233 q 40 246 47 243 q 31 234 33 243 q 26 217 29 225 q 33 168 26 192 q 63 128 40 144 q 118 110 86 111 q 181 115 150 108 q 211 128 197 118 q 238 153 225 139 q 261 180 250 167 q 283 203 272 193 q 303 168 286 181 q 335 136 319 156 q 385 114 357 121 q 442 115 414 107 q 486 137 468 119 q 518 178 504 154 m 450 1072 q 378 865 406 972 q 343 649 350 757 q 326 668 335 656 q 313 693 317 681 q 303 723 306 707 q 296 755 300 739 q 285 783 292 771 q 263 803 278 796 q 276 810 274 804 q 276 823 278 815 q 272 840 275 831 q 269 856 268 849 l 264 858 q 231 747 253 800 q 185 640 210 693 q 172 672 175 654 q 167 709 168 690 q 164 747 165 728 q 157 783 163 767 q 117 924 138 854 q 63 1056 97 993 q 113 1053 88 1060 q 162 1040 138 1046 q 210 1035 186 1033 q 257 1057 235 1036 q 305 1038 281 1047 q 357 1039 329 1029 q 400 1060 378 1050 q 450 1072 422 1069 m 276 772 q 270 767 274 769 q 261 767 267 764 l 256 778 q 268 778 263 778 q 276 774 274 779 l 276 772 m 257 736 l 256 747 q 270 747 263 746 q 283 742 278 749 l 283 736 l 257 736 m 290 708 q 279 699 290 699 l 243 699 l 243 710 l 290 710 l 290 708 m 297 674 q 283 664 292 667 q 263 662 274 661 q 243 664 253 663 q 225 667 233 665 l 221 671 q 257 679 235 681 q 299 675 279 678 l 297 674 m 313 638 q 262 629 292 628 q 208 633 232 631 q 258 641 226 642 q 313 636 289 640 l 313 638 m 318 572 q 313 526 325 549 q 279 496 301 504 q 234 508 251 489 q 208 546 217 526 q 218 587 206 567 q 253 610 231 607 q 293 602 275 613 q 318 572 311 592 m 308 396 q 300 362 308 376 q 269 347 292 347 q 241 358 254 347 q 224 383 228 368 q 233 413 226 397 q 254 432 239 428 q 289 424 274 433 q 307 394 304 414 l 308 396 m 290 261 q 285 248 288 254 q 276 238 283 242 q 258 240 267 235 q 251 256 249 246 q 254 272 249 265 q 268 279 260 278 q 284 276 276 281 q 290 260 292 271 l 290 261 z "},"J":{"ha":849,"x_min":-4,"x_max":808,"o":"m 808 988 q 719 769 750 889 q 681 525 688 650 q 692 276 675 400 q 744 44 708 153 q 658 51 701 36 q 578 88 614 65 q 515 38 550 58 q 440 8 479 18 q 358 1 400 -1 q 278 19 317 3 q 242 33 261 26 q 201 43 222 40 q 160 42 181 46 q 124 24 140 38 q 113 17 117 22 q 104 8 108 13 q 95 3 100 4 q 82 7 90 1 q 52 45 69 25 q 23 86 35 65 q 11 128 11 107 q 32 172 11 150 q 51 212 56 193 q 34 249 47 231 q 8 286 21 267 q 3 329 -4 306 q 15 383 6 357 q 53 431 25 410 q 161 451 101 467 q 210 414 190 436 q 247 366 231 392 q 280 313 264 340 q 315 263 296 286 q 364 342 350 297 q 380 435 378 386 q 378 537 382 485 q 372 639 374 589 q 323 872 357 760 q 229 1085 289 983 q 280 1103 249 1100 q 338 1096 311 1106 q 367 1090 353 1096 q 394 1078 381 1083 q 422 1070 408 1072 q 453 1079 436 1068 q 464 1087 460 1081 q 472 1099 468 1093 q 480 1109 475 1106 q 494 1110 485 1113 l 535 1075 q 587 1085 561 1078 q 639 1098 613 1092 q 692 1106 665 1104 q 747 1100 718 1107 q 787 1047 767 1076 q 808 988 807 1018 m 703 1082 q 635 1074 667 1083 q 575 1053 604 1065 q 528 1057 551 1046 q 485 1078 506 1068 q 456 1055 472 1061 q 421 1050 439 1049 q 385 1058 403 1051 q 356 1075 368 1064 q 301 1082 332 1079 q 258 1071 269 1085 q 373 752 336 921 q 394 401 410 583 q 375 318 385 361 q 332 242 365 275 q 285 221 313 225 q 232 224 258 217 q 214 232 224 228 q 196 241 204 236 q 182 254 188 246 q 178 276 176 263 q 204 326 201 296 q 200 383 207 356 q 170 418 189 403 q 128 432 151 433 q 78 422 100 433 q 38 393 57 411 q 22 335 21 367 q 31 275 22 303 q 72 243 67 261 q 68 206 76 225 q 47 165 60 186 q 39 126 35 144 q 108 141 72 142 q 182 133 144 140 q 257 118 219 126 q 331 109 294 110 q 403 119 368 108 q 471 163 439 131 q 482 178 478 169 q 490 197 486 188 q 499 213 494 206 q 514 224 504 219 q 568 167 532 190 q 640 147 604 143 q 619 235 629 190 q 611 325 610 281 l 604 331 q 596 528 597 429 q 603 722 594 626 q 636 909 613 818 q 704 1082 660 1000 l 703 1082 m 660 1053 q 632 951 647 1001 q 603 850 617 901 q 580 747 589 799 q 569 642 571 696 l 563 635 q 551 667 563 661 q 522 673 539 674 q 488 670 506 672 q 457 678 469 668 l 538 683 q 517 789 528 733 q 490 897 506 844 l 486 897 q 463 763 474 832 q 425 631 453 693 l 418 631 l 378 822 q 385 831 386 828 q 381 835 385 833 q 372 841 376 838 q 371 850 368 844 q 338 956 356 903 q 296 1056 319 1010 q 344 1047 319 1056 q 392 1033 368 1039 q 440 1028 417 1026 q 483 1054 463 1031 q 525 1030 503 1032 q 570 1033 547 1028 q 616 1047 593 1039 q 660 1053 639 1054 m 500 811 q 499 801 503 803 q 489 797 496 800 q 483 806 485 800 q 488 815 481 813 q 494 815 490 814 q 500 811 497 817 m 508 772 q 497 764 507 761 q 479 764 486 767 l 475 769 q 490 779 478 776 q 508 772 501 782 m 517 736 q 507 730 513 731 q 496 731 501 729 q 483 733 490 732 q 471 732 476 733 q 473 744 468 742 q 485 747 478 747 q 500 745 492 747 q 513 743 508 743 q 515 740 514 740 q 515 736 517 739 l 517 736 m 526 703 q 496 697 513 692 q 467 707 479 701 q 475 717 469 715 q 488 716 481 718 q 504 712 496 714 q 521 713 513 710 q 526 708 524 710 q 528 703 529 707 l 526 703 m 543 643 q 503 635 529 632 q 453 635 476 638 q 446 646 447 638 q 454 651 444 654 q 475 649 464 649 q 499 649 488 649 q 523 649 511 650 q 544 642 535 647 l 543 643 m 547 579 q 535 521 558 549 q 503 506 521 504 q 467 515 485 508 q 444 547 449 528 q 446 586 439 567 q 463 603 450 600 q 486 615 475 607 q 523 607 506 615 q 547 579 540 599 m 532 379 q 508 366 524 368 q 482 374 493 364 q 463 394 469 381 q 463 422 457 408 q 495 445 471 442 q 532 432 519 449 q 540 406 540 422 q 532 379 540 390 m 524 278 q 504 250 526 253 q 485 256 493 247 q 479 272 478 264 q 485 287 482 279 q 496 297 488 294 q 525 276 515 296 l 524 278 z "},"K":{"ha":1154,"x_min":-1,"x_max":1103,"o":"m 1100 133 q 1095 79 1103 104 q 1065 35 1088 54 q 994 1 1033 7 q 917 10 956 -6 q 874 38 896 24 q 836 74 851 51 q 799 40 819 56 q 756 15 779 24 q 707 3 733 6 q 653 10 681 1 q 621 24 636 10 q 592 50 606 38 q 565 64 578 63 q 540 40 551 65 q 481 11 515 18 q 411 11 447 4 q 364 37 385 18 q 321 74 343 56 q 284 44 303 58 q 244 22 265 31 q 201 10 224 13 q 153 17 178 8 q 92 57 121 33 q 42 110 64 81 q 10 173 21 139 q 3 243 -1 207 q 19 264 6 258 q 40 279 32 269 q 56 272 49 279 q 69 258 63 264 q 83 253 76 253 q 99 268 90 253 q 141 474 136 368 q 129 686 146 581 q 78 892 113 792 q 0 1082 43 993 q 80 1079 42 1083 q 157 1057 118 1075 q 192 1062 175 1053 q 224 1078 208 1071 q 256 1085 240 1086 q 285 1061 271 1085 q 332 1073 308 1064 q 379 1090 356 1082 q 426 1098 403 1097 q 475 1083 450 1099 q 494 1051 483 1067 q 514 1021 504 1036 q 531 989 524 1006 q 540 954 538 972 q 463 847 488 906 q 424 721 438 788 q 455 738 442 725 q 478 765 468 750 q 499 797 489 781 q 518 826 508 813 q 567 953 547 889 q 592 1090 588 1017 q 624 1076 608 1086 q 654 1060 639 1067 q 685 1051 669 1053 q 719 1064 701 1050 q 773 1090 744 1078 q 831 1107 801 1101 q 891 1110 861 1113 q 949 1096 921 1108 q 997 1044 976 1072 q 1029 983 1018 1015 q 840 849 925 933 q 682 672 754 764 q 651 611 674 640 q 731 532 694 575 q 800 444 768 489 q 863 352 832 399 q 928 261 894 306 q 947 247 939 257 q 967 242 956 236 q 974 260 978 249 q 979 279 971 271 q 1026 260 1007 275 q 1058 223 1044 244 q 1081 178 1071 201 q 1099 133 1090 154 l 1100 133 m 1021 178 q 1023 217 1024 196 q 1006 253 1022 239 q 990 244 993 254 q 976 226 988 233 q 943 224 958 219 q 914 238 928 228 q 888 260 900 247 q 867 286 876 274 q 740 479 811 383 q 575 644 669 575 l 585 675 q 735 890 650 785 q 925 1078 819 994 q 816 1081 872 1093 q 713 1040 760 1068 q 685 1033 699 1032 q 658 1038 671 1033 q 633 1047 644 1042 q 611 1051 621 1051 q 582 932 600 993 q 534 817 564 871 q 461 719 504 763 q 357 653 418 675 q 351 765 346 711 q 372 872 357 819 q 408 973 388 924 q 450 1071 429 1022 q 386 1072 417 1082 q 331 1046 356 1061 q 304 1038 317 1038 q 279 1044 292 1039 q 256 1055 267 1049 q 232 1064 244 1061 q 199 1038 215 1043 q 165 1035 182 1032 q 132 1047 149 1039 q 99 1060 115 1054 q 65 1065 82 1065 q 31 1049 47 1064 q 88 919 61 985 q 133 783 114 853 q 159 642 151 714 q 161 493 167 569 q 151 372 157 432 q 117 261 144 313 q 77 234 101 232 q 35 250 53 236 q 33 244 36 246 q 28 239 31 242 q 26 194 21 217 q 49 154 31 171 q 135 121 85 121 q 212 151 179 121 q 264 217 244 181 q 281 186 275 201 q 306 158 288 171 q 335 139 319 144 q 369 133 351 133 q 404 133 386 132 q 440 133 422 133 q 470 155 456 140 q 492 185 485 169 q 493 216 496 200 q 479 243 490 232 l 476 238 q 456 231 465 231 q 438 238 447 232 q 419 251 428 243 q 401 265 410 258 q 369 326 381 292 q 354 397 357 360 q 358 469 351 433 q 381 535 365 506 q 402 533 393 536 q 421 526 411 529 q 494 478 457 507 q 560 415 532 450 q 605 340 589 381 q 614 253 621 299 q 601 229 611 236 q 578 222 592 222 q 552 224 565 221 q 531 232 539 228 q 530 193 522 211 q 546 160 538 175 q 604 124 568 126 q 672 126 640 121 q 721 160 700 135 q 754 210 742 186 q 797 173 774 190 q 845 143 819 156 q 899 126 871 131 q 958 126 928 121 q 1019 178 1001 138 l 1021 178 m 593 250 q 588 322 601 288 q 554 388 574 357 q 516 408 535 399 q 474 417 497 418 q 462 370 458 397 q 463 319 465 343 q 483 276 465 296 q 518 250 500 257 l 529 261 q 546 258 540 264 q 557 244 551 251 q 576 241 565 242 q 594 250 588 240 l 593 250 m 875 1067 q 692 874 778 978 q 556 656 607 771 q 554 643 553 649 q 558 633 556 638 q 564 622 561 628 q 567 611 567 617 q 546 628 551 613 q 536 654 540 643 q 549 715 536 688 q 572 772 563 742 q 524 716 549 749 q 470 655 499 683 q 408 608 442 626 q 333 596 375 590 q 298 636 310 613 q 275 683 286 660 q 271 677 269 681 q 271 669 272 674 l 228 669 l 228 676 l 276 683 l 253 764 q 250 760 250 763 q 250 754 250 757 l 236 756 q 218 678 228 717 q 185 608 208 640 q 138 832 164 721 q 64 1047 111 943 q 106 1034 83 1043 q 150 1020 128 1025 q 194 1019 172 1015 q 233 1042 215 1022 q 278 1017 254 1019 q 326 1022 301 1015 q 374 1040 350 1029 q 422 1053 399 1050 q 378 953 400 1004 q 342 849 356 903 q 328 740 329 796 q 344 629 326 685 q 383 635 365 626 q 418 656 401 643 q 451 683 435 668 q 485 710 467 699 q 576 858 540 781 q 625 1022 611 936 q 691 1014 661 1007 q 750 1034 721 1021 q 809 1059 779 1047 q 875 1067 839 1071 m 531 690 q 531 683 531 688 q 526 676 532 679 q 510 683 515 676 q 518 693 510 690 q 531 692 526 696 l 531 690 m 528 654 q 521 641 529 644 q 504 639 513 638 q 492 640 499 639 q 479 635 485 640 l 476 639 q 498 653 483 651 q 528 654 513 656 m 635 544 q 630 508 639 524 q 611 478 621 493 q 578 469 599 469 q 546 478 558 469 q 522 512 522 489 q 521 553 521 535 q 538 576 525 567 q 564 588 550 585 q 587 587 576 590 q 605 576 597 583 q 619 560 613 569 q 633 544 626 551 l 635 544 m 525 619 q 512 610 521 613 q 493 609 503 608 q 474 612 483 610 q 456 615 464 614 q 487 626 465 629 q 524 621 508 624 l 525 619 m 722 396 q 716 369 719 383 q 697 349 713 354 q 665 355 678 342 q 647 382 653 368 q 654 411 650 396 q 676 429 658 426 q 706 421 693 432 q 722 396 718 410 m 754 235 q 731 233 743 231 q 711 247 718 236 q 715 267 706 258 q 733 276 725 275 q 747 272 740 275 q 756 261 754 269 l 754 235 m 260 729 q 258 723 261 725 q 253 718 256 721 q 246 722 250 722 l 253 732 q 260 729 257 728 m 235 700 q 249 707 238 713 q 267 699 261 701 l 235 700 m 285 635 q 252 634 269 638 q 222 642 235 631 q 256 645 238 646 q 285 644 274 644 l 285 633 l 285 635 m 297 607 q 257 607 274 606 q 217 610 240 608 q 228 619 221 618 q 246 619 236 621 q 265 616 256 618 q 282 617 275 614 q 294 616 288 618 q 297 607 300 614 m 311 535 q 306 492 318 511 q 274 464 294 472 q 226 470 249 460 q 199 504 203 481 q 202 543 192 528 q 226 569 213 558 q 276 569 249 581 q 310 533 303 557 l 311 535 m 301 403 q 301 366 311 385 q 272 344 292 347 q 242 353 257 347 q 219 375 226 358 q 224 406 213 392 q 250 424 235 421 q 280 422 267 429 q 301 403 293 414 m 292 268 q 287 247 294 257 q 268 235 279 236 q 248 241 257 235 q 236 257 239 247 q 245 278 233 271 q 267 286 257 285 q 282 281 274 283 q 290 268 290 279 l 292 268 m 251 831 l 244 779 l 249 782 q 256 779 251 783 l 251 831 z "},"L":{"ha":983,"x_min":-6,"x_max":944,"o":"m 922 0 q 935 57 944 29 q 911 111 925 85 q 892 163 897 138 q 918 213 888 188 q 919 268 925 240 q 899 319 914 296 q 865 370 883 343 q 823 418 846 397 q 772 450 800 439 q 707 454 743 461 q 663 431 682 449 q 632 390 643 413 q 626 331 618 361 q 647 275 635 300 q 622 258 636 263 q 594 247 607 254 q 560 242 579 246 q 522 239 542 239 q 488 245 504 239 q 461 268 471 251 q 438 458 440 361 q 451 648 436 554 q 499 831 467 742 q 576 999 531 919 l 511 1097 q 447 1104 478 1114 q 385 1083 415 1094 q 325 1072 354 1072 q 269 1110 297 1072 q 228 1078 249 1085 q 186 1076 207 1072 q 144 1088 165 1079 q 100 1104 122 1097 q 56 1110 78 1111 q 10 1094 33 1110 q 86 910 53 1007 q 137 712 119 814 q 151 506 154 610 q 122 299 149 401 q 113 283 118 292 q 103 268 108 275 q 90 258 97 261 q 71 257 82 254 q 58 265 60 260 q 58 276 57 269 q 58 288 58 282 q 47 299 57 294 q 19 274 28 292 q 1 242 10 257 q 6 169 -6 203 q 38 107 17 136 q 87 54 58 78 q 143 11 115 31 q 242 11 196 -7 q 325 65 289 29 q 379 33 353 60 q 476 6 425 11 q 578 6 526 1 q 679 23 629 11 q 774 47 729 35 q 852 38 817 53 q 921 0 888 22 l 922 0 m 821 124 q 730 153 778 150 q 631 149 682 156 q 531 132 581 142 q 433 123 481 122 q 341 142 385 124 q 261 208 297 160 q 217 157 244 182 q 160 124 190 132 q 106 119 133 115 q 57 136 79 124 q 22 187 31 158 q 22 246 14 215 q 29 258 26 251 q 42 261 32 264 q 67 240 53 246 q 97 242 82 233 q 147 329 132 279 q 166 435 163 379 q 167 547 169 490 q 164 656 164 604 q 122 876 146 768 q 42 1079 97 983 q 78 1086 57 1090 q 119 1079 100 1082 q 190 1057 151 1063 q 260 1081 229 1051 q 305 1058 282 1069 q 351 1054 328 1047 q 410 1077 382 1064 q 474 1082 438 1090 q 453 1021 465 1051 q 429 959 442 990 q 406 895 417 928 q 390 828 396 863 q 371 691 381 763 q 359 547 361 619 q 368 406 357 475 q 413 278 379 338 q 452 238 428 250 q 504 222 476 225 q 561 224 532 219 q 615 233 590 228 q 645 250 631 242 q 672 274 660 258 q 644 331 650 301 q 654 393 638 361 q 688 424 668 411 q 733 435 708 438 q 776 419 757 432 q 806 386 794 407 q 815 319 821 354 q 786 257 808 283 q 776 248 779 254 q 765 238 772 242 q 783 212 771 224 q 806 187 796 200 q 822 158 817 174 q 821 122 828 143 l 821 124 m 442 1056 q 394 1049 418 1057 q 348 1034 371 1040 q 303 1030 325 1028 q 260 1054 281 1032 q 216 1030 239 1032 q 169 1034 193 1028 q 121 1049 144 1040 q 75 1061 97 1058 q 186 642 157 863 q 215 700 206 668 q 228 766 224 732 q 239 834 233 800 q 257 899 244 868 q 265 876 265 890 q 268 853 265 864 q 258 849 263 853 q 256 836 253 846 l 264 836 q 263 844 264 839 q 267 851 263 849 q 290 801 281 828 q 306 747 299 774 q 320 693 313 719 q 340 644 328 667 q 376 856 354 753 q 442 1056 397 960 m 271 818 q 265 822 269 824 q 257 822 260 821 q 258 813 254 817 q 268 813 261 810 q 271 817 272 813 l 271 818 m 275 776 q 256 779 268 781 q 246 768 244 778 q 252 765 247 764 q 260 765 257 765 q 272 766 265 764 q 276 776 279 768 l 275 776 m 279 735 l 279 743 q 259 747 272 746 q 247 735 246 747 l 279 735 m 288 703 q 288 708 288 706 q 285 713 288 711 q 271 712 278 710 q 258 715 264 714 q 247 716 251 717 q 243 706 243 715 l 288 703 m 299 672 q 265 676 286 678 q 225 676 244 675 l 225 665 q 263 663 243 667 q 297 671 282 660 l 299 672 m 324 633 l 324 638 q 262 640 296 644 q 204 633 228 636 q 263 631 229 631 q 324 633 296 631 m 324 564 q 307 594 321 583 q 276 609 293 606 q 242 606 258 613 q 215 583 225 600 q 210 540 204 563 q 235 504 217 518 q 263 496 246 494 q 293 500 279 497 q 317 526 313 508 q 322 564 322 544 l 324 564 m 296 404 q 283 424 294 417 q 260 433 271 432 q 235 419 243 433 q 222 393 226 404 q 240 369 226 378 q 269 360 254 360 q 290 377 285 365 q 294 403 294 389 l 296 404 m 275 274 q 246 283 268 286 q 232 257 229 279 q 244 244 235 246 q 265 242 254 242 q 275 274 278 251 z "},"M":{"ha":1336,"x_min":-3,"x_max":1275,"o":"m 1263 990 q 1226 1045 1247 1018 q 1186 1097 1206 1072 q 1115 1101 1150 1114 q 1047 1075 1081 1088 q 998 1077 1019 1064 q 958 1111 976 1090 q 906 1074 933 1074 q 850 1085 879 1074 q 790 1106 821 1097 q 725 1097 758 1115 q 712 860 738 975 q 633 644 686 746 l 626 644 q 573 807 585 719 q 561 988 561 894 q 536 1017 550 1004 q 507 1043 522 1031 q 476 1069 492 1056 q 449 1099 461 1082 q 329 1069 382 1103 q 296 1060 313 1058 q 264 1067 279 1063 q 233 1075 249 1072 q 201 1069 217 1078 q 154 1074 176 1065 q 109 1092 132 1083 q 63 1103 86 1100 q 13 1090 39 1106 q 88 875 61 986 q 125 649 114 764 q 127 451 133 553 q 86 261 121 349 q 72 253 76 250 q 65 263 68 256 q 58 276 63 269 q 43 278 53 282 q 10 238 24 261 q -1 185 -3 214 q 49 86 10 132 q 136 17 88 40 q 197 19 168 10 q 247 49 225 29 l 299 22 q 374 24 338 14 q 432 72 410 35 q 455 58 446 68 q 471 37 464 49 q 485 15 478 25 q 506 0 493 4 q 544 15 526 4 q 578 38 563 25 q 613 37 596 44 q 649 19 631 29 q 685 3 667 10 q 725 8 704 -3 q 718 39 722 24 q 711 69 714 54 q 708 99 708 85 q 713 128 707 114 q 746 83 726 104 q 788 43 765 61 q 838 14 811 25 q 893 1 864 3 q 955 16 929 -1 q 1006 57 981 33 q 1081 15 1042 33 q 1165 7 1119 -4 q 1218 33 1192 18 q 1260 75 1244 47 q 1272 128 1275 103 q 1258 175 1269 153 q 1230 218 1247 197 q 1199 260 1213 239 q 1179 261 1189 268 q 1167 246 1169 254 q 1131 397 1139 318 q 1131 554 1124 475 q 1156 710 1138 633 q 1199 857 1175 788 q 1231 926 1211 892 q 1263 990 1250 960 m 1185 167 q 1151 133 1171 144 q 1108 119 1132 122 q 1010 147 1050 115 q 995 164 1001 154 q 984 183 989 174 q 973 201 979 193 q 957 211 967 208 q 913 156 938 179 q 851 121 888 132 q 790 123 822 118 q 732 147 757 128 q 712 191 719 167 q 717 239 704 215 q 749 226 729 228 q 785 233 769 224 q 840 344 824 283 q 858 471 856 406 q 853 601 860 536 q 840 728 846 667 q 835 774 838 751 q 826 818 833 796 q 810 785 815 803 q 800 748 804 767 q 792 710 796 729 q 783 672 789 690 q 744 565 768 617 q 696 460 719 513 q 654 354 672 408 q 633 240 636 300 q 628 184 626 213 q 633 125 631 156 q 586 144 606 128 q 547 178 567 161 q 526 162 536 171 q 505 144 515 153 q 483 131 494 136 q 457 128 471 126 q 460 259 469 197 q 431 378 451 321 q 382 492 410 436 q 331 606 354 549 q 294 725 308 664 q 286 856 281 786 q 271 834 275 850 q 265 803 267 818 q 251 666 258 736 q 242 526 243 596 q 250 388 240 456 q 286 257 260 319 q 313 237 297 243 q 344 239 328 231 l 356 249 q 369 233 365 243 q 372 212 372 224 q 368 188 371 200 q 363 168 365 176 q 319 132 349 139 q 261 132 289 125 q 231 152 247 142 q 213 182 215 163 l 200 193 q 187 174 193 185 q 173 152 181 163 q 156 133 165 142 q 133 124 147 125 q 92 124 114 119 q 54 140 71 128 q 28 187 29 158 q 32 242 26 215 q 38 247 35 244 q 40 251 42 249 q 52 246 46 251 q 65 236 58 240 q 80 231 72 232 q 96 239 88 231 l 114 260 q 151 480 146 363 q 140 708 156 597 l 147 717 q 155 667 149 690 q 167 621 161 644 q 174 625 171 621 q 178 633 178 629 l 193 904 q 200 838 199 872 q 202 767 201 803 q 206 697 203 732 q 219 629 210 661 q 226 633 224 629 q 229 640 229 638 q 246 797 232 722 q 294 939 260 871 l 301 939 q 315 772 303 853 q 350 618 326 690 q 365 622 360 618 q 376 618 369 626 q 434 617 404 621 q 490 625 464 614 q 432 638 465 640 q 369 633 399 635 q 378 769 379 696 q 375 911 378 843 q 400 836 389 875 q 425 760 411 797 q 459 689 439 724 q 513 626 479 654 l 521 633 q 454 836 475 729 q 422 1053 433 943 q 394 1057 408 1058 q 367 1050 381 1056 q 340 1038 353 1044 q 313 1028 326 1032 q 278 1025 293 1019 q 249 1038 263 1031 q 220 1049 235 1046 q 189 1036 206 1051 q 153 1037 169 1031 q 122 1050 138 1043 q 92 1061 107 1057 q 60 1056 76 1065 q 115 896 92 976 q 147 728 138 815 l 140 728 q 125 817 136 774 q 100 904 114 861 q 70 989 86 947 q 42 1074 54 1031 q 90 1075 67 1082 q 137 1060 114 1068 q 182 1051 160 1053 q 228 1067 204 1049 q 278 1040 253 1039 q 328 1051 303 1040 q 381 1072 354 1061 q 438 1079 408 1083 q 486 806 450 936 q 589 557 522 676 l 596 551 q 712 767 674 649 q 750 1017 750 886 l 751 1082 q 806 1081 781 1092 q 856 1060 832 1071 q 903 1048 879 1049 q 950 1079 926 1047 q 974 1070 965 1083 q 994 1053 982 1057 q 1042 1049 1021 1043 q 1084 1065 1064 1056 q 1125 1082 1104 1075 q 1171 1081 1146 1089 q 1096 888 1126 990 q 1052 680 1065 786 q 1047 467 1039 574 q 1088 260 1054 360 q 1122 227 1101 240 q 1168 225 1143 214 q 1177 231 1172 229 q 1185 239 1182 232 q 1192 201 1192 224 q 1183 167 1192 181 l 1185 167 m 832 508 q 829 440 831 474 q 822 373 828 406 q 804 310 817 340 q 768 253 792 281 q 747 255 757 253 q 735 268 738 257 q 773 392 743 335 q 832 508 803 450 m 432 178 q 354 305 379 233 q 338 456 329 376 l 343 499 q 416 347 389 428 q 432 178 443 265 m 1125 1063 q 1084 1047 1106 1056 q 1040 1033 1063 1038 q 996 1031 1018 1028 q 956 1053 974 1035 q 909 1032 932 1033 q 863 1038 886 1031 q 817 1053 840 1044 q 768 1063 793 1063 q 753 917 765 988 q 725 776 740 847 q 697 703 713 740 q 672 633 682 667 q 716 703 700 665 q 744 779 732 742 q 745 712 744 746 q 740 640 746 678 l 779 747 q 792 791 788 768 q 800 837 796 814 q 809 882 804 860 q 821 925 814 904 q 860 785 851 860 q 875 635 869 711 l 881 633 q 916 731 900 682 q 940 833 932 781 l 944 833 l 949 806 l 961 806 l 961 811 q 953 828 949 818 q 964 844 958 838 q 975 791 971 819 q 985 735 979 763 q 998 683 990 708 q 1019 640 1006 658 q 1060 858 1028 754 q 1125 1063 1092 963 m 967 774 q 964 779 963 778 q 951 778 957 781 q 947 768 944 776 q 958 768 953 769 q 967 774 964 767 m 975 739 q 973 749 976 747 q 964 751 969 751 q 954 750 960 751 q 944 750 949 749 q 940 735 938 743 q 959 735 950 736 q 975 740 968 735 l 975 739 m 979 711 l 979 721 q 956 723 969 724 q 933 719 943 722 q 940 707 935 708 q 951 707 944 706 q 965 710 958 708 q 979 710 972 713 l 979 711 m 986 682 l 986 690 q 968 688 978 686 q 949 692 958 690 q 933 692 940 693 q 922 682 926 692 l 986 682 m 993 653 l 993 660 l 918 664 l 918 653 l 993 653 m 986 626 l 986 633 q 966 636 978 635 q 942 638 954 638 q 922 636 931 639 q 910 626 913 633 l 986 626 m 1013 506 q 1019 551 1028 526 q 999 592 1010 576 q 970 605 986 603 q 936 607 954 607 q 905 576 911 600 q 897 533 899 553 q 908 503 894 513 q 933 482 921 493 q 977 480 956 475 q 1013 504 999 485 l 1013 506 m 733 708 l 726 708 l 726 696 q 733 701 729 699 q 735 708 736 703 l 733 708 m 732 674 q 730 681 733 678 q 724 688 726 685 l 717 671 q 724 670 719 671 q 732 675 729 669 l 732 674 m 728 649 q 723 656 729 657 q 714 660 717 654 q 703 653 707 660 q 706 640 699 647 q 719 641 713 640 q 728 649 725 642 m 1003 400 q 954 436 990 433 q 922 417 938 433 q 917 381 907 401 q 938 355 921 361 q 972 347 954 349 q 997 368 992 351 q 1003 400 1001 385 m 728 614 l 728 626 q 703 631 719 629 q 688 618 688 633 q 708 613 699 619 q 728 614 717 606 m 988 265 q 970 289 988 285 q 938 290 953 293 q 926 278 931 285 q 924 260 921 271 q 938 240 925 246 q 965 238 950 235 q 980 249 972 242 q 988 265 988 256 m 701 589 q 689 603 696 597 q 671 608 682 610 q 642 571 651 593 q 631 524 632 549 q 632 497 628 511 q 653 486 636 483 q 689 532 678 506 q 700 589 700 558 l 701 589 m 394 803 l 394 814 q 392 822 396 819 q 382 822 388 824 q 384 808 383 815 q 394 803 385 800 m 403 779 q 389 785 399 786 q 382 774 379 783 l 394 774 q 401 774 397 771 q 403 779 404 776 m 425 742 q 419 752 424 750 q 408 753 414 754 q 394 748 401 751 q 383 742 388 744 q 404 739 392 739 q 426 742 417 739 l 425 742 m 442 717 l 388 719 q 390 710 388 713 q 398 706 393 707 q 408 705 403 706 q 415 701 413 704 q 422 706 418 706 q 432 706 428 706 q 440 708 438 706 q 442 718 443 710 l 442 717 m 451 688 q 417 697 436 696 q 382 696 399 699 l 388 683 q 406 685 397 686 q 422 681 414 683 q 438 679 431 679 q 453 686 446 679 l 451 688 m 469 653 l 469 660 l 386 664 l 378 656 q 424 648 399 649 q 469 653 449 647 m 511 563 q 476 593 500 585 q 429 594 451 601 q 393 535 390 578 q 403 506 393 518 q 429 488 414 494 q 460 479 443 474 q 493 490 478 485 q 512 522 501 503 q 513 561 522 540 l 511 563 m 590 399 q 571 424 586 415 q 538 432 556 432 q 513 413 519 429 q 500 385 507 397 q 520 355 510 369 q 553 347 531 340 q 582 365 572 349 q 590 399 592 381 m 203 685 q 200 694 203 693 l 192 685 l 203 685 m 206 665 q 200 674 204 672 q 193 672 196 675 q 188 665 190 669 q 189 656 186 660 l 200 654 q 206 658 204 653 q 206 665 207 663 m 211 619 l 211 625 q 200 633 207 632 q 186 633 193 633 l 188 619 l 211 619 m 572 256 q 559 269 569 267 q 538 269 549 271 q 525 259 528 267 q 524 240 522 251 q 538 228 531 233 q 554 224 544 222 q 568 236 563 228 q 571 256 574 244 l 572 256 m 221 579 q 203 597 215 594 q 183 582 192 600 q 179 544 176 565 q 193 507 182 522 q 204 508 197 510 q 210 513 211 507 q 221 579 235 540 m 217 408 q 214 419 217 413 q 208 431 211 426 q 200 436 204 436 q 190 428 196 436 q 186 400 188 417 q 194 372 185 383 q 206 372 203 368 q 211 382 210 375 q 213 397 213 389 q 217 410 214 406 l 217 408 m 217 268 q 212 284 214 275 q 199 290 210 293 q 190 267 189 282 q 193 242 190 253 q 206 240 201 238 q 212 247 210 242 q 215 258 214 251 q 217 268 215 264 m 964 849 q 953 851 954 844 q 953 867 951 857 q 957 888 954 876 q 960 906 960 899 l 964 849 z "},"N":{"ha":1147,"x_min":-6,"x_max":1093,"o":"m 1092 968 l 1014 1092 q 967 1088 988 1094 q 926 1069 946 1082 q 849 1093 883 1063 q 804 1072 825 1069 q 763 1083 783 1074 q 720 1099 742 1093 q 675 1088 699 1104 q 758 824 735 963 q 779 535 782 686 l 774 524 q 720 633 747 578 q 669 744 693 688 q 628 858 646 800 q 601 979 610 917 l 490 1096 q 433 1096 461 1103 q 382 1072 404 1089 q 335 1078 358 1067 q 294 1106 311 1090 q 226 1069 268 1074 q 183 1088 206 1078 q 136 1105 160 1099 q 89 1111 113 1111 q 42 1099 65 1111 q 134 765 104 939 q 149 403 164 592 q 138 363 142 383 q 130 322 135 342 q 117 283 125 301 q 94 249 110 264 q 78 249 85 244 q 65 259 71 253 q 52 272 58 265 q 38 278 46 278 q 3 225 13 257 q 4 165 -6 193 q 30 108 14 136 q 69 58 46 81 q 120 20 92 35 q 182 4 149 6 q 224 20 206 7 q 258 50 243 33 q 286 36 272 44 q 315 20 300 28 q 348 8 331 13 q 385 8 365 4 q 427 30 408 18 q 461 65 446 42 q 464 130 474 99 q 434 190 454 161 q 388 247 414 219 q 343 301 363 275 q 334 490 328 390 q 368 674 340 589 q 476 472 421 572 q 589 271 531 371 q 617 199 607 238 q 639 123 626 160 q 674 54 651 86 q 743 1 697 22 q 797 26 774 6 q 840 68 819 47 q 911 29 875 49 q 983 7 947 10 q 960 254 965 128 q 965 505 954 381 q 1007 747 976 629 q 1093 968 1038 864 l 1092 968 m 1000 1072 q 923 851 950 968 q 885 613 896 735 q 879 367 875 490 q 897 124 883 243 q 830 136 861 118 q 778 186 799 154 q 763 183 768 188 q 756 172 758 179 q 750 159 753 165 q 740 150 747 153 q 660 117 707 117 q 587 318 635 222 q 485 508 539 414 q 379 696 431 601 q 296 893 328 790 l 281 874 q 260 717 269 797 q 250 556 251 636 q 259 398 249 475 q 297 251 269 321 q 347 229 315 224 q 375 246 363 244 q 392 213 383 229 q 390 176 400 196 q 367 142 385 156 q 329 119 349 128 q 291 119 310 113 q 254 136 272 126 q 238 150 243 142 q 229 167 233 158 q 220 185 225 176 q 206 201 215 194 q 190 178 197 190 q 173 156 182 167 q 153 136 164 144 q 126 124 142 128 q 80 123 103 118 q 39 143 57 128 q 23 193 22 165 q 36 246 24 221 q 54 244 44 256 q 74 231 64 233 q 117 245 103 231 q 138 281 131 260 q 149 324 146 301 q 161 367 153 347 q 159 738 181 556 q 71 1089 138 921 q 130 1088 101 1099 q 185 1067 158 1078 q 240 1053 213 1056 q 296 1078 267 1051 q 344 1056 315 1063 q 397 1061 374 1049 q 434 1076 415 1071 q 474 1083 453 1082 q 538 904 499 992 q 622 731 578 817 q 709 560 665 646 q 786 388 753 475 q 797 566 794 476 q 790 743 799 656 q 761 915 782 831 q 703 1078 740 1000 q 736 1073 719 1079 q 770 1060 753 1067 q 805 1052 788 1054 q 842 1061 822 1050 q 865 1060 853 1063 q 890 1054 878 1057 q 915 1051 903 1051 q 942 1060 929 1051 q 971 1070 956 1064 q 1001 1074 986 1076 l 1000 1072 m 956 1042 q 917 1031 938 1033 q 878 1026 897 1029 q 844 1042 863 1042 q 810 1038 828 1042 q 774 1034 792 1035 q 739 1047 756 1033 q 794 850 775 953 q 817 646 814 747 q 822 681 819 663 q 832 714 824 699 q 838 710 836 714 q 843 704 840 707 l 851 713 l 858 706 q 861 666 856 685 q 874 635 867 647 q 899 842 874 740 q 957 1040 924 943 l 956 1042 m 856 647 q 853 658 858 656 q 844 663 847 660 q 833 658 840 657 q 829 649 826 660 l 856 647 m 864 583 q 856 604 861 592 q 836 610 851 617 q 831 581 835 596 q 826 553 826 567 q 829 528 825 540 q 847 508 833 517 q 863 544 861 521 q 864 583 865 567 m 860 399 q 853 421 857 408 q 833 431 849 433 l 826 369 q 831 350 829 361 q 849 342 833 339 q 860 369 864 353 q 860 400 857 385 l 860 399 m 642 640 q 542 844 593 743 q 457 1053 490 944 q 424 1048 439 1054 q 392 1035 408 1042 q 361 1027 376 1029 q 328 1036 346 1025 q 310 1051 318 1040 q 292 1061 301 1061 q 245 1037 268 1036 q 199 1047 222 1038 q 153 1065 176 1056 q 103 1071 129 1075 q 153 866 128 971 q 186 654 178 761 q 201 765 197 708 q 211 878 204 821 q 219 798 213 839 q 231 717 225 757 q 224 710 226 714 q 215 708 221 706 l 217 701 q 230 694 226 701 q 233 678 233 688 q 234 659 233 668 q 242 646 235 650 q 247 728 244 688 q 256 810 250 769 q 271 888 261 850 q 299 963 281 926 q 368 799 331 879 q 442 636 406 718 l 454 638 q 452 712 456 678 q 447 786 449 746 q 441 817 446 803 q 431 845 436 832 q 422 872 426 858 q 419 899 418 885 l 465 807 q 458 797 463 800 q 464 788 454 793 q 472 792 468 788 l 492 774 l 468 767 q 472 758 468 760 q 486 758 479 760 q 499 763 493 757 q 507 753 501 757 q 514 743 513 750 q 496 739 506 738 q 476 739 486 740 q 476 732 476 736 q 479 728 476 729 q 502 731 489 733 q 517 743 515 728 q 529 726 519 733 q 542 710 539 719 l 479 706 l 479 697 q 498 699 488 701 q 517 696 508 697 q 534 697 526 694 q 544 711 542 699 q 590 665 565 686 q 642 640 614 643 m 561 664 l 561 672 l 486 678 l 486 664 l 561 664 m 585 638 q 539 644 561 640 q 492 646 517 649 l 492 635 l 585 638 m 644 571 q 625 603 642 589 q 589 615 608 617 q 557 606 571 615 q 532 585 543 596 q 530 542 525 564 q 554 507 535 521 q 583 497 569 496 q 613 501 596 497 q 640 528 635 507 q 644 569 646 549 l 644 571 m 853 251 q 847 270 847 258 q 833 279 846 282 q 824 265 824 272 q 828 249 825 258 q 841 244 833 243 q 851 251 849 244 l 853 251 m 707 390 q 687 422 704 411 q 650 431 669 433 q 631 406 638 419 q 628 376 625 393 q 678 343 643 343 q 702 361 694 346 q 708 392 710 376 l 707 390 m 740 265 q 731 275 738 272 q 717 276 725 278 q 705 270 710 275 q 700 257 700 265 q 725 233 707 235 q 740 265 743 242 m 224 672 l 224 678 q 213 683 221 683 l 211 672 l 224 672 m 228 646 l 211 646 l 217 635 q 225 638 219 638 q 228 646 231 638 m 235 571 q 231 598 238 585 q 207 608 224 611 q 194 580 196 597 q 193 544 193 563 q 203 525 196 536 q 224 521 211 514 q 235 571 238 540 m 231 415 q 224 433 228 424 q 208 442 219 442 q 196 422 193 438 q 197 393 199 406 q 208 383 203 389 q 221 381 214 378 q 231 415 235 396 m 224 258 q 223 274 224 265 q 211 283 222 282 q 202 269 206 276 q 206 253 199 261 q 224 258 217 244 m 853 724 q 844 724 849 724 q 836 719 839 725 l 847 906 l 853 761 l 842 756 q 843 745 840 749 q 849 739 846 742 q 854 733 853 736 q 853 722 856 729 l 853 724 z "},"O":{"ha":903,"x_min":0,"x_max":861,"o":"m 772 831 q 835 660 811 751 q 860 474 858 568 q 835 292 861 381 q 750 132 810 203 q 585 17 682 50 q 382 8 489 -17 q 224 85 292 29 q 108 216 156 140 q 35 379 61 292 q 0 551 8 467 q 13 713 1 632 q 53 864 24 793 q 133 992 82 935 q 263 1085 183 1050 q 342 1108 300 1101 q 426 1110 385 1114 q 507 1091 468 1106 q 578 1051 546 1076 q 688 950 636 1007 q 772 831 740 893 m 731 358 q 761 519 756 438 q 753 681 767 601 q 708 834 739 760 q 629 972 676 908 q 474 1085 565 1057 q 372 1097 422 1100 q 276 1075 322 1093 q 191 1025 231 1057 q 119 951 151 993 q 53 797 79 882 q 22 624 28 713 q 33 450 17 536 q 92 292 49 364 q 253 147 151 192 q 472 121 354 101 q 559 149 518 128 q 633 203 600 171 q 692 274 667 235 q 731 358 717 314 m 619 806 q 618 794 622 796 q 608 790 614 793 l 604 790 l 604 806 l 619 806 m 631 772 q 627 762 633 764 q 615 761 621 760 l 604 763 q 606 772 603 769 q 613 774 608 774 q 622 772 617 774 q 631 772 626 771 m 649 732 q 631 728 640 726 q 611 729 621 729 q 615 739 611 736 q 626 741 619 742 q 638 739 632 740 q 649 736 644 738 l 649 733 l 649 732 m 604 693 l 604 706 l 664 701 l 664 693 l 604 693 m 601 665 l 601 675 q 639 677 619 674 q 674 669 658 681 l 601 665 m 701 640 q 646 638 675 644 q 589 639 617 632 l 590 646 q 647 649 618 653 q 703 639 676 646 l 701 640 m 724 651 q 651 757 681 700 q 592 871 622 814 l 585 863 q 591 802 589 833 q 591 740 593 771 q 581 681 589 710 q 556 631 572 653 q 542 796 551 714 q 490 947 532 878 q 439 986 467 971 q 378 994 411 1001 q 321 972 346 994 q 281 924 296 950 q 256 856 264 892 q 243 782 247 819 q 238 706 239 744 q 232 633 236 668 q 205 685 214 658 q 192 742 196 713 q 188 803 188 772 q 189 867 188 835 q 155 809 169 839 q 125 749 140 779 q 92 690 110 718 q 47 636 74 661 q 59 746 49 692 q 90 850 69 800 q 144 944 111 900 q 226 1022 178 988 q 297 1058 258 1044 q 374 1072 335 1071 q 453 1064 414 1074 q 528 1033 493 1054 q 608 960 575 1004 q 668 871 642 915 q 706 770 689 821 q 729 664 722 719 l 724 651 m 700 583 q 697 544 706 561 q 668 521 688 528 q 631 520 650 513 q 603 547 613 528 q 598 580 600 561 q 611 608 596 599 q 635 618 621 615 q 663 619 650 621 q 687 608 676 617 q 701 583 697 599 l 700 583 m 674 422 q 669 394 669 408 q 656 372 669 381 q 624 374 639 363 q 601 400 608 385 q 606 428 599 415 q 628 444 613 442 q 656 443 643 447 q 674 424 668 439 l 674 422 m 526 701 q 534 577 528 643 q 537 448 540 511 q 513 328 533 385 q 442 233 493 272 q 393 228 417 231 q 349 239 369 225 q 286 326 304 276 q 263 431 268 376 q 260 544 258 486 q 256 654 261 601 q 262 744 260 697 q 273 835 264 792 q 304 913 282 878 q 369 968 326 947 q 464 931 428 971 q 492 878 482 906 q 508 821 501 850 q 518 761 514 792 q 526 701 522 731 m 169 751 q 165 744 169 749 q 154 747 160 742 q 156 756 149 753 q 163 756 158 756 q 169 753 167 757 l 169 751 m 136 722 q 151 730 139 733 q 174 729 163 726 q 179 724 176 726 q 181 718 182 722 l 136 722 m 613 271 q 613 250 614 260 q 600 238 611 240 q 572 251 579 235 q 574 269 572 260 q 586 281 575 279 q 613 271 601 283 m 121 689 l 121 700 q 153 697 135 693 q 183 689 171 700 l 121 689 m 111 656 l 108 668 q 150 667 131 669 q 190 661 169 664 l 190 653 l 111 656 m 183 624 q 156 628 171 629 q 128 624 142 626 q 103 624 114 622 q 89 642 92 626 q 183 632 142 644 l 183 624 m 203 575 q 161 503 214 518 q 124 509 140 496 q 100 539 107 522 q 94 563 93 551 q 103 585 96 575 q 119 601 110 594 q 139 613 129 608 q 175 604 160 615 q 201 576 190 593 l 203 575 m 200 411 q 198 381 201 396 q 178 360 194 367 q 144 366 157 356 q 128 393 131 376 q 134 424 128 408 q 158 440 140 440 q 184 432 172 440 q 200 411 196 424 m 236 251 q 232 239 232 247 q 221 229 232 231 q 201 232 210 226 q 193 249 192 238 q 210 269 196 264 q 226 265 218 268 q 236 251 233 261 m 501 778 q 495 796 497 785 q 490 816 493 807 q 481 831 488 825 q 461 832 475 836 q 418 817 438 831 q 389 783 399 803 q 364 662 371 725 q 356 534 357 599 q 357 404 354 469 q 363 276 360 339 l 378 250 q 424 247 401 243 q 465 267 447 251 q 513 382 500 318 q 524 514 525 446 q 515 650 524 582 q 501 778 507 718 z "},"P":{"ha":1004,"x_min":-7,"x_max":957,"o":"m 919 869 q 826 986 875 926 q 711 1081 778 1046 q 617 1108 667 1103 q 518 1108 568 1114 q 419 1088 468 1101 q 328 1060 371 1074 q 308 1065 317 1060 q 292 1078 300 1071 q 275 1092 283 1086 q 257 1101 267 1099 q 217 1065 239 1068 q 172 1069 196 1061 q 124 1086 149 1076 q 75 1092 99 1096 q 34 1090 56 1094 q 11 1065 13 1085 q 127 772 92 928 q 143 440 163 615 q 138 384 140 413 q 131 328 136 356 q 116 275 126 300 q 85 231 106 250 q 58 238 71 233 q 38 257 44 242 q 20 248 25 260 q 8 229 15 236 q 1 176 -7 204 q 21 124 10 147 q 59 78 39 101 q 101 38 79 56 q 149 9 124 19 q 207 1 175 -1 q 274 19 244 -1 q 328 68 303 40 q 394 34 363 54 q 463 7 425 14 q 542 29 506 7 q 594 88 579 51 q 597 149 604 121 q 572 199 589 176 q 529 242 554 222 q 482 279 504 261 q 476 327 469 301 q 482 378 482 353 q 503 410 489 393 q 536 433 517 428 q 636 428 586 428 q 734 439 686 428 q 824 474 782 450 q 901 538 867 497 q 942 613 928 571 q 956 701 956 656 q 947 790 957 746 q 919 871 938 835 l 919 869 m 856 706 q 831 650 847 678 q 794 599 815 622 q 746 558 772 575 q 690 536 719 542 q 580 533 628 531 q 474 547 532 536 q 448 542 461 544 q 422 536 435 540 q 400 524 410 532 q 385 500 390 515 q 376 375 365 439 q 410 258 388 311 q 440 233 421 239 q 478 235 458 228 q 487 244 483 239 q 497 247 490 250 q 512 225 510 238 q 511 200 514 213 q 502 175 508 188 q 490 153 496 163 q 451 124 474 133 q 407 114 428 114 q 331 142 368 122 q 275 201 293 161 q 249 181 258 199 q 226 151 239 163 q 169 119 200 129 q 101 115 138 110 q 53 138 78 122 q 22 183 29 154 l 26 224 q 47 219 36 222 q 68 213 57 215 q 90 214 79 211 q 108 228 100 217 q 134 276 126 250 q 146 328 142 301 q 153 384 150 356 q 163 439 156 413 q 143 765 171 606 q 38 1064 115 925 q 74 1076 56 1075 q 112 1071 93 1076 q 149 1058 131 1065 q 185 1044 168 1050 q 226 1052 206 1046 q 258 1075 246 1058 q 328 1047 293 1047 q 398 1059 363 1047 q 469 1085 433 1071 q 543 1099 506 1099 q 699 1068 626 1097 q 818 964 771 1039 q 864 841 853 911 q 856 707 875 771 l 856 706 m 754 843 q 744 840 750 840 q 740 832 738 839 l 749 832 q 753 837 753 833 q 754 843 754 840 m 765 797 l 765 806 q 752 805 760 804 q 746 797 744 806 l 765 797 m 768 768 q 760 770 765 769 q 749 770 754 771 q 742 767 744 769 q 742 760 739 765 l 754 760 q 763 760 757 760 q 768 768 769 761 m 765 731 l 765 738 q 756 742 761 743 q 744 742 750 740 q 733 738 742 735 q 726 731 724 740 l 765 731 m 765 699 q 738 706 753 701 q 715 700 722 710 q 741 693 728 699 q 765 699 754 688 m 754 658 q 750 665 750 660 q 731 665 742 663 q 711 668 721 667 q 694 669 701 669 q 682 658 686 668 l 754 658 m 735 624 l 735 629 l 658 632 l 653 621 q 694 617 675 618 q 735 625 714 615 l 735 624 m 810 931 q 685 1049 767 1014 q 507 1074 603 1085 q 444 1057 475 1071 q 383 1033 414 1043 q 323 1024 353 1024 q 264 1051 293 1025 q 218 1026 243 1028 q 167 1031 193 1024 q 115 1047 140 1038 q 65 1056 89 1056 q 176 638 172 867 l 188 625 q 215 688 206 656 q 232 756 225 721 q 245 825 239 790 q 260 893 251 860 q 281 801 265 844 q 314 713 296 757 q 390 624 338 654 q 506 592 443 593 q 590 608 550 592 q 660 657 629 624 q 700 717 683 683 q 725 785 717 750 q 733 858 733 821 q 721 929 732 894 q 778 820 761 881 q 783 690 796 760 q 770 657 782 672 q 765 622 758 642 l 786 642 q 824 705 811 668 q 840 782 838 742 q 834 861 842 822 q 811 931 826 900 l 810 931 m 267 799 q 260 803 264 803 q 254 803 257 803 l 254 796 q 260 796 257 796 q 265 799 263 796 l 267 799 m 268 761 l 268 769 l 253 769 l 253 761 l 268 761 m 283 732 q 264 735 276 735 q 249 726 251 736 q 267 723 258 726 q 283 731 276 719 l 283 732 m 303 696 q 271 704 292 704 q 238 696 250 704 q 269 692 253 692 q 303 697 288 692 l 303 696 m 317 671 q 293 671 306 669 q 268 672 281 672 q 247 670 257 672 q 231 660 236 668 q 277 658 253 661 q 317 671 301 656 m 340 636 q 314 644 328 643 q 287 643 300 644 q 259 640 274 642 q 231 642 244 639 l 231 633 q 285 633 258 635 q 340 638 311 632 l 340 636 m 317 578 q 291 603 307 594 q 257 613 275 613 q 237 603 246 610 q 222 586 228 597 q 217 540 211 565 q 247 503 224 514 q 276 499 260 496 q 304 514 293 501 q 319 544 317 526 q 315 578 322 561 l 317 578 m 311 404 q 291 430 308 424 q 258 431 274 436 q 236 392 239 415 q 251 364 236 372 q 282 356 267 356 q 306 374 297 360 q 313 406 314 389 l 311 404 m 297 264 q 288 281 297 275 q 268 286 278 286 q 250 275 257 285 q 247 253 243 265 q 254 242 249 244 q 267 240 260 240 q 280 240 274 240 q 290 233 286 239 q 285 242 285 238 q 289 249 286 246 q 295 257 292 253 q 297 265 299 261 l 297 264 m 636 724 q 606 674 624 700 q 561 638 589 649 q 489 630 528 628 q 422 653 450 632 q 381 701 396 674 q 359 758 365 728 q 353 819 353 788 q 361 883 354 851 q 413 953 376 924 q 493 989 449 983 q 556 978 526 986 q 610 943 586 969 q 638 894 628 922 q 651 838 649 867 q 651 778 654 808 q 638 722 647 749 l 636 724 m 615 893 q 561 949 599 929 q 481 965 524 968 q 443 943 463 951 q 408 914 424 935 q 375 811 375 869 q 400 707 375 754 q 443 667 415 681 q 499 646 471 653 q 604 693 565 646 q 623 739 617 714 q 631 791 629 764 q 628 844 632 818 q 614 892 624 869 l 615 893 m 614 826 q 611 753 615 789 q 583 690 607 718 q 535 663 564 668 q 478 665 506 658 q 461 694 465 678 q 458 728 457 710 q 462 764 458 746 q 468 797 465 782 q 502 840 476 825 q 554 863 528 856 q 574 859 563 860 q 594 856 585 858 q 610 848 604 854 q 614 828 617 842 l 614 826 z "},"Q":{"ha":969,"x_min":-3,"x_max":926,"o":"m 914 106 q 921 169 926 140 q 901 226 915 199 q 869 278 888 253 q 839 331 851 303 q 865 436 858 381 q 868 548 872 492 q 851 659 864 604 q 821 763 839 714 q 731 913 789 846 q 599 1036 672 981 q 524 1079 567 1061 q 436 1105 482 1097 q 344 1108 390 1113 q 256 1082 297 1103 q 116 968 169 1038 q 35 815 63 899 q 2 640 7 732 q 8 458 -3 549 q 60 310 26 386 q 145 168 94 233 q 263 58 196 103 q 413 3 329 13 q 563 19 496 -7 q 686 103 631 46 q 718 79 703 92 q 749 57 733 67 q 784 42 765 47 q 825 43 803 38 q 875 66 853 50 q 914 106 897 82 m 846 261 q 846 226 849 246 q 832 192 843 207 q 779 159 810 167 q 717 158 749 151 q 629 226 667 179 q 480 131 567 157 q 297 128 393 104 q 209 167 251 140 q 133 229 167 193 q 74 310 99 265 q 39 400 50 354 q 17 576 19 485 q 34 752 14 667 q 99 913 54 838 q 217 1044 143 989 q 298 1080 254 1067 q 388 1095 342 1093 q 476 1085 433 1097 q 556 1044 519 1074 q 635 963 601 1006 q 697 872 669 921 q 744 745 729 814 q 762 604 760 676 q 755 460 764 532 q 729 324 746 388 q 735 290 724 304 q 757 267 746 276 q 784 261 771 254 q 808 276 797 268 q 829 284 819 283 q 847 261 839 285 l 846 261 m 619 810 l 619 817 q 615 819 618 819 q 610 819 613 819 q 601 816 607 814 q 599 808 594 818 l 619 810 m 631 789 q 611 788 621 790 q 599 778 601 785 q 618 778 608 775 q 631 788 628 781 l 631 789 m 653 751 q 625 750 638 753 q 601 744 613 747 q 628 743 613 743 q 651 751 644 743 l 653 751 m 661 713 l 661 719 q 626 719 644 717 q 597 711 608 722 l 661 713 m 676 683 l 676 686 q 636 687 658 686 q 594 683 614 688 q 633 678 613 672 q 675 685 654 685 l 676 683 m 685 653 q 633 660 661 661 q 582 657 606 660 q 633 649 604 649 q 685 653 661 650 m 724 668 q 713 758 726 714 q 681 844 699 803 q 631 932 661 889 q 563 1008 601 975 q 478 1059 525 1040 q 379 1075 431 1078 q 273 1049 324 1072 q 181 988 222 1025 q 110 901 140 950 q 68 799 81 851 q 51 725 63 763 q 50 653 39 688 q 119 765 93 706 q 176 883 144 825 q 178 811 175 849 q 188 739 181 774 q 196 716 193 728 q 203 692 199 704 q 212 671 207 681 q 226 656 217 661 q 231 742 228 699 q 243 826 233 786 q 270 903 253 867 q 318 968 288 939 q 374 986 342 983 q 432 981 406 989 q 494 915 472 953 q 526 832 515 876 q 539 740 536 788 q 546 650 542 693 q 574 714 565 678 q 582 788 582 750 q 575 864 582 826 q 560 932 568 901 q 640 798 604 867 q 725 668 676 729 l 724 668 m 704 585 q 678 619 700 607 q 636 625 657 632 q 605 599 614 618 q 600 557 596 581 q 628 526 608 536 q 671 521 647 517 q 700 547 692 528 q 704 585 708 565 m 676 436 q 659 467 676 456 q 622 472 642 479 q 602 457 610 469 q 594 432 594 444 q 612 403 597 417 q 644 393 626 390 q 675 436 668 406 l 676 436 m 514 436 q 515 563 514 499 q 512 692 515 628 q 497 816 508 756 q 461 931 486 876 q 422 958 443 951 q 372 963 400 965 q 319 931 339 953 q 289 882 300 910 q 272 823 278 854 q 261 764 267 792 q 258 633 264 701 q 251 499 251 565 q 263 369 250 432 q 315 254 275 306 q 369 234 338 235 q 429 236 401 233 q 474 271 458 249 q 497 321 489 293 q 507 378 504 349 q 514 436 510 408 m 171 819 l 156 819 l 158 813 l 171 819 m 171 776 q 156 785 167 786 q 147 774 144 785 q 160 774 154 775 q 169 776 165 772 l 171 776 m 619 308 q 590 322 614 325 q 581 312 583 319 q 581 296 579 304 q 607 283 588 281 q 619 292 618 283 q 619 308 619 301 m 157 742 l 157 749 q 140 751 153 753 q 133 740 128 750 l 157 742 m 169 714 l 169 721 l 119 721 l 119 714 l 169 714 m 179 685 q 165 694 174 692 q 147 696 157 696 q 127 695 138 696 q 108 696 117 694 l 108 685 l 179 685 m 169 653 l 169 660 q 124 660 146 658 q 79 657 101 661 q 123 653 100 651 q 168 653 146 654 l 169 653 m 185 589 q 168 615 181 604 q 141 628 156 625 q 112 626 126 631 q 89 607 97 621 q 83 590 86 599 q 79 572 81 581 q 80 554 78 563 q 92 539 82 546 q 121 526 104 528 q 153 525 138 524 q 180 551 171 535 q 186 589 189 568 l 185 589 m 179 440 q 159 461 172 454 q 129 465 146 468 q 108 449 114 463 q 97 425 103 436 q 117 392 100 406 q 157 386 135 379 q 178 408 176 393 q 179 440 179 424 m 211 301 q 183 313 203 315 q 172 303 176 310 q 169 288 167 296 q 178 275 171 279 q 193 272 186 271 q 206 285 204 275 q 211 301 207 294 m 485 326 q 463 288 471 308 q 432 260 454 267 q 389 253 411 257 q 347 260 367 249 l 336 288 q 336 430 338 358 q 337 570 335 501 q 349 705 339 639 q 386 832 360 771 q 422 858 400 853 q 467 856 444 863 l 485 789 q 498 558 504 674 q 485 326 492 442 z "},"R":{"ha":1104,"x_min":-10,"x_max":1079,"o":"m 1069 79 q 1043 35 1063 56 q 997 8 1024 15 q 962 0 978 -3 q 931 12 946 3 q 901 32 915 21 q 873 47 888 43 q 844 46 858 51 q 815 17 831 40 q 756 55 782 31 q 708 107 729 79 q 670 165 688 135 q 638 225 653 196 q 608 338 617 279 q 588 456 600 397 q 540 465 564 463 q 494 451 515 467 q 447 378 454 424 q 446 288 439 332 q 484 247 464 268 q 519 203 504 226 q 542 154 535 181 q 542 99 549 128 q 513 48 535 69 q 464 15 492 26 q 420 12 440 8 q 381 24 400 15 q 344 46 363 33 q 310 71 326 58 q 254 37 281 57 q 196 17 228 17 q 133 29 163 17 q 79 63 104 42 q 35 110 54 83 q 3 164 15 136 q -9 208 -10 185 q -1 251 -8 231 q 16 267 7 260 q 36 275 25 275 q 55 255 40 263 q 81 261 69 247 q 121 347 108 301 q 137 440 133 392 q 140 538 140 488 q 140 638 139 588 q 105 863 132 756 q 7 1063 78 971 q 8 1073 4 1069 q 16 1078 11 1076 q 27 1083 21 1081 q 38 1088 33 1085 q 94 1085 65 1093 q 149 1070 122 1076 q 201 1067 176 1064 q 247 1101 226 1071 q 301 1070 274 1072 q 356 1077 328 1068 q 415 1099 385 1086 q 474 1110 444 1111 q 705 1060 599 1119 q 874 888 811 1000 q 922 753 914 829 q 899 611 931 676 q 874 569 890 589 q 838 533 857 550 q 918 403 893 474 q 963 257 943 332 q 1006 223 983 242 q 1046 182 1028 204 q 1072 134 1064 160 q 1071 79 1079 108 l 1069 79 m 992 206 q 980 220 986 218 q 966 220 974 222 q 950 215 958 218 q 933 213 942 211 q 886 256 901 231 q 863 313 871 282 q 853 376 856 343 q 843 440 850 408 q 822 500 836 472 q 778 549 807 528 q 759 558 769 554 q 739 565 749 561 q 722 574 729 568 q 713 588 714 579 q 760 625 739 600 q 800 674 782 650 q 821 731 811 700 q 835 794 831 761 q 835 858 839 826 q 818 918 832 889 q 756 1000 793 967 q 672 1054 718 1033 q 574 1083 626 1075 q 469 1086 522 1090 q 410 1079 439 1092 q 354 1056 382 1067 q 299 1046 326 1046 q 246 1075 272 1046 q 196 1047 222 1047 q 141 1053 169 1046 q 85 1067 113 1061 q 31 1058 57 1072 q 100 928 74 997 q 140 784 126 858 q 158 634 154 710 q 157 486 161 558 q 152 423 154 454 q 144 362 150 392 q 128 304 139 332 q 97 253 117 276 q 78 235 89 238 q 55 237 67 233 q 32 244 43 240 q 14 242 21 247 q 11 199 7 221 q 28 161 15 176 q 146 128 76 119 q 203 165 179 140 q 243 221 226 189 q 265 194 257 211 q 286 164 272 176 q 349 132 314 140 q 424 132 385 124 q 451 154 436 142 q 468 182 465 167 q 470 222 471 201 q 456 253 469 242 q 444 242 451 246 q 429 231 436 238 q 403 234 414 226 q 382 249 393 242 q 358 313 368 276 q 347 388 349 350 q 355 460 346 425 q 388 522 364 496 q 442 552 411 542 q 504 551 472 563 q 565 517 543 539 q 599 468 588 496 q 616 408 611 440 q 625 342 621 375 q 636 277 629 308 q 660 219 643 246 q 672 195 665 208 q 688 169 679 182 q 708 149 696 157 q 736 144 719 142 q 754 167 750 151 q 774 189 758 183 l 843 126 q 890 117 865 117 q 940 124 917 117 q 979 156 961 135 q 993 206 997 178 l 992 206 m 735 739 q 722 733 731 732 q 706 733 714 735 q 717 746 704 744 q 735 738 731 747 l 735 739 m 721 706 q 710 697 718 696 q 696 697 703 699 l 690 701 q 706 707 699 701 q 721 704 714 713 l 721 706 m 706 678 q 700 669 708 669 q 688 667 692 668 l 676 667 l 676 676 l 706 676 l 706 678 m 689 642 q 674 635 681 639 q 658 636 667 631 q 671 643 661 639 q 688 642 681 647 l 689 642 m 807 876 q 798 740 822 804 q 715 635 774 675 q 722 668 717 651 q 733 701 728 685 q 742 735 739 718 q 744 771 746 753 l 715 771 l 715 774 l 749 778 q 749 796 746 786 q 740 810 751 806 q 722 804 735 803 l 722 819 q 733 818 729 822 q 740 811 736 814 q 745 833 747 821 q 736 851 743 844 q 733 843 732 849 q 733 833 735 838 l 717 836 q 703 783 710 810 q 688 730 697 756 q 665 681 679 704 q 625 638 650 657 q 574 607 603 618 q 516 592 546 596 q 455 591 486 588 q 396 604 424 594 q 324 653 356 619 q 275 725 292 686 q 235 718 261 718 l 235 726 l 274 726 q 261 815 267 768 q 250 907 256 863 l 247 907 q 222 762 239 832 q 179 624 204 692 q 165 733 172 678 q 144 843 157 789 q 113 949 132 897 q 65 1049 94 1001 q 112 1048 89 1054 q 158 1035 135 1042 q 202 1030 181 1029 q 244 1051 224 1031 q 315 1032 281 1029 q 385 1046 350 1035 q 458 1068 421 1057 q 535 1074 494 1079 q 620 1053 576 1067 q 702 1015 664 1039 q 769 958 740 992 q 807 878 797 924 l 807 876 m 678 606 q 651 602 665 601 q 624 603 638 603 l 624 610 q 638 609 631 607 q 651 613 644 611 q 665 613 658 614 q 678 607 671 613 l 678 606 m 707 522 q 706 495 708 508 q 693 476 704 482 q 658 477 675 475 q 626 490 640 479 q 611 517 619 504 q 607 549 603 531 q 633 566 618 564 q 662 563 647 568 q 688 547 676 558 q 707 524 700 536 l 707 522 m 769 389 q 763 364 767 376 q 744 344 760 351 q 697 379 708 344 q 701 405 700 392 q 718 422 703 418 q 751 415 738 421 q 771 389 765 408 l 769 389 m 244 751 l 244 767 q 255 766 253 769 q 260 756 257 763 l 260 751 l 244 751 m 781 250 q 777 231 785 239 q 763 221 769 224 q 745 224 751 215 q 736 238 739 232 q 739 254 733 247 q 753 263 744 261 q 769 262 761 265 q 779 250 778 258 l 781 250 m 276 688 q 253 680 269 676 q 225 682 238 683 q 246 692 229 696 q 275 688 263 688 l 276 688 m 294 656 q 259 648 281 644 q 218 649 238 651 l 217 660 q 256 660 236 660 q 294 656 276 661 m 307 622 q 260 612 289 613 q 207 614 231 611 q 253 624 231 621 q 307 622 276 626 m 310 560 q 310 526 317 542 q 292 496 304 510 q 264 485 282 482 q 231 489 246 488 q 205 519 210 499 q 207 558 200 539 q 219 576 214 568 q 238 589 225 585 q 280 588 260 592 q 310 560 300 583 m 283 396 q 278 374 281 385 q 264 360 275 364 q 230 363 246 357 q 210 386 214 368 q 219 413 208 401 q 244 426 229 424 q 267 417 257 425 q 283 397 278 408 l 283 396 m 269 267 q 263 251 267 260 q 251 239 260 242 q 233 243 242 238 q 225 258 224 249 q 236 285 221 276 q 258 283 247 288 q 269 267 269 279 m 619 892 q 583 940 607 918 q 532 972 558 961 q 440 975 486 986 q 365 928 394 964 q 324 819 328 881 q 343 701 321 758 q 381 652 354 672 q 436 621 408 632 q 526 626 481 618 q 601 672 572 633 q 626 721 617 693 q 638 778 636 749 q 636 836 640 807 q 619 890 632 865 l 619 892 m 600 876 q 616 778 621 832 q 583 685 611 724 q 519 640 558 650 q 438 640 481 631 q 375 692 393 656 q 351 769 357 728 q 353 842 350 804 q 381 906 357 879 q 446 953 408 938 q 525 950 483 968 q 567 919 549 939 q 601 876 586 900 l 600 876 m 597 819 q 593 844 599 836 q 578 856 588 853 q 556 860 568 860 q 531 863 543 860 q 472 833 496 860 q 433 778 447 806 q 431 745 433 763 q 429 711 429 728 q 433 680 429 694 q 450 657 438 665 q 506 656 481 646 q 556 682 532 667 q 590 744 581 710 q 597 818 599 779 l 597 819 z "},"S":{"ha":796,"x_min":-3,"x_max":768,"o":"m 725 154 q 759 244 750 196 q 764 343 768 293 q 742 440 760 393 q 697 525 725 488 q 610 618 661 585 q 503 674 560 651 q 388 716 446 696 q 278 769 329 736 q 288 794 281 783 q 307 813 296 804 q 375 840 338 838 q 442 829 413 843 q 456 777 443 801 q 488 733 469 753 q 530 696 507 713 q 575 665 553 679 q 622 666 599 660 q 664 688 644 672 q 697 729 689 707 q 703 774 706 751 q 694 822 701 797 q 683 870 688 846 q 679 918 678 894 q 697 965 681 942 q 678 1017 694 992 q 644 1064 661 1043 q 576 1064 613 1072 q 508 1049 540 1056 q 450 1083 478 1064 q 388 1107 422 1103 q 226 1099 303 1118 q 88 1021 150 1081 q 35 955 56 992 q 6 877 15 918 q -1 794 -3 836 q 14 713 1 751 q 82 589 38 643 q 184 495 126 535 q 307 428 242 456 q 438 383 372 400 q 457 371 450 379 q 467 351 464 363 q 469 328 469 340 q 468 307 468 317 q 443 272 461 286 q 406 249 425 257 q 381 245 394 247 q 354 243 368 243 q 329 246 342 243 q 308 258 317 249 q 282 313 296 285 q 249 367 268 342 q 207 414 231 393 q 154 446 183 435 q 92 437 121 453 q 40 400 64 421 q 24 363 28 382 q 22 324 19 343 q 33 285 25 304 q 50 249 40 265 q 18 190 35 219 q 3 125 1 161 q 38 76 19 101 q 81 35 56 50 q 146 67 114 60 q 210 68 178 74 q 275 50 243 63 q 340 26 307 38 q 406 6 372 14 q 475 1 440 -3 q 617 49 550 11 q 725 154 685 88 m 689 329 q 660 260 681 293 q 613 198 640 226 q 553 150 586 169 q 483 125 519 131 q 363 117 419 106 q 251 146 306 129 q 140 171 196 163 q 25 151 85 179 q 29 178 22 165 q 47 204 36 192 q 67 229 57 217 q 80 253 76 242 q 76 277 83 265 q 47 300 69 289 q 46 358 43 328 q 76 404 49 388 q 129 424 99 426 q 185 410 160 421 q 218 365 210 392 q 218 311 226 339 q 207 294 211 304 q 214 276 203 283 q 321 228 258 239 q 436 242 383 218 q 486 349 490 281 q 443 436 476 406 q 366 485 410 467 q 274 516 322 503 q 189 553 226 529 q 131 593 160 571 q 79 642 103 615 q 39 699 56 668 q 18 764 22 729 q 35 906 11 835 q 113 1021 60 976 q 242 1088 169 1068 q 393 1089 314 1108 q 442 1068 418 1083 q 492 1042 467 1053 q 542 1030 517 1031 q 596 1053 568 1029 l 614 1050 q 602 997 601 1025 q 608 942 603 969 q 619 886 614 914 q 624 833 625 858 q 610 787 622 808 q 565 750 597 765 q 506 756 535 750 q 465 792 478 761 q 464 900 489 847 q 424 936 447 924 q 374 954 400 949 q 310 948 343 953 q 254 915 278 943 q 228 867 236 894 q 229 813 219 840 q 278 751 249 774 q 341 713 307 728 q 413 690 375 699 q 488 669 451 681 q 558 639 525 657 q 618 589 592 621 q 686 468 672 538 q 689 328 700 399 l 689 329 m 581 1026 l 500 1000 q 443 1042 472 1025 q 379 1067 414 1060 q 222 1059 297 1086 q 92 972 147 1032 q 43 867 57 924 q 40 747 29 811 q 85 664 54 700 q 156 601 117 628 q 238 555 194 574 q 321 525 282 536 q 251 578 288 550 q 184 640 214 607 q 136 712 154 674 q 122 794 118 750 q 132 786 125 788 q 145 783 139 785 q 156 778 151 782 q 161 763 161 774 q 155 758 158 757 q 149 760 151 758 q 143 761 146 761 q 142 754 142 761 l 174 750 q 330 667 244 693 q 503 642 415 642 q 376 681 440 663 q 254 740 311 700 q 209 810 224 771 q 210 892 194 849 q 251 939 225 919 q 304 969 276 958 q 383 974 342 979 q 454 946 424 969 q 485 910 475 929 q 497 869 494 890 q 497 826 499 849 q 490 782 494 804 l 540 772 q 594 816 586 788 q 596 880 603 844 q 580 954 589 915 q 582 1026 571 993 l 581 1026 m 557 558 q 535 584 550 574 q 504 598 521 594 q 472 595 488 601 q 449 569 456 589 q 444 528 444 550 q 467 493 444 506 q 505 483 483 486 q 542 497 526 479 q 557 526 551 510 q 556 560 563 542 l 557 558 m 610 408 q 587 426 601 419 q 556 431 572 433 q 528 376 521 414 q 552 351 536 358 q 583 349 568 344 q 606 372 601 357 q 608 407 611 388 l 610 408 m 422 624 q 327 631 378 635 q 232 631 276 628 l 239 617 l 422 624 m 397 590 l 397 596 q 331 599 365 599 q 267 590 296 600 q 335 585 300 590 q 397 590 369 579 m 307 657 l 307 664 q 258 665 283 661 q 217 653 232 668 q 263 653 239 654 q 307 657 286 653 m 201 718 q 177 720 190 717 q 165 711 164 724 q 185 710 174 714 q 200 718 197 707 l 201 718 m 229 686 q 211 690 222 690 q 189 689 200 689 l 189 682 q 211 681 200 682 q 231 685 222 681 l 229 686 m 354 553 q 350 560 354 556 q 329 563 343 563 q 313 553 317 563 l 354 553 m 564 251 q 553 260 561 261 q 543 264 546 258 l 532 242 q 550 228 533 228 q 562 237 557 229 q 564 253 567 244 l 564 251 z "},"T":{"ha":946,"x_min":0,"x_max":903,"o":"m 901 815 q 877 917 878 861 q 897 1021 876 974 q 874 1049 885 1033 q 850 1080 863 1065 q 823 1103 838 1094 q 789 1111 808 1113 q 760 1106 774 1113 q 732 1092 746 1099 q 705 1081 718 1085 q 678 1083 692 1076 q 624 1104 650 1104 q 571 1097 597 1104 q 518 1081 544 1089 q 465 1075 492 1072 q 435 1101 450 1100 q 403 1094 419 1103 q 371 1076 388 1086 q 336 1069 354 1065 q 286 1087 313 1079 q 232 1097 260 1094 q 178 1092 204 1099 q 129 1069 151 1086 l 64 1100 q 28 1103 46 1107 q 0 1086 10 1099 q 29 1023 28 1056 q 24 956 31 990 q 8 888 17 922 q 8 819 0 853 q 49 730 19 771 q 124 661 78 689 q 190 653 157 654 q 254 665 222 653 q 255 703 257 682 q 253 745 253 725 q 263 781 254 765 q 293 800 271 796 q 314 649 313 729 q 311 493 315 569 q 298 372 307 431 q 258 261 289 313 q 240 257 247 254 q 228 266 233 260 q 218 281 222 272 q 210 293 214 289 l 186 276 q 164 226 172 254 q 168 171 156 199 q 203 111 185 142 q 246 55 222 81 q 299 13 269 29 q 369 0 329 -3 q 433 19 404 3 q 486 64 463 36 l 553 14 q 638 8 593 3 q 714 49 683 14 q 745 103 736 72 q 756 161 754 133 q 727 220 750 196 q 681 268 704 244 q 665 280 674 276 q 647 287 656 283 q 629 294 638 290 q 617 310 621 299 q 599 464 607 389 q 606 615 592 539 q 608 692 604 654 q 632 760 613 731 q 667 720 649 740 q 708 685 686 700 q 756 664 731 671 q 808 664 781 657 q 878 725 853 686 q 901 815 903 764 m 789 1082 q 768 1028 769 1056 q 774 974 767 1001 q 790 919 781 946 q 803 865 800 892 q 796 814 806 839 q 754 767 786 789 q 693 765 725 761 q 640 797 661 769 q 666 849 654 821 q 667 908 678 876 q 635 932 654 928 q 596 929 615 936 q 543 849 558 894 q 524 754 528 804 q 521 652 519 704 q 517 550 522 600 q 526 465 524 508 q 534 379 528 421 q 556 301 540 338 q 606 235 571 264 q 633 232 619 228 q 656 249 647 236 q 667 215 668 238 q 658 176 665 192 q 624 144 646 151 q 579 132 601 136 q 490 156 531 129 q 425 221 449 182 q 385 160 410 192 q 324 119 360 129 q 267 118 296 113 q 218 142 239 124 q 183 215 183 171 l 199 253 q 226 234 210 242 q 258 235 242 226 q 319 372 307 294 q 333 531 331 450 q 329 719 336 625 q 285 893 322 813 q 246 928 267 913 q 199 935 225 944 q 166 888 171 919 q 172 829 161 857 q 185 792 193 813 q 154 764 176 772 q 103 760 129 757 q 58 778 78 764 q 24 850 22 813 q 38 925 26 888 q 55 1001 50 963 q 29 1078 60 1040 q 85 1068 58 1078 q 135 1047 111 1058 q 203 1078 168 1081 q 273 1067 238 1076 q 344 1053 308 1057 q 413 1078 379 1049 q 458 1053 435 1056 q 503 1056 481 1050 q 550 1071 526 1061 q 597 1085 574 1081 q 642 1083 619 1089 q 688 1051 665 1078 q 736 1075 711 1063 q 789 1081 761 1088 l 789 1082 m 760 1061 l 681 1028 q 640 1054 660 1049 q 599 1057 619 1060 q 557 1046 578 1054 q 515 1033 536 1038 q 471 1029 493 1028 q 426 1046 449 1031 q 403 1052 414 1054 q 383 1044 393 1050 q 360 1032 372 1038 q 336 1028 349 1026 q 289 1043 315 1036 q 235 1051 263 1050 q 181 1044 207 1051 q 135 1018 156 1038 q 99 1042 119 1033 q 60 1049 79 1050 q 67 994 68 1021 q 62 942 67 968 q 52 888 57 915 q 47 833 47 861 q 64 801 49 815 q 93 779 79 786 q 128 774 108 776 q 160 788 149 772 q 144 843 153 815 q 146 900 135 871 q 177 942 154 924 q 228 957 200 960 q 307 898 283 938 q 339 809 331 858 q 348 707 347 760 q 357 611 349 654 q 399 752 385 678 q 422 901 413 826 q 451 758 436 829 q 494 619 467 688 q 501 685 499 651 q 505 754 503 719 q 513 822 507 789 q 532 885 519 856 q 550 912 540 897 q 572 938 560 926 q 600 956 585 949 q 635 960 615 963 q 676 933 663 957 q 696 885 689 908 q 691 858 696 872 q 681 831 686 844 q 676 807 676 818 q 685 788 675 796 q 755 798 735 785 q 778 834 775 811 q 772 886 781 857 q 756 947 764 915 q 745 1008 747 978 q 760 1061 743 1038 m 431 814 l 431 825 q 424 828 426 829 l 422 814 l 431 814 m 438 788 q 433 794 435 790 q 425 796 431 797 q 416 788 419 794 q 419 778 413 782 l 431 776 q 438 786 438 775 l 438 788 m 442 749 q 427 756 436 760 q 411 751 418 753 q 411 744 411 749 q 414 740 411 742 q 428 742 422 738 q 442 749 435 746 m 449 715 q 425 724 442 724 q 408 713 408 725 q 429 712 421 713 q 449 715 438 711 m 449 686 q 438 690 444 690 q 425 689 432 689 q 417 685 422 685 q 406 685 411 685 q 399 683 401 685 q 401 674 397 682 q 428 674 413 676 q 449 686 444 671 m 460 651 q 422 654 442 658 q 389 643 403 650 q 407 645 397 647 q 426 642 417 643 q 445 641 436 640 q 460 651 454 642 m 479 617 l 471 625 q 428 621 451 618 q 386 617 406 624 l 385 611 q 431 609 404 613 q 478 617 458 606 l 479 617 m 478 506 q 485 540 486 519 q 474 574 485 561 q 453 589 465 583 q 426 594 440 594 q 401 588 414 594 q 382 569 389 582 q 375 526 371 550 q 400 488 379 501 q 442 481 418 475 q 476 506 465 488 l 478 506 m 468 397 q 443 428 464 418 q 403 429 422 438 q 383 408 389 422 q 379 378 376 394 q 399 349 382 358 q 435 340 415 340 q 461 363 451 347 q 468 397 471 378 m 449 258 q 440 272 447 267 q 425 276 433 276 q 410 270 417 275 q 404 256 404 265 q 417 239 411 247 q 435 232 422 231 q 449 260 449 244 l 449 258 z "},"U":{"ha":997,"x_min":1,"x_max":976,"o":"m 965 969 q 972 1005 976 988 q 956 1038 968 1022 q 931 1069 944 1054 q 908 1100 917 1085 q 869 1103 888 1106 q 831 1094 850 1100 q 794 1081 813 1088 q 756 1074 776 1075 q 744 1078 749 1074 q 735 1089 739 1083 q 726 1099 731 1094 q 714 1101 722 1103 q 669 1078 692 1078 q 624 1088 647 1079 q 578 1101 601 1096 q 531 1093 556 1107 q 542 1059 536 1076 q 557 1026 549 1042 q 609 888 590 961 q 636 739 628 815 q 644 584 644 663 q 639 429 643 506 q 625 381 632 406 q 608 335 618 357 q 581 294 597 313 q 538 264 564 275 q 488 261 514 257 q 443 286 463 265 q 421 466 424 375 q 432 644 418 557 q 477 814 446 732 q 560 967 508 896 l 504 1088 q 449 1103 476 1104 q 393 1095 421 1101 q 338 1082 365 1089 q 282 1079 310 1075 q 264 1102 274 1088 q 236 1108 254 1117 q 179 1077 208 1075 q 121 1091 150 1079 q 62 1109 92 1103 q 1 1090 32 1115 q 80 923 49 1010 q 119 740 111 836 q 125 570 126 658 q 133 395 124 482 q 172 230 142 308 q 272 90 201 151 q 414 15 336 35 q 582 3 492 -4 q 665 28 624 8 q 743 76 707 47 q 806 141 779 104 q 846 219 833 178 q 869 345 864 281 q 873 476 874 410 q 872 608 872 542 q 878 737 871 674 q 904 858 885 800 q 965 969 924 917 m 888 1082 q 808 920 832 1008 q 776 738 783 832 q 769 545 768 643 q 767 354 771 447 q 746 286 758 321 q 713 221 733 251 q 667 167 693 190 q 606 131 640 143 q 509 109 560 114 q 409 110 458 104 q 315 136 360 117 q 235 189 269 156 q 166 301 185 236 q 144 435 147 365 q 145 577 142 506 q 143 711 149 649 q 106 906 133 811 q 28 1083 79 1000 q 83 1088 57 1097 q 136 1069 110 1079 q 188 1058 163 1060 q 239 1086 214 1057 q 263 1076 251 1082 q 284 1065 274 1069 q 306 1059 294 1061 q 331 1061 317 1057 q 396 1082 364 1071 q 467 1086 428 1093 l 474 1075 q 392 899 425 993 q 346 707 358 806 q 342 508 333 608 q 386 314 351 407 q 444 258 410 278 q 519 242 479 239 q 583 272 556 244 q 628 328 611 299 q 653 506 646 415 q 656 688 661 597 q 631 864 650 778 q 575 1029 611 950 q 563 1053 569 1042 q 557 1078 557 1064 q 597 1081 578 1086 q 636 1067 617 1075 q 675 1058 656 1060 q 714 1075 694 1057 q 758 1059 736 1058 q 801 1066 779 1060 q 845 1079 824 1072 q 889 1082 867 1086 l 888 1082 m 843 1056 q 806 1042 824 1056 q 759 1034 785 1031 q 715 1053 733 1038 q 685 1034 700 1035 q 653 1040 669 1033 q 621 1054 638 1046 q 588 1061 604 1063 q 652 853 625 961 q 678 624 679 744 q 707 764 701 692 q 719 910 713 836 q 730 774 728 839 q 750 642 732 708 q 758 752 754 697 q 769 860 761 807 q 795 963 778 914 q 844 1056 813 1013 l 843 1056 m 725 700 q 719 700 721 699 q 717 703 718 701 l 713 693 l 719 693 q 725 700 725 696 m 728 665 q 715 669 724 672 q 707 658 707 667 q 712 653 707 653 q 719 654 717 654 q 727 656 725 653 q 728 664 729 660 l 728 665 m 736 631 q 713 635 728 633 q 699 622 697 636 q 710 620 703 617 q 725 617 718 624 q 733 622 728 619 q 736 631 739 624 m 747 567 q 737 594 747 582 q 707 600 726 607 q 688 571 690 589 q 690 536 686 553 q 702 520 697 529 q 719 511 707 511 q 739 535 735 518 q 746 567 743 551 l 747 567 m 735 425 q 711 435 728 440 q 692 417 694 429 q 689 401 690 411 q 690 382 688 390 q 697 369 692 374 q 717 368 703 364 q 731 393 725 381 q 735 424 738 406 l 735 425 m 438 1061 q 410 1059 422 1063 q 385 1050 397 1056 q 362 1038 374 1044 q 336 1031 350 1032 q 285 1035 308 1026 q 242 1058 263 1043 q 199 1035 221 1038 q 153 1039 176 1033 q 108 1053 131 1044 q 63 1064 85 1063 q 140 849 110 963 q 168 614 171 736 l 171 615 q 221 754 203 682 q 247 904 239 826 l 250 903 q 272 762 263 832 q 310 628 282 692 l 318 629 q 338 792 321 714 q 385 946 356 871 q 412 1003 396 974 q 438 1061 428 1033 m 254 810 q 251 813 251 811 q 247 813 250 814 l 250 799 q 254 808 254 800 l 254 810 m 257 779 q 244 781 253 783 q 236 771 236 778 q 240 765 239 768 q 246 764 242 763 q 256 768 253 767 q 257 779 260 769 m 265 736 l 265 744 q 250 748 258 749 q 235 747 242 747 l 235 736 l 265 736 m 268 710 l 268 718 q 256 721 264 719 q 242 722 249 722 q 230 720 235 722 q 226 710 225 718 l 268 710 m 689 293 q 668 288 676 300 q 660 267 660 276 q 667 258 660 260 q 682 257 675 256 q 692 274 689 264 q 688 293 694 283 l 689 293 m 275 683 l 275 692 l 215 696 l 215 683 l 275 683 m 282 661 q 242 667 263 661 q 208 661 222 674 q 282 661 243 651 m 293 635 q 243 640 271 639 q 197 632 215 640 q 247 628 219 629 q 293 636 275 626 l 293 635 m 290 517 q 306 558 306 533 q 290 599 307 583 q 261 613 278 611 q 226 615 244 615 q 208 604 213 613 q 192 588 203 596 q 187 545 181 568 q 208 507 193 522 q 249 501 228 503 q 289 518 271 499 l 290 517 m 292 417 q 274 439 289 435 q 244 446 258 443 q 217 426 225 442 q 208 394 208 411 q 228 367 214 378 q 263 363 243 357 q 287 383 278 368 q 292 417 296 397 m 315 281 q 304 294 313 289 q 286 301 296 300 q 269 296 276 301 q 264 278 263 290 q 274 254 263 261 q 300 250 285 247 q 313 263 311 253 q 315 281 314 272 z "},"V":{"ha":1158,"x_min":0,"x_max":1103,"o":"m 1099 982 q 963 785 1018 889 q 870 571 907 682 q 811 342 833 460 q 776 104 789 225 q 775 78 774 93 q 777 47 776 63 q 774 18 778 31 q 754 0 769 6 q 661 22 706 3 q 582 76 617 40 q 540 58 560 71 q 500 33 519 46 q 459 15 481 21 q 413 15 438 8 q 381 66 393 39 q 353 119 368 93 q 228 631 318 389 q 0 1099 139 874 q 67 1108 35 1117 q 131 1089 100 1100 q 191 1076 163 1078 q 244 1110 219 1075 q 266 1093 254 1103 q 291 1077 278 1083 q 319 1069 304 1071 q 349 1078 333 1068 q 425 1106 381 1099 q 504 1092 469 1114 l 574 989 q 522 852 539 926 q 506 700 506 778 q 522 547 506 622 q 568 408 538 471 q 641 549 611 469 q 681 715 671 629 q 678 884 690 800 q 626 1038 665 968 q 610 1065 619 1051 q 593 1092 601 1078 q 617 1106 603 1101 q 646 1110 631 1110 q 677 1107 661 1110 q 706 1100 693 1104 q 747 1084 725 1093 q 792 1088 769 1075 q 822 1103 807 1107 q 851 1089 836 1099 q 882 1074 865 1079 q 918 1086 899 1068 q 972 1104 946 1101 q 1029 1104 997 1107 q 1053 1082 1043 1094 q 1069 1056 1063 1069 q 1084 1029 1076 1043 q 1103 1004 1092 1015 l 1099 982 m 1006 1090 q 956 1081 981 1092 q 906 1063 931 1071 q 858 1056 882 1054 q 813 1086 835 1058 q 768 1062 790 1061 q 723 1071 746 1063 q 676 1087 700 1079 q 628 1085 653 1094 q 661 1006 646 1046 q 686 924 676 965 q 700 838 696 882 q 699 746 704 793 q 683 640 692 693 q 658 538 674 588 q 617 442 642 488 q 554 357 592 396 q 472 524 503 435 q 430 708 440 614 q 433 897 419 803 q 483 1081 446 992 q 405 1084 443 1097 q 333 1053 367 1071 q 309 1051 321 1049 q 286 1058 297 1053 q 265 1069 275 1064 q 246 1078 256 1075 q 194 1053 219 1050 q 143 1067 169 1056 q 88 1086 117 1078 q 29 1081 60 1094 l 29 1074 q 253 616 167 854 q 375 121 339 378 q 462 147 425 125 q 536 206 499 169 q 599 146 560 168 q 681 126 638 124 q 693 230 688 179 q 711 332 699 281 q 756 530 733 431 q 810 724 778 629 q 889 909 843 819 q 1006 1078 935 999 l 1006 1090 m 956 1061 q 844 869 886 969 q 775 661 803 769 q 753 663 765 658 q 731 669 742 667 l 731 678 q 743 681 736 683 q 756 676 750 679 q 764 675 761 674 q 764 690 767 676 q 758 694 761 694 q 750 692 754 693 q 743 693 746 692 q 742 703 740 694 l 765 706 q 763 721 769 714 q 750 725 757 728 q 766 752 763 736 q 771 786 769 768 q 773 823 772 804 q 781 858 774 842 l 776 863 q 762 810 768 838 q 749 755 756 782 q 733 701 743 728 q 706 651 722 674 q 720 756 718 703 q 715 863 722 810 q 692 967 707 917 q 653 1061 676 1017 q 675 1067 660 1069 q 703 1060 690 1065 q 757 1042 726 1042 q 813 1060 789 1042 q 861 1038 833 1044 q 913 1043 889 1032 q 933 1057 921 1051 q 954 1060 944 1063 l 956 1061 m 750 646 q 738 635 747 639 q 722 636 729 631 q 728 650 719 646 q 744 647 738 654 q 751 644 747 649 l 750 646 m 738 590 q 730 546 736 567 q 704 508 724 525 q 692 511 697 506 q 685 519 688 517 q 689 547 686 531 q 697 577 692 564 q 713 596 703 590 q 739 590 722 601 l 738 590 m 447 1065 q 421 966 432 1018 q 404 860 410 914 q 401 750 399 806 q 415 642 403 694 q 394 676 408 671 q 362 680 379 682 q 325 674 344 678 q 292 683 306 671 l 369 689 q 372 702 376 696 q 363 713 367 708 q 332 710 349 708 q 300 710 315 711 l 300 717 l 356 719 q 353 736 357 728 q 345 752 350 744 q 335 767 340 760 q 326 783 329 775 q 319 774 325 776 q 307 772 314 772 q 304 775 306 774 q 303 781 303 776 l 326 783 q 309 834 317 808 q 288 882 301 860 q 287 822 286 854 q 287 758 288 790 q 281 693 286 725 q 265 635 276 661 q 180 855 225 747 q 65 1063 135 963 q 106 1059 88 1067 q 142 1042 125 1051 q 178 1029 160 1033 q 218 1036 197 1025 q 254 1053 236 1057 q 290 1042 272 1050 q 327 1031 308 1035 q 365 1047 346 1028 q 404 1065 381 1063 q 447 1065 428 1067 m 678 408 q 672 398 675 401 q 664 390 668 394 q 650 392 653 388 q 647 403 647 396 q 648 417 647 410 q 647 431 649 425 l 669 464 q 682 454 678 461 q 686 439 686 447 q 684 422 686 431 q 679 408 682 414 l 678 408 m 333 739 q 318 742 326 743 q 301 743 310 742 q 301 749 299 749 q 306 750 303 750 q 311 750 308 750 q 317 753 315 750 q 323 750 321 753 q 332 749 325 747 l 332 739 l 333 739 m 397 643 q 345 638 369 636 q 292 638 321 640 l 288 649 q 344 651 315 647 q 396 643 374 654 l 397 643 m 422 579 q 418 536 429 556 q 386 510 407 517 q 344 515 363 503 q 311 542 326 526 q 315 578 308 558 q 338 610 321 599 q 387 613 361 622 q 422 579 413 604 m 629 271 q 615 268 622 264 q 604 279 607 272 q 608 292 601 288 q 621 300 614 297 q 633 290 636 299 q 628 271 631 281 l 629 271 m 457 418 q 445 394 454 404 q 421 382 436 385 q 393 390 407 383 q 376 411 379 396 q 385 440 374 428 q 408 456 396 453 q 440 447 425 458 q 458 419 456 435 l 457 418 m 464 288 q 449 260 467 264 q 428 263 438 257 q 419 281 418 269 q 438 299 421 294 q 464 289 456 303 l 464 288 z "},"W":{"ha":1785,"x_min":0,"x_max":1703,"o":"m 1697 1000 q 1697 1030 1703 1017 q 1679 1055 1690 1043 q 1656 1078 1668 1067 q 1638 1104 1643 1090 q 1603 1109 1619 1110 q 1572 1104 1588 1108 q 1540 1094 1556 1100 q 1510 1085 1525 1088 q 1488 1084 1499 1082 q 1465 1090 1476 1086 q 1444 1099 1454 1094 q 1425 1104 1435 1104 q 1369 1083 1397 1079 q 1313 1097 1342 1088 q 1256 1112 1285 1107 q 1199 1094 1228 1117 q 1275 910 1256 1010 q 1287 709 1294 811 q 1251 508 1279 607 q 1186 324 1224 408 l 1179 325 q 1122 475 1143 394 q 1097 639 1101 556 q 1106 804 1092 722 q 1154 960 1119 886 q 1158 994 1163 978 q 1142 1025 1153 1010 q 1121 1056 1132 1040 q 1104 1089 1110 1072 q 1056 1109 1079 1107 q 1010 1105 1033 1111 q 966 1089 988 1099 q 922 1074 944 1079 q 878 1074 900 1069 q 835 1101 857 1079 q 798 1074 817 1079 q 760 1073 779 1069 q 721 1085 740 1076 q 681 1101 701 1094 q 641 1106 661 1107 q 601 1089 621 1104 q 649 991 631 1043 q 675 883 667 939 q 685 770 683 828 q 685 657 686 713 q 669 573 678 615 q 650 490 661 531 q 624 410 639 449 q 586 339 608 372 q 533 490 556 410 q 503 652 511 569 q 504 817 494 735 q 549 974 514 899 q 540 1008 549 992 q 518 1040 531 1025 q 492 1070 506 1056 q 467 1099 478 1085 q 406 1098 435 1106 q 350 1075 376 1090 q 297 1073 324 1069 q 254 1104 269 1076 l 213 1071 q 172 1068 193 1065 q 136 1082 151 1071 q 65 1094 104 1097 q 0 1075 26 1090 q 210 722 128 907 q 328 331 293 538 q 342 243 342 290 q 345 150 342 196 q 365 65 349 104 q 428 3 381 26 q 473 11 453 3 q 513 31 493 19 q 550 53 532 42 q 589 71 568 64 q 685 15 633 38 q 794 4 736 -8 q 813 196 793 104 q 872 367 832 288 q 897 273 894 324 q 903 172 899 222 q 924 78 907 122 q 996 6 942 35 q 1091 26 1049 3 q 1174 79 1133 50 q 1274 21 1222 44 q 1388 4 1326 -3 q 1467 531 1393 281 q 1699 999 1540 782 l 1697 1000 m 1608 1089 q 1486 868 1538 982 q 1398 633 1435 754 q 1336 387 1361 513 q 1293 133 1311 261 q 1242 123 1267 121 q 1196 135 1218 125 q 1152 160 1174 146 q 1110 189 1131 175 q 1029 131 1075 151 q 929 114 983 110 q 828 613 900 372 q 635 1078 756 854 q 685 1079 660 1088 q 736 1061 711 1071 q 785 1051 761 1051 q 833 1078 810 1050 q 881 1055 857 1067 q 933 1054 904 1043 q 1000 1085 961 1078 q 1071 1081 1039 1093 q 1016 880 1026 988 q 1021 663 1006 772 q 1074 449 1036 553 q 1164 260 1111 344 q 1285 545 1244 390 q 1301 868 1325 700 q 1280 976 1294 924 q 1235 1078 1265 1029 q 1284 1087 1260 1093 q 1333 1072 1308 1081 q 1381 1060 1357 1063 q 1431 1082 1406 1058 q 1474 1063 1451 1064 q 1518 1068 1496 1063 q 1563 1081 1540 1074 q 1608 1089 1586 1089 m 814 563 q 748 348 771 458 q 722 122 725 238 q 625 138 669 124 q 542 185 581 153 q 510 165 522 181 q 478 140 497 149 q 426 121 454 128 q 369 122 399 114 q 269 619 350 385 q 35 1061 188 854 q 90 1073 63 1079 q 146 1057 118 1067 q 200 1046 174 1047 q 251 1074 226 1044 q 301 1044 276 1043 q 350 1055 325 1044 q 401 1077 375 1065 q 457 1082 428 1089 q 423 876 426 982 q 437 667 419 771 q 488 464 454 563 q 568 278 522 365 l 579 268 q 585 275 582 271 q 593 276 589 279 l 603 264 q 631 374 610 319 q 668 481 651 428 q 703 701 703 588 q 683 928 704 815 q 715 775 711 857 q 708 614 719 693 l 717 607 q 732 619 726 611 q 742 636 738 628 q 754 648 747 644 q 776 644 761 651 q 783 649 779 647 q 785 654 786 651 q 772 662 781 665 q 754 661 763 658 q 756 672 753 669 q 765 676 760 675 q 774 679 769 678 q 781 688 779 681 l 814 563 m 1564 1058 q 1526 1047 1542 1063 q 1476 1040 1503 1038 q 1429 1063 1449 1043 q 1392 1041 1411 1043 q 1351 1044 1372 1039 q 1310 1059 1331 1050 q 1271 1071 1290 1068 l 1265 1058 q 1303 964 1289 1014 q 1322 861 1317 914 q 1325 755 1326 808 q 1318 651 1324 701 l 1336 678 q 1349 672 1343 676 q 1358 674 1354 667 q 1358 683 1360 681 q 1351 685 1356 685 q 1343 685 1347 685 q 1338 689 1339 686 l 1351 707 l 1356 704 l 1365 715 l 1347 718 q 1352 736 1350 728 q 1357 753 1354 744 l 1365 744 q 1372 746 1371 743 q 1376 751 1374 749 q 1372 760 1375 760 q 1369 756 1371 760 q 1365 750 1367 753 q 1358 751 1363 747 q 1371 801 1361 778 q 1389 849 1381 825 q 1387 799 1389 825 q 1383 746 1385 772 q 1381 694 1381 719 q 1385 649 1381 669 q 1461 859 1417 757 q 1564 1060 1506 961 l 1564 1058 m 1358 646 q 1349 645 1354 644 q 1338 646 1343 646 q 1330 644 1333 646 q 1328 635 1326 642 l 1339 635 q 1353 635 1346 635 q 1358 646 1361 636 m 1351 538 q 1356 563 1357 547 q 1350 588 1356 578 q 1335 599 1344 599 q 1314 579 1325 599 q 1309 542 1310 563 q 1318 508 1308 522 q 1339 519 1329 515 q 1351 536 1349 522 l 1351 538 m 1042 1065 q 988 1057 1014 1068 q 935 1037 961 1046 q 885 1028 910 1028 q 833 1051 860 1028 q 792 1030 813 1033 q 749 1031 771 1026 q 707 1044 728 1035 q 667 1061 686 1054 q 764 847 719 956 q 844 625 808 739 q 860 656 857 639 q 865 690 864 672 q 867 725 867 707 q 874 760 868 743 q 890 763 883 757 q 900 776 897 768 q 886 775 893 778 q 872 769 879 772 q 868 843 872 806 q 867 917 864 881 q 884 864 875 890 q 892 811 893 838 l 886 813 l 886 806 q 892 807 892 803 q 896 815 892 813 q 937 721 915 768 q 997 636 958 674 q 990 858 978 746 q 1042 1065 1001 969 m 1307 403 q 1314 430 1319 419 q 1298 443 1308 440 q 1276 440 1288 446 q 1265 417 1265 433 q 1263 402 1264 411 q 1262 385 1261 393 q 1266 370 1263 376 q 1281 365 1269 364 q 1297 380 1294 368 q 1306 401 1299 392 l 1307 403 m 914 743 q 897 741 907 738 q 885 733 886 744 l 890 732 q 906 733 894 735 q 915 743 918 731 l 914 743 m 922 711 q 902 710 914 708 q 888 703 890 713 q 892 699 888 699 q 900 699 897 700 q 916 699 907 700 q 922 711 925 699 m 942 665 l 942 672 q 905 678 926 675 q 876 667 883 681 l 942 665 m 949 624 q 935 634 944 631 q 915 638 926 638 q 895 635 906 638 q 879 629 885 633 l 949 624 m 1254 269 q 1253 287 1258 285 q 1240 285 1247 289 q 1228 272 1233 281 q 1228 258 1224 264 q 1247 250 1233 250 q 1254 269 1257 260 m 993 557 q 976 584 989 574 q 947 597 963 594 q 916 594 932 600 q 892 571 900 588 q 891 532 885 551 q 910 501 897 513 q 935 490 921 494 q 960 493 949 486 q 989 517 979 500 q 993 557 999 535 m 788 613 l 788 621 q 763 623 776 628 q 740 617 750 618 q 763 609 749 608 q 789 613 778 610 l 788 613 m 1017 408 q 997 434 1013 425 q 964 442 982 443 q 940 417 949 433 q 939 382 932 400 q 958 365 946 368 q 982 360 971 363 q 1010 377 1001 361 q 1018 410 1018 393 l 1017 408 m 1040 286 q 1031 299 1039 294 q 1014 301 1024 303 q 999 290 1003 301 q 996 268 994 279 q 1007 255 999 258 q 1026 253 1015 251 q 1039 267 1033 260 q 1042 286 1044 275 l 1040 286 m 774 569 q 747 581 765 583 q 723 547 728 567 q 721 504 718 528 q 731 494 726 499 q 744 492 736 489 q 771 524 764 503 q 775 568 778 544 l 774 569 m 731 431 q 724 440 729 436 q 711 440 718 443 q 699 433 703 439 q 694 421 696 428 q 693 406 693 414 q 692 393 693 399 q 698 380 692 386 q 713 376 704 374 q 727 401 721 389 q 731 431 733 414 m 432 1057 q 363 1031 393 1056 q 307 1024 336 1019 q 257 1044 278 1028 q 232 1025 247 1031 q 200 1020 217 1019 q 167 1026 183 1021 q 138 1038 150 1031 q 98 1051 122 1049 q 65 1044 74 1054 q 139 946 107 997 q 197 840 171 894 q 247 731 224 786 q 294 621 271 675 q 307 688 304 653 q 308 758 310 722 q 303 829 307 794 q 299 896 300 864 q 315 853 304 874 q 324 811 325 832 l 317 811 l 317 804 l 328 804 q 338 791 336 799 q 343 776 340 783 l 319 769 q 322 759 318 761 q 331 758 326 757 q 341 763 336 760 q 346 765 346 765 l 418 629 l 425 629 q 409 843 406 738 q 432 1057 413 949 m 349 732 q 335 737 344 736 q 325 729 325 738 q 338 724 329 722 q 349 732 347 725 m 357 699 q 324 699 340 708 q 340 693 331 688 q 357 699 350 699 m 372 661 q 368 668 372 665 q 355 668 363 667 q 339 669 347 669 q 327 667 332 669 q 321 658 322 665 l 372 661 m 392 621 l 392 629 q 351 633 374 631 q 317 622 328 636 l 392 621 m 682 282 q 674 293 678 293 q 666 288 669 293 q 660 274 663 282 q 657 263 657 267 q 675 256 663 253 q 681 267 678 261 q 682 282 685 274 m 436 568 q 411 594 428 586 q 375 603 394 603 q 356 592 365 599 q 343 575 346 586 q 342 535 333 556 q 364 503 350 515 q 394 499 379 496 q 421 513 410 501 q 438 538 429 525 q 436 567 446 551 l 436 568 m 457 421 q 433 444 446 435 q 401 444 419 454 q 381 400 381 428 q 399 374 385 383 q 432 368 414 365 q 455 389 449 372 q 458 422 461 406 l 457 421 m 485 274 q 481 292 488 285 q 460 296 474 300 q 445 283 451 290 q 440 265 439 276 q 451 253 443 257 q 469 251 460 250 q 483 260 476 254 q 486 275 489 267 l 485 274 z "},"X":{"ha":1121,"x_min":-3,"x_max":1068,"o":"m 1068 993 q 1047 1044 1061 1021 q 1017 1092 1032 1068 q 976 1099 997 1100 q 935 1094 956 1099 q 892 1084 914 1090 q 850 1076 871 1078 q 829 1094 840 1083 q 807 1107 818 1104 q 762 1080 785 1079 q 715 1089 739 1081 q 668 1103 692 1097 q 619 1092 644 1108 q 632 997 633 1044 q 624 900 631 949 q 604 862 615 881 q 578 833 593 843 q 566 922 560 878 q 583 1010 572 965 l 506 1100 q 450 1105 478 1113 q 395 1089 422 1097 q 342 1081 368 1081 q 292 1111 315 1082 q 243 1081 268 1081 q 192 1090 218 1081 q 140 1108 167 1100 q 83 1103 113 1117 q 71 1099 78 1100 q 57 1098 64 1099 q 46 1093 50 1097 q 43 1081 42 1089 q 248 845 160 972 q 396 579 336 718 q 316 456 357 517 q 226 335 275 394 q 201 302 214 319 q 171 272 188 285 q 135 250 154 258 q 94 244 117 242 q 71 260 79 246 q 56 286 63 275 q 26 276 36 290 q 6 249 17 261 q 1 188 -3 217 q 18 135 6 160 q 50 87 31 110 q 92 44 69 64 q 101 39 96 40 q 113 36 107 38 q 123 32 118 35 q 129 22 128 29 q 224 6 174 -1 q 314 40 275 13 q 363 13 338 25 q 418 0 389 1 q 483 17 453 3 q 532 61 513 31 l 611 11 q 710 6 660 -4 q 796 47 760 15 l 851 14 q 947 5 900 -3 q 1031 51 994 13 q 1053 104 1042 78 q 1051 161 1064 131 q 1033 201 1044 179 q 1006 241 1021 222 q 972 272 990 260 q 931 286 953 285 l 932 282 q 908 252 925 265 q 871 247 890 239 q 749 393 799 313 q 664 557 700 474 q 844 793 744 681 q 1068 993 943 906 m 999 1081 q 897 978 950 1031 q 792 869 843 925 q 695 752 740 813 q 617 629 650 692 l 615 603 q 714 419 660 508 q 839 247 768 331 q 872 231 854 238 q 913 228 890 225 l 947 268 q 977 228 968 253 q 976 179 986 204 q 950 138 969 154 q 906 113 931 122 q 855 114 878 108 q 811 131 832 119 q 771 157 790 142 q 732 188 751 172 q 695 153 717 171 q 653 124 674 135 q 594 121 622 121 q 540 132 568 121 q 499 172 517 147 q 490 225 481 196 q 506 233 497 235 q 523 226 514 231 q 542 220 532 222 q 560 228 551 218 q 577 283 581 257 q 559 333 574 308 q 524 380 544 357 q 490 426 504 403 q 481 435 486 429 q 468 438 475 440 q 427 394 447 417 q 393 349 407 372 q 374 299 379 325 q 375 244 368 272 q 394 224 381 229 q 424 221 408 218 q 436 232 431 225 q 453 236 442 239 q 453 168 469 201 q 411 132 433 146 q 360 119 389 118 q 299 139 328 126 q 250 179 269 151 q 213 149 233 163 q 170 126 192 135 q 126 117 149 118 q 81 126 103 117 q 47 151 60 133 q 25 188 33 169 q 22 219 18 203 q 32 247 25 235 q 47 257 40 260 q 59 247 53 254 q 72 232 65 240 q 89 225 79 224 q 165 245 132 222 q 226 301 199 268 q 277 372 253 335 q 329 438 301 410 q 358 489 338 464 q 396 539 379 514 q 416 591 413 564 q 393 647 419 618 q 248 872 325 761 q 76 1082 171 983 q 132 1088 104 1094 q 186 1074 160 1082 q 238 1064 213 1065 q 288 1085 263 1063 q 338 1067 313 1068 q 389 1069 363 1065 q 442 1080 415 1074 q 496 1083 468 1086 q 481 1003 483 1044 q 485 922 478 963 q 508 845 492 882 q 554 779 525 808 q 612 840 592 804 q 640 915 632 875 q 649 999 649 956 q 647 1081 650 1042 q 687 1080 667 1085 q 726 1070 707 1075 q 765 1065 746 1065 q 803 1081 785 1065 q 850 1061 826 1061 q 898 1067 874 1061 q 947 1080 922 1074 q 997 1081 972 1086 l 999 1081 m 558 282 q 543 244 556 260 q 524 247 532 243 q 508 254 515 251 q 493 255 500 257 q 478 240 486 253 l 467 251 l 524 331 q 547 311 543 328 q 558 282 550 294 m 942 1054 q 893 1043 915 1056 q 847 1040 869 1038 q 804 1054 824 1043 q 770 1040 788 1040 q 735 1043 753 1039 q 700 1053 718 1047 q 665 1058 682 1060 q 654 880 679 965 q 554 739 629 794 q 466 889 488 803 q 460 1063 444 975 q 417 1054 439 1061 q 375 1043 396 1047 q 334 1042 354 1039 q 296 1063 314 1044 q 272 1047 285 1054 q 244 1036 258 1039 q 217 1035 231 1033 q 192 1049 203 1038 q 174 1054 183 1050 q 157 1062 165 1058 q 140 1065 149 1065 q 128 1057 133 1065 q 278 858 207 960 q 414 647 350 756 q 403 767 417 707 q 379 882 389 828 q 392 863 385 871 q 392 843 400 854 l 399 843 q 453 764 418 806 q 526 688 488 722 q 544 683 536 681 q 558 690 551 686 q 572 694 565 693 q 588 685 579 694 q 587 691 589 689 q 582 694 585 693 q 576 697 579 694 q 575 703 574 699 q 586 719 581 710 q 603 722 592 728 q 658 807 626 767 q 717 892 690 847 l 724 892 q 691 828 711 858 q 651 768 671 799 q 613 706 631 738 q 588 639 596 674 q 663 747 624 692 q 745 857 701 803 q 838 961 789 911 q 942 1054 888 1011 m 443 750 l 443 757 l 425 757 l 425 750 l 443 750 m 467 722 q 464 726 465 725 q 463 731 463 728 q 445 731 451 732 q 429 725 439 731 q 448 718 436 717 q 468 722 460 719 l 467 722 m 499 693 q 483 700 492 700 q 469 699 476 700 q 453 696 461 697 q 438 700 444 694 l 435 689 q 469 689 454 690 q 499 694 483 688 l 499 693 m 560 660 l 560 664 l 442 668 l 442 653 l 560 660 m 560 625 l 560 633 l 461 633 q 481 623 469 625 q 505 622 492 621 q 532 624 518 622 q 558 625 546 625 l 560 625 m 561 567 q 535 595 553 586 q 497 604 517 604 q 469 579 478 597 q 463 540 460 561 q 488 509 471 522 q 526 503 506 496 q 556 529 543 514 q 561 567 568 544 m 663 396 q 648 420 660 410 q 621 429 636 431 q 594 413 603 428 q 588 381 586 397 q 602 360 590 368 q 625 351 614 353 q 653 367 640 356 q 664 396 667 378 l 663 396 m 713 261 q 699 276 710 271 q 682 269 689 281 q 682 244 674 256 q 706 236 690 233 q 713 247 713 240 q 713 261 713 254 m 400 433 q 388 441 396 443 q 374 440 381 439 q 347 393 347 422 q 356 383 349 385 q 371 382 364 381 q 392 404 386 389 q 400 435 399 419 l 400 433 m 311 276 q 308 288 313 283 q 297 290 304 292 q 284 278 290 286 q 279 258 278 269 q 283 249 276 251 q 296 247 289 246 q 307 260 300 254 q 311 278 314 267 l 311 276 z "},"Y":{"ha":1104,"x_min":1,"x_max":1053,"o":"m 1051 1014 l 999 1097 q 938 1111 967 1115 q 880 1099 908 1107 q 824 1087 851 1090 q 768 1104 796 1083 q 718 1085 743 1083 q 667 1094 693 1086 q 613 1108 640 1103 q 557 1100 585 1114 l 594 1025 q 615 954 611 992 q 612 879 618 917 q 592 806 606 842 q 560 743 578 771 q 544 794 547 765 q 543 852 540 822 q 555 910 546 882 q 576 961 564 938 q 576 998 582 981 q 560 1032 571 1015 q 538 1065 550 1049 q 517 1097 525 1081 q 434 1098 475 1103 q 361 1069 393 1093 q 331 1068 346 1065 q 303 1077 317 1071 q 276 1090 290 1083 q 249 1101 263 1097 q 190 1069 219 1068 q 131 1082 161 1071 q 68 1102 100 1093 q 1 1093 36 1111 q 6 1079 1 1086 q 7 1063 10 1072 q 193 860 110 964 q 335 642 276 757 q 365 545 351 599 q 382 437 379 492 q 374 330 385 382 q 332 239 364 278 q 317 233 324 231 q 302 240 310 235 q 287 249 294 244 q 271 253 279 254 q 258 226 260 242 q 256 192 256 210 q 274 136 260 163 q 307 87 288 110 q 349 44 326 64 q 396 8 372 24 q 488 4 442 -6 q 568 50 535 14 q 651 10 606 22 q 744 8 696 -3 q 787 35 769 14 q 817 75 804 56 q 822 138 831 110 q 792 190 813 167 q 745 235 772 214 q 696 275 718 256 q 696 489 671 389 q 776 679 721 589 q 906 852 832 769 q 1053 1014 981 935 l 1051 1014 m 958 1089 q 860 963 913 1026 q 760 834 808 900 q 672 699 713 768 q 612 557 632 631 q 596 405 592 483 q 639 240 600 326 q 669 218 651 229 q 706 222 688 207 l 721 235 q 736 199 736 221 q 728 163 736 176 q 702 132 717 143 q 668 114 688 121 q 578 120 622 107 q 506 176 533 133 q 505 186 508 183 q 499 192 501 189 q 446 135 481 160 q 371 110 411 110 q 315 126 340 110 q 275 171 290 143 l 275 222 q 331 224 303 215 q 371 264 360 233 q 390 326 386 293 q 394 394 394 360 q 392 466 394 431 q 389 535 389 501 q 331 686 369 614 q 243 825 293 758 q 135 954 193 892 q 19 1078 78 1017 q 83 1084 51 1093 q 143 1064 114 1075 q 200 1051 172 1053 q 253 1082 228 1050 q 306 1056 276 1064 q 365 1051 336 1049 q 428 1081 394 1069 q 496 1086 461 1093 q 475 972 483 1033 q 479 853 467 911 q 511 772 496 813 q 556 699 526 731 q 606 788 588 738 q 628 892 624 839 q 622 998 632 946 q 589 1093 613 1050 q 638 1090 614 1099 q 683 1074 661 1082 q 727 1066 706 1067 q 771 1089 749 1065 q 815 1066 793 1065 q 860 1074 838 1067 q 908 1090 883 1082 q 957 1089 932 1097 l 958 1089 m 897 1060 q 881 1058 888 1063 q 867 1051 874 1054 q 819 1042 843 1044 q 776 1060 796 1040 q 738 1041 757 1042 q 697 1047 718 1040 q 656 1061 676 1053 q 614 1068 635 1069 q 644 964 639 1019 q 640 854 650 908 q 606 751 629 800 q 549 664 582 701 q 489 749 513 701 q 454 849 465 797 q 445 956 443 901 q 464 1063 447 1010 q 410 1052 433 1067 q 365 1029 388 1038 q 307 1028 338 1022 q 256 1057 276 1033 q 213 1029 236 1032 q 163 1033 189 1026 q 112 1050 138 1040 q 64 1060 86 1060 q 249 850 163 958 q 389 618 336 742 q 369 778 386 701 q 335 928 351 854 q 349 900 340 914 q 364 872 357 886 q 376 844 371 858 q 381 814 382 829 l 375 818 l 375 803 q 384 800 379 796 q 392 807 389 804 q 410 778 399 793 q 419 749 422 764 q 401 752 410 756 q 389 742 392 749 q 407 741 396 744 q 421 749 418 738 q 451 715 438 733 q 481 679 465 696 q 513 650 496 663 q 554 633 531 638 q 608 701 588 664 q 645 777 629 738 q 676 856 661 817 q 715 932 692 896 l 724 931 q 697 858 713 894 q 666 786 681 822 q 639 715 651 750 q 621 643 626 679 q 674 754 643 700 q 742 860 706 808 q 818 962 779 913 q 896 1058 857 1011 l 897 1060 m 601 640 q 596 643 600 643 q 590 643 593 643 l 590 628 l 593 628 q 600 633 596 631 q 603 639 604 635 l 601 640 m 583 601 l 583 604 q 575 609 581 611 q 572 601 569 607 l 583 601 m 396 769 l 396 781 q 384 780 389 785 q 379 769 379 775 l 396 769 m 433 714 l 433 717 q 415 719 424 725 q 396 717 407 714 l 396 708 q 414 710 406 714 q 433 714 422 706 m 456 688 l 456 694 q 426 695 443 692 q 403 683 410 699 l 456 688 m 467 661 q 437 667 453 674 q 406 661 421 661 q 433 656 414 656 q 467 661 454 656 m 493 639 q 470 641 483 639 q 443 643 457 643 q 421 640 431 643 q 407 631 411 638 q 453 630 428 633 q 493 638 478 626 l 493 639 m 508 606 l 508 614 q 458 613 485 617 q 403 606 431 608 q 454 603 426 603 q 508 606 483 603 m 557 554 q 530 584 550 575 q 490 594 510 593 q 436 550 447 590 q 436 508 432 529 q 463 474 440 486 q 481 469 471 472 q 502 463 492 465 q 522 464 513 461 q 538 478 531 467 q 558 514 551 494 q 558 554 565 533 l 557 554 m 536 389 q 520 419 535 408 q 486 429 506 429 q 459 412 471 426 q 450 381 447 397 q 472 351 453 361 q 506 347 490 342 q 536 388 532 360 l 536 389 m 521 240 q 517 258 524 253 q 500 263 510 263 q 482 258 490 263 q 474 243 474 253 q 482 225 476 233 q 500 217 488 217 q 514 225 506 222 q 521 239 522 228 l 521 240 z "},"Z":{"ha":1008,"x_min":-3,"x_max":967,"o":"m 949 1 q 859 49 904 40 q 768 49 814 57 q 676 26 722 42 q 584 2 631 11 q 492 -3 538 -7 q 401 33 446 1 l 324 88 q 238 29 288 49 q 136 31 189 10 q 35 106 74 54 q 0 225 -3 158 q 44 281 13 260 q 53 276 51 281 q 56 267 56 272 q 58 256 57 261 q 67 249 60 250 q 108 272 90 256 q 142 308 126 288 q 172 350 158 328 q 199 392 185 372 q 265 503 228 449 q 336 613 301 557 q 399 726 371 668 q 439 849 426 783 q 424 858 432 856 q 406 860 415 861 q 387 858 396 860 q 371 856 378 857 q 332 813 340 842 q 331 757 324 785 q 342 726 338 743 q 340 693 346 710 q 294 669 321 674 q 243 668 267 665 q 188 701 214 681 q 141 747 161 721 q 108 802 121 772 q 92 864 94 832 q 99 924 89 894 q 117 983 108 954 q 124 1042 125 1013 q 100 1099 122 1071 q 152 1103 128 1111 q 199 1086 176 1096 q 245 1073 222 1076 q 294 1089 268 1069 q 354 1107 321 1101 q 421 1110 388 1113 q 486 1100 454 1108 q 544 1079 518 1092 q 592 1080 569 1068 q 632 1110 614 1092 q 644 1108 640 1111 q 652 1099 649 1104 q 660 1088 656 1093 q 671 1081 664 1082 q 725 1076 700 1069 q 774 1092 750 1083 q 824 1103 799 1100 q 878 1090 849 1107 q 919 1053 906 1075 q 947 1007 933 1032 q 705 675 813 844 q 535 314 597 506 q 531 290 535 304 q 524 263 526 276 q 526 240 522 250 q 546 229 531 231 q 606 238 579 226 q 657 269 633 250 q 633 327 639 294 q 638 390 626 360 q 665 428 646 413 q 704 453 685 443 q 758 458 733 463 q 804 440 782 453 q 847 408 826 426 q 888 374 868 390 q 908 342 897 358 q 925 308 918 325 q 934 272 932 290 q 929 236 936 254 l 896 172 q 944 99 921 138 q 958 8 967 60 l 949 1 m 856 1081 q 774 1080 811 1092 q 696 1063 736 1068 q 674 1067 685 1061 q 654 1078 664 1072 q 636 1085 644 1083 q 619 1075 628 1086 q 567 1064 593 1061 q 514 1074 540 1067 q 376 1091 447 1097 q 243 1054 304 1085 q 185 1078 214 1065 q 125 1083 157 1090 l 126 1072 q 142 1019 144 1046 q 132 967 140 993 q 115 913 124 940 q 111 856 107 885 q 136 812 121 832 q 179 785 151 792 q 233 784 207 778 q 279 803 258 790 q 283 817 286 810 q 272 829 279 825 q 270 882 269 854 q 290 928 271 910 q 343 960 311 957 q 407 958 375 964 q 445 924 432 947 q 461 874 458 901 q 426 753 450 811 q 372 642 403 696 q 307 535 342 588 q 239 428 272 482 q 207 374 222 401 q 174 322 192 347 q 136 274 157 297 q 88 233 115 251 q 72 228 79 226 q 57 233 64 229 q 44 242 50 238 q 29 249 38 247 q 15 219 18 236 q 19 186 13 201 q 58 146 35 163 q 110 131 82 129 q 161 136 133 133 q 208 160 189 139 q 237 189 226 171 q 265 211 247 207 q 348 145 300 165 q 449 122 396 125 q 556 127 501 118 q 657 150 610 136 q 749 153 701 163 q 833 133 797 143 q 822 188 838 163 q 781 233 806 214 q 785 255 778 246 q 801 273 792 264 q 819 292 811 282 q 825 314 826 301 q 826 342 825 328 q 826 369 826 356 q 819 394 825 382 q 800 417 814 406 q 756 438 781 432 q 708 435 732 443 q 672 413 690 426 q 650 376 653 400 q 650 319 639 344 q 678 269 661 293 q 641 239 664 246 q 597 218 618 232 q 561 213 581 215 q 522 211 542 210 q 485 220 503 213 q 457 247 468 228 q 445 294 443 267 q 450 343 447 321 q 567 632 494 494 q 731 900 640 769 q 760 947 743 924 q 794 992 776 969 q 828 1035 813 1014 q 856 1081 844 1057 m 819 1065 q 674 854 740 963 q 550 633 608 746 l 543 633 q 558 769 547 701 q 571 900 569 838 q 500 758 543 828 q 394 639 457 689 q 430 710 410 674 q 465 785 450 747 q 481 863 479 824 q 463 944 483 903 q 410 982 439 968 q 346 989 381 996 q 295 968 319 985 q 260 926 271 951 q 244 892 243 914 q 248 851 246 871 q 243 817 250 831 q 201 808 236 804 q 166 817 182 806 q 139 844 150 828 q 139 901 132 874 q 154 956 146 929 q 163 1011 163 983 q 144 1067 164 1039 q 193 1056 169 1069 q 239 1029 217 1043 q 312 1059 272 1049 q 393 1071 351 1069 q 475 1065 435 1072 q 550 1039 515 1057 q 633 1061 596 1035 q 685 1038 656 1046 q 740 1043 714 1031 q 778 1061 760 1050 q 819 1065 797 1072 m 524 775 l 524 781 l 549 781 l 549 775 l 524 775 m 506 743 l 506 750 l 544 750 l 544 743 l 506 743 m 485 710 l 485 717 l 538 717 l 538 710 l 485 710 m 463 681 l 463 688 l 533 688 l 533 681 l 463 681 m 439 651 l 439 660 l 525 660 l 525 651 l 439 651 m 479 578 q 475 533 485 554 q 442 506 465 513 q 397 512 417 497 q 368 550 376 526 q 378 585 365 571 q 406 608 392 600 q 449 610 425 617 q 479 579 474 603 l 479 578 m 389 400 q 385 374 396 385 q 364 356 375 363 q 310 383 325 349 q 309 413 300 399 q 332 435 318 426 q 369 430 351 438 q 390 401 388 422 l 389 400 m 300 271 q 290 244 304 256 q 272 245 282 246 q 261 256 263 244 q 271 286 258 278 q 288 283 282 289 q 300 269 294 276 l 300 271 z "},"":{"ha":739,"x_min":13,"x_max":707,"o":"m 113 113 l 285 242 l 244 29 l 344 221 l 399 13 l 406 228 l 546 64 l 458 261 l 656 174 l 492 314 l 707 321 l 499 375 l 690 475 l 478 435 l 607 607 l 435 478 l 475 690 l 375 499 l 321 707 l 314 492 l 174 656 l 261 458 l 64 546 l 228 406 l 13 399 l 221 344 l 29 244 l 242 285 l 113 113 l 113 113 z "},"a":{"ha":1189,"x_min":-6,"x_max":1132,"o":"m 1132 126 q 1119 67 1129 97 q 1076 25 1108 38 q 1015 6 1047 8 q 953 11 983 4 q 894 33 922 18 q 840 64 865 47 q 807 37 824 50 q 772 15 790 24 q 731 2 753 6 q 683 6 708 -1 q 617 40 644 14 q 558 92 590 65 q 526 42 549 65 q 476 8 503 19 q 392 15 432 -1 q 319 57 353 32 q 265 16 296 31 q 197 -1 233 1 q 131 21 163 1 q 73 68 99 40 q 28 128 47 96 q 0 192 10 161 q 4 231 -6 210 q 26 267 14 251 q 42 277 36 279 q 54 267 49 275 q 65 251 60 260 q 82 243 71 243 q 143 281 119 256 q 183 337 167 306 q 213 402 200 368 q 243 465 226 436 q 303 775 283 614 q 300 1100 324 936 q 340 1112 321 1113 q 379 1104 360 1111 q 417 1088 399 1097 q 453 1076 435 1079 q 488 1080 471 1074 q 524 1110 506 1086 q 549 1097 538 1111 q 574 1078 560 1083 q 618 1079 596 1074 q 662 1092 640 1085 q 705 1102 683 1099 q 750 1099 726 1106 q 810 1038 782 1071 q 854 967 839 1004 q 861 605 829 786 q 976 269 893 424 l 1003 249 q 1017 265 1008 258 q 1038 267 1026 271 q 1098 203 1069 238 q 1132 126 1126 169 m 1038 181 q 1040 213 1043 196 q 1026 240 1038 231 q 981 217 1008 218 q 928 237 953 222 q 889 278 904 251 q 754 660 788 458 q 733 1081 721 861 q 682 1080 706 1090 q 635 1060 658 1069 q 578 1058 607 1053 q 532 1088 550 1063 q 510 1071 521 1079 q 488 1061 500 1063 q 441 1060 464 1053 q 397 1078 418 1067 q 378 1083 389 1079 q 356 1088 367 1086 q 337 1087 346 1089 q 324 1076 328 1085 q 317 689 351 882 q 207 326 282 496 q 183 293 196 313 q 156 257 171 274 q 123 231 142 240 q 79 228 104 221 q 58 238 71 235 q 44 256 44 240 q 35 245 39 253 q 22 239 31 238 q 17 211 15 224 q 24 188 18 199 q 37 165 29 176 q 49 140 44 153 q 102 123 72 125 q 160 126 132 121 q 208 158 188 136 q 243 206 228 181 q 258 201 253 207 q 268 188 264 196 q 276 170 272 179 q 289 157 281 161 q 344 126 310 133 q 411 126 379 118 q 457 172 442 140 q 464 210 468 189 q 449 243 460 232 l 431 229 q 408 226 418 224 q 388 236 397 229 q 372 252 379 243 q 357 269 364 261 q 348 394 340 329 q 394 507 356 458 q 441 538 414 531 q 499 549 468 546 q 551 523 528 546 q 590 475 575 500 q 612 420 604 450 q 619 358 619 390 q 610 298 619 328 q 583 244 601 268 q 567 234 576 235 q 549 235 558 233 q 531 236 539 236 q 517 229 522 236 q 519 189 518 211 q 535 153 519 167 q 592 119 558 124 q 663 122 625 115 q 712 153 694 128 q 746 201 729 178 q 835 139 789 167 q 938 115 881 111 q 998 133 969 118 q 1038 181 1026 147 m 593 401 q 567 428 588 422 q 528 426 547 433 q 489 400 504 418 q 467 360 474 382 q 463 326 465 343 q 463 292 461 308 q 472 262 464 275 q 496 240 479 249 q 509 257 501 253 q 525 260 517 261 q 543 257 533 260 q 564 256 553 254 q 590 283 582 265 q 598 319 597 300 q 596 360 599 339 q 592 400 593 381 l 593 401 m 650 774 q 644 771 649 775 l 636 779 l 644 785 q 650 782 649 781 l 650 774 m 656 761 q 648 756 653 754 q 639 754 643 757 l 640 763 q 648 763 643 761 q 656 760 653 764 l 656 761 m 669 739 q 653 734 663 733 q 636 735 644 735 l 636 744 q 654 745 644 742 q 669 738 664 749 l 669 739 m 675 711 q 629 711 651 704 q 640 714 633 711 q 652 718 646 717 q 665 719 658 719 q 674 711 671 718 l 675 711 m 736 651 q 692 723 710 683 q 660 803 674 763 l 633 807 l 653 822 q 645 832 650 829 q 637 836 640 835 q 633 839 633 838 q 640 850 633 842 q 631 860 632 854 q 629 874 629 867 q 628 886 629 881 q 622 894 628 892 l 619 693 q 638 689 628 688 q 656 692 647 690 q 674 693 665 693 q 690 685 682 693 q 655 677 675 676 q 619 682 635 678 q 569 619 601 644 q 493 594 538 594 q 435 610 461 594 q 394 651 410 626 l 382 719 q 375 717 378 715 l 376 722 q 382 719 378 724 q 400 821 389 769 q 401 921 411 872 q 383 806 396 861 q 360 692 369 750 q 372 692 363 690 q 379 682 382 693 q 369 680 374 674 q 358 686 365 686 q 353 675 356 681 q 351 663 350 669 l 379 660 l 378 651 q 361 652 369 651 q 351 664 353 653 q 340 644 343 656 q 329 628 338 633 l 321 636 q 341 743 336 688 q 346 854 346 799 q 345 967 346 911 q 349 1072 344 1022 q 394 1062 371 1071 q 442 1047 418 1053 q 487 1044 465 1042 q 528 1069 508 1047 q 574 1043 550 1046 q 622 1046 597 1040 q 669 1060 646 1051 q 717 1071 693 1069 q 716 858 710 960 q 736 651 722 756 m 703 654 q 656 651 683 651 q 614 660 629 650 q 657 667 633 665 q 703 663 681 669 l 703 656 l 703 654 m 713 626 q 655 620 683 624 q 594 619 626 617 l 594 625 q 655 630 626 631 q 714 632 683 629 l 714 626 l 713 626 m 731 513 q 694 490 718 489 q 650 494 671 490 q 624 528 631 506 q 624 575 617 551 q 644 597 631 589 q 673 605 657 604 q 703 601 689 606 q 726 586 718 596 q 740 549 739 571 q 731 513 740 528 m 754 411 q 751 382 757 396 q 731 361 746 368 q 701 367 713 356 q 682 390 689 379 q 683 420 679 406 q 703 438 688 435 q 733 433 719 444 q 753 410 746 422 l 754 411 m 356 621 l 356 633 l 386 628 l 386 621 l 356 621 m 764 260 q 760 238 767 249 q 743 228 754 228 q 726 231 732 225 q 713 243 719 238 q 719 263 713 253 q 736 275 725 274 q 753 272 746 278 q 763 260 760 267 l 764 260 m 385 572 q 376 528 388 549 q 346 499 364 508 q 324 513 332 501 q 314 536 317 525 q 324 572 313 556 q 353 594 336 588 q 365 597 361 599 q 372 590 369 594 q 377 581 375 586 q 383 571 379 575 l 385 572 m 338 432 q 333 401 340 415 q 313 378 326 386 q 299 381 301 372 q 296 397 296 390 q 301 427 299 413 q 317 449 304 442 q 331 445 325 451 q 339 432 338 439 l 338 432 m 289 275 q 288 256 290 265 q 275 244 285 247 q 260 251 268 250 q 250 263 253 251 q 253 277 247 274 q 265 288 258 281 q 289 275 281 288 m 540 661 q 557 731 558 696 q 546 799 556 765 q 522 867 536 833 q 499 935 507 901 l 486 935 l 426 783 q 419 747 422 767 q 418 707 417 726 q 428 672 419 688 q 457 646 438 656 q 501 642 478 640 q 540 661 525 644 m 506 661 q 467 665 488 656 q 440 694 447 674 q 442 747 438 722 q 453 795 446 772 q 471 840 461 818 q 490 885 481 863 l 499 885 q 517 828 504 858 q 538 769 531 799 q 541 711 546 739 q 506 661 536 683 z "},"b":{"ha":1008,"x_min":-3,"x_max":961,"o":"m 938 189 q 845 74 906 122 q 714 8 785 25 q 695 8 706 6 q 683 0 685 11 q 589 -7 639 -3 q 499 0 539 -11 q 488 7 496 8 q 472 8 479 6 q 413 37 444 24 q 356 74 382 50 q 338 73 344 76 q 325 63 331 69 q 314 48 319 56 q 300 36 308 40 q 270 22 286 28 q 242 8 254 15 q 196 7 219 10 q 156 15 172 4 q 97 44 125 25 q 49 89 69 64 q 15 144 28 114 q 1 208 3 175 q 6 226 6 217 q 8 247 6 238 q 15 265 10 257 q 33 274 21 272 q 42 265 39 269 q 49 255 46 260 q 57 247 53 250 q 68 244 61 244 q 91 264 83 247 q 107 293 99 281 q 138 483 133 383 q 131 679 143 583 q 117 748 119 713 q 99 814 114 783 q 94 844 103 832 q 88 874 86 857 q 47 971 69 924 q 1 1065 25 1018 q 8 1083 -3 1081 q 29 1086 18 1085 q 103 1076 65 1083 q 176 1054 142 1068 q 211 1063 197 1051 q 236 1088 225 1075 q 258 1076 247 1083 q 279 1064 268 1069 q 301 1056 290 1058 q 325 1058 313 1054 q 424 1094 374 1078 q 532 1113 475 1110 q 561 1106 546 1106 q 594 1103 578 1106 q 719 1060 658 1090 q 821 978 779 1031 q 874 914 850 949 q 910 841 897 879 q 925 761 924 803 q 913 676 926 719 q 877 613 897 644 q 832 557 857 581 q 833 547 831 550 q 840 540 836 543 q 849 535 844 538 q 856 529 853 533 q 910 456 885 496 q 948 372 935 415 q 960 281 961 328 q 938 189 958 235 m 871 328 q 860 467 888 403 q 769 575 832 531 q 756 585 764 581 q 741 592 749 589 q 727 601 733 596 q 719 615 721 606 q 742 636 729 629 q 764 658 756 643 q 784 676 776 665 q 797 699 792 686 q 807 724 803 711 q 817 749 811 736 q 827 820 824 785 q 818 892 831 856 q 789 962 810 931 q 739 1016 768 993 q 675 1053 710 1039 q 604 1075 640 1068 q 590 1076 597 1078 q 578 1082 583 1075 q 528 1081 553 1081 q 479 1082 503 1082 q 413 1071 446 1074 q 381 1058 397 1065 q 347 1044 364 1050 q 313 1038 331 1039 q 281 1042 296 1036 q 260 1052 269 1046 q 240 1060 251 1058 q 205 1033 224 1038 q 167 1034 186 1029 q 126 1048 147 1039 q 88 1061 106 1057 q 72 1063 81 1061 q 54 1065 63 1064 q 39 1065 46 1067 q 28 1056 32 1064 q 61 982 49 1019 q 139 751 114 874 q 160 503 164 629 q 146 355 157 428 q 86 224 135 282 q 58 224 71 217 q 32 235 44 232 q 26 209 22 224 q 31 183 31 194 q 68 139 43 153 q 124 121 93 125 q 180 130 154 118 q 224 161 206 142 q 237 174 232 165 q 246 192 242 183 q 257 205 250 200 q 276 208 264 210 q 326 172 299 186 q 381 146 353 157 q 412 135 396 139 q 443 124 428 131 q 561 111 501 113 q 679 129 621 110 q 801 203 747 151 q 871 328 856 256 m 732 778 q 722 777 728 778 q 715 783 715 776 q 718 790 714 788 q 727 792 722 793 q 734 788 732 792 q 732 778 736 785 m 724 744 q 717 743 718 746 q 717 738 717 740 q 716 735 717 736 q 710 739 715 735 q 707 749 707 742 q 714 756 707 756 q 722 752 717 753 q 724 744 728 751 m 706 679 q 699 671 708 674 q 686 670 692 672 q 675 678 681 668 q 678 684 672 682 q 688 688 683 686 q 697 685 692 685 q 706 681 703 685 l 706 679 m 808 872 q 808 807 811 840 q 794 746 804 774 q 778 712 783 731 q 757 678 772 693 q 731 656 743 665 q 703 642 718 646 q 705 659 700 649 q 714 679 710 669 q 717 697 718 689 q 697 706 715 704 q 699 710 696 708 q 703 714 701 713 q 716 710 711 713 q 714 699 721 708 q 723 708 724 699 q 725 725 722 718 q 737 787 735 751 q 719 846 739 822 q 712 814 713 832 q 707 781 711 796 q 688 722 699 751 q 656 669 676 693 q 649 654 643 656 q 666 653 656 653 q 683 653 676 654 q 679 639 689 651 q 646 639 661 635 q 642 644 643 642 q 638 650 642 647 q 624 640 629 643 q 613 629 619 636 q 624 624 618 624 q 637 625 631 624 q 649 626 643 626 q 660 617 656 625 q 651 606 657 608 q 636 603 644 603 q 620 604 629 603 q 606 606 611 606 q 603 610 601 607 q 604 618 604 614 q 569 609 586 617 q 536 597 553 601 q 412 603 474 583 q 311 671 350 622 q 298 694 303 682 q 282 717 293 707 q 267 716 275 718 q 253 712 260 714 q 241 711 246 710 q 236 724 236 713 q 254 726 244 731 q 272 726 264 722 q 274 740 275 733 q 271 750 272 746 q 254 749 264 751 q 242 754 244 747 q 247 762 243 760 q 256 767 251 764 q 262 774 260 769 q 261 788 264 779 q 253 786 258 790 q 246 790 249 782 q 251 799 244 796 q 256 796 254 794 q 260 800 257 797 q 256 823 260 813 q 250 844 251 833 q 238 824 239 840 q 235 796 236 808 q 223 739 228 765 q 208 685 218 713 q 197 646 201 665 q 181 611 192 626 q 174 631 169 618 q 172 654 178 643 q 133 851 157 753 q 61 1038 110 949 q 67 1046 61 1047 q 106 1035 85 1043 q 150 1023 128 1028 q 193 1020 172 1018 q 231 1039 214 1022 q 247 1037 240 1040 q 261 1029 254 1033 q 276 1021 268 1025 q 292 1017 283 1017 q 332 1019 313 1015 q 369 1030 351 1024 q 403 1044 386 1036 q 440 1056 421 1051 q 480 1059 460 1060 q 517 1069 500 1058 q 547 1062 529 1063 q 576 1058 565 1061 q 685 1026 635 1056 q 772 954 736 997 q 778 940 776 949 q 786 929 779 932 q 790 926 786 931 q 797 898 793 913 q 808 872 800 883 m 753 492 q 735 478 746 481 q 713 479 724 476 q 672 497 693 489 q 640 529 650 506 q 633 574 628 547 q 649 585 640 583 q 666 585 657 588 q 685 580 675 583 q 704 575 694 576 q 731 552 724 564 q 750 524 739 540 q 753 492 757 506 m 796 396 q 794 367 797 382 q 776 340 792 351 q 758 337 765 338 q 739 339 750 336 q 719 357 729 347 q 711 378 710 367 q 710 398 704 389 q 718 414 715 407 q 733 424 725 425 q 750 429 740 422 q 764 424 756 426 q 779 419 772 422 q 791 411 786 417 q 796 396 796 406 m 747 274 q 744 253 750 261 q 731 239 738 246 q 708 240 718 238 q 692 256 699 243 q 690 275 686 265 q 706 286 694 285 q 728 287 717 289 q 747 274 740 285 m 282 688 q 256 681 269 681 q 229 683 243 681 q 236 695 231 693 q 249 697 242 697 q 264 694 256 696 q 279 694 272 692 q 282 686 282 692 l 282 688 m 303 658 q 301 649 306 651 q 293 646 296 647 q 253 647 274 649 q 215 653 233 646 q 215 658 215 656 q 218 664 215 661 q 262 664 239 663 q 301 658 285 665 l 303 658 m 338 631 q 335 617 344 619 q 319 614 326 615 q 265 615 294 617 q 208 618 236 614 q 204 626 204 622 q 231 633 215 635 q 260 633 246 631 q 299 632 279 631 q 339 631 319 633 l 338 631 m 647 379 q 631 300 646 339 q 576 242 615 261 q 543 225 563 231 q 503 219 524 219 q 463 224 482 219 q 428 238 443 229 q 360 305 383 261 q 339 401 336 349 q 355 469 342 438 q 392 528 368 500 q 431 549 410 543 q 471 561 453 554 q 549 547 511 563 q 613 499 586 531 q 647 379 649 444 m 314 554 q 312 515 315 535 q 290 483 308 494 q 257 474 275 474 q 224 483 239 474 q 203 507 213 494 q 192 535 194 519 q 203 565 196 550 q 226 589 210 581 q 275 590 251 603 q 314 554 299 576 m 296 406 q 297 382 297 394 q 290 361 297 371 q 269 348 281 354 q 244 349 257 342 q 227 358 235 350 q 214 376 219 367 q 214 406 206 392 q 232 432 222 421 q 269 428 251 433 q 296 406 288 422 m 290 260 q 283 247 288 253 q 272 239 278 242 q 257 239 264 239 q 243 243 250 239 q 235 258 239 250 q 235 276 232 267 q 242 285 242 279 q 250 290 243 290 q 267 289 258 290 q 282 282 275 288 q 289 270 286 275 q 290 258 292 265 l 290 260 m 639 825 q 614 904 632 867 q 556 961 596 942 q 524 972 535 964 q 465 969 496 972 q 408 949 435 967 q 349 881 369 924 q 338 789 329 838 q 359 726 340 753 q 403 675 378 699 q 438 656 415 663 q 483 649 460 650 q 529 654 507 649 q 564 672 551 660 q 639 825 643 728 m 619 431 q 608 445 617 440 q 590 453 599 450 q 514 453 554 467 q 451 411 474 439 q 426 337 428 379 q 439 257 424 294 q 508 244 472 242 q 574 269 544 246 q 619 340 608 294 q 619 431 629 385 m 610 756 q 574 701 599 726 q 517 668 549 676 q 448 676 479 660 q 393 715 417 692 q 376 744 382 731 q 364 776 371 757 q 364 843 354 810 q 388 904 374 876 q 486 949 429 953 q 507 951 494 950 q 529 947 519 951 q 568 924 551 940 q 603 893 585 908 q 621 826 618 864 q 610 756 624 788 m 596 854 q 583 863 592 861 q 566 865 575 865 q 548 863 557 864 q 532 865 539 863 q 500 852 517 858 q 472 832 483 846 q 443 776 446 811 q 440 713 440 742 q 448 699 440 701 q 463 690 456 696 q 508 689 485 688 q 546 707 531 690 q 563 718 557 710 q 579 733 568 726 q 600 790 590 760 q 597 853 610 821 l 596 854 z "},"c":{"ha":829,"x_min":-7,"x_max":800,"o":"m 786 82 q 788 48 792 65 q 778 14 785 31 q 752 38 767 25 q 721 58 738 51 q 640 65 676 74 q 568 40 603 56 q 497 10 533 24 q 415 1 460 -4 q 286 41 349 10 q 172 119 224 72 q 82 225 119 167 q 29 347 44 283 q 1 528 8 435 q 6 712 -7 622 q 57 883 19 801 q 163 1029 94 965 q 277 1098 214 1076 q 415 1104 340 1119 q 477 1081 449 1097 q 535 1050 506 1065 q 591 1075 561 1065 q 654 1076 621 1085 l 731 992 q 706 942 710 967 q 705 891 701 917 q 716 840 708 865 q 727 789 724 814 q 725 739 731 764 q 697 690 719 714 q 661 659 681 672 q 615 649 642 646 q 561 660 582 646 q 525 698 540 675 q 497 746 510 721 q 464 789 483 771 q 464 799 463 793 q 465 808 465 804 q 463 817 465 814 q 454 821 461 821 q 413 808 429 826 q 385 774 396 790 q 351 536 350 657 q 364 290 353 415 q 374 265 371 279 q 394 247 378 251 q 454 247 426 238 q 501 283 482 257 q 501 403 475 343 q 559 448 525 431 q 632 451 593 465 q 681 423 658 442 q 721 381 703 404 q 754 333 739 358 q 783 283 769 307 q 792 228 800 254 q 772 176 783 201 q 758 128 761 151 q 785 82 756 106 l 786 82 m 689 363 q 631 432 672 408 q 569 431 599 440 q 521 397 540 422 q 508 368 510 383 q 510 337 507 353 q 517 305 513 321 q 525 275 522 289 q 458 229 497 243 q 379 231 419 215 q 310 292 335 254 q 275 376 286 331 q 263 472 264 422 q 264 571 261 522 q 265 681 265 624 q 273 791 264 739 q 307 886 282 843 q 386 953 332 929 q 436 948 411 957 q 482 924 461 939 q 498 888 499 908 q 500 847 497 867 q 496 828 501 838 q 486 808 490 818 q 483 790 482 799 q 496 774 483 782 q 538 760 515 763 q 582 764 561 757 q 640 821 633 786 q 639 896 647 856 q 623 978 631 936 q 638 1057 615 1021 q 608 1060 622 1063 q 581 1051 594 1057 q 553 1040 567 1046 q 525 1033 540 1035 q 463 1069 497 1054 q 393 1089 429 1083 q 320 1090 357 1094 q 251 1068 283 1086 q 115 944 164 1019 q 43 779 65 868 q 22 594 21 690 q 35 410 22 499 q 62 316 42 361 q 113 232 82 271 q 185 165 144 193 q 274 124 226 136 q 347 108 311 106 q 416 120 382 110 q 483 145 450 131 q 549 167 515 160 q 616 171 582 175 q 686 142 650 167 q 670 191 686 169 q 642 236 654 213 q 681 292 667 263 q 689 363 696 322 m 606 1039 q 601 969 593 1006 q 615 899 608 933 q 615 835 621 865 q 568 785 610 806 q 539 784 554 788 q 514 792 524 781 q 520 831 517 810 q 523 871 524 851 q 515 909 522 890 q 492 944 508 928 q 439 972 469 965 q 379 972 408 978 q 302 922 328 957 q 265 842 276 886 q 249 749 253 797 q 242 657 246 700 q 221 685 225 665 q 206 719 217 704 l 188 818 l 174 822 q 185 822 182 818 q 188 833 188 826 q 187 851 188 842 q 188 864 186 860 l 182 869 q 125 749 157 808 q 47 643 93 690 q 60 758 43 700 q 96 869 76 817 q 140 940 114 904 q 197 1006 165 976 q 265 1053 228 1035 q 347 1071 303 1071 q 441 1056 397 1071 q 521 1007 485 1042 q 543 1013 533 1007 q 562 1025 553 1018 q 581 1037 571 1032 q 606 1039 592 1042 m 161 785 q 163 794 156 788 q 172 792 169 800 l 172 785 l 161 785 m 172 767 q 168 761 172 763 q 160 760 164 760 q 153 764 156 761 q 151 771 150 767 l 172 767 m 179 731 q 156 728 168 725 q 136 736 143 731 q 160 737 147 733 q 179 731 174 740 m 118 701 l 118 708 q 156 709 135 706 q 188 701 176 713 l 118 701 m 196 668 q 149 668 172 669 q 103 674 125 667 q 147 680 122 678 q 194 675 171 682 l 194 668 l 196 668 m 218 635 q 147 635 182 636 q 81 640 113 635 q 143 644 104 644 q 218 643 182 643 l 218 635 m 210 569 q 209 537 211 553 q 196 508 207 521 q 164 494 182 497 q 131 500 146 490 q 110 519 119 507 q 103 544 100 531 q 100 563 99 553 q 107 581 101 572 q 121 597 113 590 q 139 607 129 604 q 180 599 161 607 q 210 569 199 590 m 210 410 q 203 387 208 397 q 183 369 197 376 q 149 374 164 364 q 126 399 133 383 q 132 428 124 414 q 153 446 140 442 q 189 442 171 453 q 210 410 207 432 m 236 294 q 235 272 238 283 q 221 254 233 261 q 185 272 194 247 q 186 292 185 283 q 199 304 188 301 q 219 304 208 303 q 236 293 229 306 l 236 294 z "},"d":{"ha":1069,"x_min":0,"x_max":1028,"o":"m 986 706 q 1019 563 1011 639 q 1019 410 1028 486 q 985 265 1011 335 q 911 140 958 194 q 823 65 872 96 q 719 17 774 33 q 605 -1 664 1 q 488 11 546 -3 q 424 33 456 22 q 365 67 393 44 q 341 67 351 71 q 322 57 331 64 q 303 43 313 50 q 283 33 294 36 q 179 28 232 14 q 86 69 126 42 q 58 100 74 85 q 31 132 43 115 q 9 168 18 149 q 0 210 0 188 q 13 251 3 232 q 46 285 24 271 q 60 285 56 290 q 69 271 65 279 q 79 258 74 263 q 97 261 85 253 q 133 331 121 293 q 151 410 144 369 q 158 491 157 450 q 163 571 160 532 q 132 840 160 704 q 35 1093 104 976 q 76 1107 56 1107 q 118 1100 97 1107 q 159 1083 139 1093 q 199 1069 179 1074 q 238 1071 218 1065 q 276 1100 257 1076 q 291 1096 285 1100 q 302 1087 297 1092 q 312 1076 307 1082 q 324 1069 317 1071 q 382 1074 354 1068 q 437 1089 410 1081 q 492 1104 464 1097 q 551 1110 521 1111 q 701 1069 632 1108 q 825 972 769 1031 q 921 842 881 913 q 985 706 961 771 l 986 706 m 844 900 q 805 962 829 932 q 751 1017 781 992 q 688 1060 721 1042 q 621 1085 654 1078 q 561 1097 590 1099 q 503 1089 532 1096 q 447 1072 475 1082 q 391 1056 418 1061 q 336 1054 364 1050 q 281 1079 308 1058 q 228 1051 253 1050 q 177 1063 203 1053 q 124 1084 151 1074 q 64 1085 96 1094 q 151 853 122 975 q 182 597 179 731 q 181 500 182 547 q 172 408 179 453 q 149 322 164 364 q 106 242 133 281 q 89 235 97 235 q 73 239 81 235 q 58 248 65 243 q 46 257 51 253 q 28 189 24 231 q 49 154 31 167 q 83 131 67 142 q 167 124 124 121 q 240 160 211 128 q 250 172 247 164 q 255 186 253 179 q 262 198 257 193 q 278 203 267 203 q 362 142 317 163 q 456 111 407 122 q 664 122 565 88 q 831 242 763 156 q 906 392 883 308 q 926 565 928 476 q 901 740 924 654 q 844 899 879 826 l 844 900 m 754 789 l 751 825 q 761 808 760 814 q 767 789 763 803 l 754 789 m 781 769 q 772 766 778 765 q 758 765 765 767 l 758 781 q 781 769 775 781 m 792 739 q 774 740 785 740 q 754 743 763 739 q 771 751 757 753 q 792 747 785 750 l 792 739 m 751 710 l 750 717 q 783 717 765 714 q 811 710 801 721 l 751 710 m 743 681 l 743 688 l 825 683 l 825 678 l 743 681 m 856 646 q 794 643 829 643 q 732 646 761 643 l 736 657 q 797 653 768 650 q 856 646 826 657 m 850 568 q 844 523 853 544 q 811 494 835 501 q 779 492 796 490 q 751 504 763 493 q 733 546 735 521 q 743 590 732 571 q 770 608 754 603 q 802 609 786 613 q 831 595 818 606 q 849 568 844 585 l 850 568 m 888 638 q 843 690 861 661 q 809 748 825 718 q 778 808 793 778 q 744 867 764 839 q 742 833 742 851 q 742 796 742 815 q 740 760 742 778 q 735 726 739 742 q 722 680 732 701 q 704 636 711 658 q 690 710 690 668 q 682 789 690 751 q 668 844 675 815 q 649 898 661 872 q 617 944 636 924 q 569 978 599 965 q 513 985 539 992 q 458 961 486 978 q 409 890 426 929 q 383 808 392 850 q 368 720 374 765 q 353 633 363 675 q 307 769 322 699 q 283 915 292 840 l 271 903 q 249 766 268 831 q 206 639 231 701 q 188 745 196 690 q 169 855 181 800 q 141 962 158 910 q 94 1061 124 1014 q 143 1056 119 1067 q 191 1036 167 1046 q 239 1026 215 1026 q 286 1053 263 1026 q 345 1026 315 1025 q 404 1037 375 1026 q 463 1060 433 1047 q 524 1072 493 1074 q 678 1042 611 1081 q 793 938 744 1003 q 859 797 840 872 q 888 639 878 721 l 888 638 m 813 406 q 812 367 822 386 q 786 342 801 349 q 746 352 763 338 q 726 388 729 367 q 760 433 728 419 q 790 428 778 440 q 813 406 803 417 m 644 321 q 616 274 629 297 q 572 240 603 250 q 502 238 540 232 q 440 271 464 243 q 403 367 415 317 q 386 472 390 418 q 384 578 382 525 q 390 682 386 632 q 406 759 401 718 q 419 839 410 800 q 448 908 428 878 q 510 954 468 939 q 572 943 543 957 q 615 900 600 929 q 660 763 646 835 q 675 615 674 690 q 667 465 676 540 q 644 321 658 390 m 279 839 q 283 824 281 832 q 279 808 285 815 l 279 839 m 294 761 q 284 758 290 757 q 271 757 278 758 q 276 772 263 765 q 281 769 278 769 q 286 768 283 768 q 292 767 289 768 q 294 761 294 767 m 264 724 l 264 735 q 285 731 271 728 q 301 724 299 733 l 264 724 m 753 271 q 751 249 756 260 q 733 233 746 239 q 713 236 719 231 q 700 253 707 242 q 700 272 700 263 q 711 288 700 282 q 735 287 724 289 q 753 271 746 285 m 253 694 q 257 705 253 704 q 267 703 261 706 q 281 699 274 701 q 293 700 288 697 q 306 699 300 701 q 308 690 311 697 l 253 694 m 249 664 l 249 675 q 283 676 265 672 q 313 668 300 679 l 249 664 m 239 643 q 259 649 249 649 q 280 648 269 650 q 301 644 290 646 q 324 644 313 642 l 324 633 l 239 643 m 335 575 q 330 528 338 551 q 297 499 322 506 q 267 503 279 494 q 242 518 256 513 q 226 549 231 531 q 233 581 222 567 q 254 601 244 596 q 278 613 264 606 q 312 602 296 611 q 335 575 328 593 m 324 399 q 314 369 321 385 q 290 351 307 354 q 264 358 278 354 q 243 376 250 361 q 247 412 240 396 q 274 433 254 428 q 304 425 290 435 q 324 399 318 415 m 303 276 q 299 258 307 265 q 283 246 290 250 q 262 247 272 244 q 249 260 251 249 q 252 277 246 271 q 265 290 258 283 q 301 276 289 294 l 303 276 m 650 738 q 641 768 643 750 q 635 801 639 786 q 622 827 631 817 q 593 836 613 838 q 535 794 557 828 q 508 726 514 761 q 486 286 471 521 q 488 270 483 276 q 499 260 492 264 q 513 255 506 257 q 526 250 521 253 q 615 299 583 254 q 656 513 653 401 q 650 738 658 625 z "},"e":{"ha":994,"x_min":-1,"x_max":949,"o":"m 939 13 q 901 33 919 24 q 865 56 883 43 q 768 59 814 71 q 678 31 722 47 q 586 3 633 14 q 483 10 539 -7 q 417 35 447 17 q 356 74 386 54 q 266 24 315 38 q 165 25 217 11 q 106 51 135 33 q 53 95 76 69 q 16 151 31 121 q 0 215 1 182 q 8 253 -1 236 q 33 282 18 271 q 46 269 39 276 q 61 256 53 261 q 79 251 69 251 q 99 260 89 251 q 135 331 124 293 q 153 410 147 369 q 160 494 158 451 q 164 578 161 536 q 128 835 163 708 q 6 1064 93 961 q 47 1088 25 1085 q 90 1087 68 1092 q 133 1073 111 1082 q 176 1060 154 1064 q 218 1061 197 1056 q 258 1090 239 1067 q 313 1057 285 1058 q 371 1066 342 1056 q 430 1090 400 1076 q 490 1101 460 1103 q 586 1097 539 1106 q 674 1068 633 1089 q 738 1102 706 1086 q 811 1108 771 1118 l 881 1019 q 865 963 865 992 q 872 906 865 935 q 888 850 879 878 q 901 794 897 822 q 883 736 903 763 q 836 694 864 710 q 783 679 813 685 q 732 689 754 674 q 693 715 711 699 q 660 749 675 731 q 636 788 646 768 q 622 828 626 808 q 628 836 629 831 q 628 846 626 842 q 581 863 610 865 q 531 860 553 860 q 488 826 510 843 q 464 781 467 808 q 511 785 486 783 q 561 776 536 786 q 600 735 581 757 q 634 690 619 714 q 656 640 649 667 q 658 585 664 614 q 647 558 651 571 q 632 532 643 544 q 646 514 638 522 q 661 497 654 506 q 674 479 668 489 q 679 457 679 469 q 765 458 719 465 q 840 414 811 450 q 899 344 876 382 q 926 260 921 306 q 915 211 922 236 q 889 167 907 186 q 916 133 903 150 q 938 97 929 115 q 947 56 946 78 q 939 13 949 35 m 821 146 q 802 203 819 178 q 775 256 785 228 q 801 280 789 265 q 819 310 813 294 q 821 367 826 338 q 796 418 815 396 q 701 440 758 453 q 667 416 681 435 q 647 381 654 397 q 647 329 639 354 q 676 286 654 304 q 651 251 668 264 q 614 231 635 238 q 569 222 593 224 q 524 219 546 219 q 476 228 499 217 q 437 257 454 239 q 405 297 419 275 q 381 340 390 319 q 368 398 374 367 q 364 459 363 429 q 376 516 365 489 q 411 564 386 543 q 458 559 433 568 q 494 525 482 550 q 497 485 504 503 q 482 449 489 468 q 513 438 496 442 q 546 440 529 435 q 594 488 583 451 q 587 551 606 524 q 544 600 568 579 q 583 651 572 619 q 586 717 593 683 q 560 753 581 739 q 515 768 539 767 q 483 761 500 765 q 458 738 465 757 q 474 710 468 724 q 478 679 481 697 q 453 650 471 660 q 414 644 436 640 q 365 717 376 669 q 365 840 353 779 q 426 942 378 900 q 481 968 450 961 q 546 974 513 975 q 600 958 575 972 q 643 922 625 944 q 656 865 657 894 q 642 808 656 836 q 691 778 663 785 q 750 779 719 771 q 799 822 788 799 q 809 872 811 846 q 797 926 807 899 q 780 982 788 954 q 774 1038 772 1010 q 799 1092 776 1065 q 735 1081 765 1097 q 676 1047 706 1064 l 567 1086 q 483 1085 522 1097 q 406 1060 443 1074 q 332 1041 369 1046 q 254 1064 294 1036 q 201 1040 228 1038 q 146 1052 174 1043 q 89 1067 118 1061 q 31 1056 60 1074 q 119 917 88 993 q 164 758 150 842 q 178 588 178 675 q 172 414 178 500 q 160 365 164 390 q 150 315 157 339 q 131 270 143 292 q 94 235 119 249 q 59 238 75 232 q 29 257 43 244 l 19 211 q 33 166 24 188 q 64 129 43 144 q 124 116 92 118 q 183 125 156 114 q 231 165 210 140 q 261 215 251 189 q 280 203 271 211 q 298 187 289 196 q 317 169 307 178 q 338 156 326 160 q 418 124 378 131 q 499 122 458 118 q 579 135 539 126 q 660 151 619 144 q 742 159 701 158 q 822 144 782 160 l 821 146 m 649 276 q 628 311 638 293 q 619 351 618 329 q 576 354 596 347 q 538 373 557 361 q 502 399 519 385 q 467 426 485 414 q 460 383 464 407 q 457 336 457 360 q 463 292 457 313 q 481 256 468 271 q 521 243 499 246 q 566 244 543 240 q 610 256 589 247 q 649 276 632 264 m 779 849 q 736 804 765 818 q 700 805 717 803 q 672 824 683 807 q 678 875 683 847 q 667 928 672 903 q 606 980 644 969 q 526 993 567 990 q 485 987 506 990 q 447 977 465 983 q 411 960 428 971 q 381 929 394 949 q 349 870 361 903 q 332 803 336 838 q 334 734 328 768 q 357 671 340 700 q 402 629 374 643 q 463 626 431 615 q 495 664 482 642 q 494 714 508 686 l 483 746 q 544 747 514 758 q 565 710 561 732 q 563 665 569 688 q 515 608 544 629 q 444 594 485 588 q 361 635 392 603 q 312 709 331 667 q 281 799 293 751 q 256 886 269 846 q 200 642 253 753 q 185 748 194 694 q 161 852 176 801 q 123 951 146 903 q 67 1043 100 1000 q 113 1036 89 1044 q 161 1022 138 1028 q 208 1016 185 1015 q 253 1038 232 1017 q 311 1018 283 1019 q 365 1024 339 1017 q 418 1042 392 1031 q 472 1061 444 1053 q 529 1070 500 1069 q 590 1057 558 1071 q 617 1048 604 1056 q 643 1034 631 1040 q 669 1026 656 1028 q 696 1038 682 1025 q 726 1058 713 1046 q 760 1069 740 1071 q 751 1013 747 1040 q 762 958 754 986 q 776 903 769 931 q 779 847 783 876 l 779 849 m 275 774 q 272 767 275 772 l 264 767 l 265 779 q 275 775 274 779 l 275 774 m 282 746 q 271 743 278 742 q 257 743 264 744 q 267 753 257 753 q 282 747 276 754 l 282 746 m 290 724 q 273 715 283 713 q 253 715 263 718 l 253 726 q 272 727 263 726 q 290 724 282 728 m 300 696 q 286 689 293 689 q 274 691 281 689 q 260 694 267 693 q 246 694 253 696 q 270 706 250 707 q 301 697 290 706 l 300 696 m 308 669 q 273 666 292 665 q 238 665 254 667 q 247 676 239 674 q 265 678 256 678 q 288 677 276 678 q 307 678 299 676 l 307 669 l 308 669 m 319 647 q 272 644 299 643 q 226 643 246 644 l 226 650 q 274 653 253 647 q 319 656 296 658 l 319 647 m 332 588 q 339 558 343 575 q 324 531 335 542 q 287 510 310 508 q 246 519 264 513 q 226 553 235 535 q 226 593 218 572 q 249 618 235 611 q 281 624 264 625 q 311 613 297 622 q 331 588 325 603 l 332 588 m 314 439 q 310 411 317 422 q 293 390 304 400 q 264 392 278 388 q 243 413 250 397 q 245 440 240 428 q 261 460 250 453 q 294 460 279 460 q 314 439 308 461 m 292 281 q 290 258 293 268 q 274 244 288 247 q 247 258 257 244 q 247 281 249 269 q 257 296 244 292 q 276 294 268 300 q 292 282 285 289 l 292 281 z "},"f":{"ha":908,"x_min":1,"x_max":868,"o":"m 856 988 q 845 935 844 963 q 851 878 846 907 q 860 820 856 849 q 862 766 865 792 q 842 718 858 740 q 790 681 826 696 q 740 671 761 668 q 702 687 718 674 q 673 720 686 700 q 648 762 660 740 q 623 803 636 783 q 593 835 610 822 q 549 842 574 846 q 506 835 525 839 q 480 808 488 825 q 468 775 472 792 q 485 772 475 765 q 504 782 496 779 q 578 770 549 789 q 629 722 608 751 q 666 656 650 692 q 700 594 682 621 q 696 534 706 565 q 681 476 686 503 q 705 421 696 451 q 700 361 714 390 q 674 322 690 340 q 636 297 658 304 q 582 299 603 286 q 546 335 561 313 q 517 385 531 358 q 486 428 504 411 q 467 353 463 396 q 486 278 471 311 q 552 233 526 267 q 594 165 578 200 q 597 93 600 129 q 567 33 593 57 q 504 2 539 10 q 433 3 469 -6 q 406 13 419 4 q 381 31 393 22 q 356 42 368 39 q 332 32 344 44 q 303 7 319 15 q 269 -3 288 -1 q 230 -4 250 -6 q 192 0 210 -3 q 138 26 164 8 q 90 65 113 43 q 50 113 68 88 q 19 165 32 139 q 17 209 13 186 q 39 249 21 232 q 53 259 44 258 q 69 263 61 260 q 78 250 74 258 q 86 235 82 242 q 95 227 90 229 q 108 236 100 225 q 135 284 126 258 q 147 337 143 310 q 153 392 151 364 q 160 447 156 419 q 133 781 169 619 q 1 1079 96 943 q 49 1090 25 1089 q 98 1086 74 1090 q 145 1074 122 1082 q 189 1061 168 1067 q 221 1074 206 1064 q 247 1099 236 1083 q 283 1074 267 1088 q 325 1065 300 1061 q 409 1092 365 1081 q 498 1107 453 1104 q 587 1102 543 1110 q 671 1072 631 1094 q 735 1103 701 1089 q 806 1107 768 1118 q 827 1079 814 1093 q 851 1051 840 1065 q 865 1020 861 1036 q 856 986 868 1004 l 856 988 m 776 1093 q 746 1088 760 1093 q 719 1076 732 1083 q 693 1062 706 1069 q 668 1050 681 1054 q 590 1083 632 1074 q 503 1092 547 1093 q 417 1078 460 1090 q 340 1047 375 1067 q 289 1051 314 1040 q 242 1065 264 1063 q 196 1042 219 1042 q 147 1051 172 1043 q 96 1068 122 1060 q 42 1071 69 1076 q 110 922 82 1000 q 153 761 138 843 q 176 596 169 679 q 178 433 182 513 q 169 369 171 404 q 160 303 167 335 q 138 247 153 272 q 88 211 122 222 q 74 216 79 211 q 65 225 69 221 q 57 232 61 229 q 44 231 53 235 q 40 183 33 208 q 63 140 46 158 q 105 110 82 118 q 154 103 128 103 q 204 113 179 108 q 246 140 229 117 q 272 187 260 178 q 294 188 283 196 q 318 163 306 181 q 345 130 331 146 q 377 106 360 114 q 418 108 394 97 q 483 127 456 106 q 528 176 510 149 q 531 211 529 190 q 519 243 533 232 q 509 251 513 251 q 502 245 506 250 q 495 234 499 240 q 486 225 492 228 q 442 243 458 228 q 415 281 425 258 q 399 327 406 303 q 386 372 393 351 q 388 419 388 394 q 392 465 389 443 q 405 506 396 486 q 432 539 414 525 q 468 544 450 553 q 501 524 486 536 q 513 499 514 513 q 508 473 511 486 q 505 448 504 460 q 521 429 506 436 q 576 430 549 421 q 617 467 603 439 q 615 538 628 504 q 571 592 603 571 q 606 651 599 617 q 611 721 614 686 q 578 757 600 744 q 532 769 556 769 q 513 763 522 765 q 493 758 503 761 q 476 749 483 754 q 465 732 469 743 q 485 698 476 717 q 482 660 493 679 q 462 647 474 649 q 438 644 450 644 q 399 679 410 656 q 376 725 388 703 q 378 840 367 783 q 426 939 389 896 q 490 969 454 960 q 557 968 525 978 q 604 945 581 961 q 638 906 628 929 q 644 855 649 882 q 629 806 640 828 q 669 788 644 788 q 717 786 693 789 q 774 822 758 800 q 788 869 789 843 q 778 922 788 894 q 762 979 769 950 q 755 1037 754 1008 q 776 1092 756 1065 l 776 1093 m 743 1060 q 733 1015 731 1038 q 741 968 735 992 q 755 922 747 944 q 762 880 763 900 q 749 842 761 860 q 706 811 738 824 l 661 815 q 664 891 667 850 q 629 958 661 932 q 548 991 594 986 q 460 985 501 996 q 408 956 428 976 q 374 910 388 936 q 355 855 361 885 q 346 797 349 825 q 356 701 335 744 q 419 626 378 657 q 478 626 450 621 q 500 649 496 633 q 510 679 504 665 q 508 702 515 690 q 495 724 501 714 q 490 741 489 733 q 515 751 492 749 q 553 749 536 754 q 585 725 571 744 q 585 675 594 699 q 561 632 576 651 q 524 603 546 613 q 478 590 501 593 q 433 592 454 586 q 394 611 413 599 q 360 641 376 624 q 332 676 344 658 q 317 703 322 689 q 308 733 313 718 q 299 763 304 749 q 286 792 294 778 q 278 781 286 783 q 264 781 271 779 l 264 789 l 286 793 q 286 812 292 807 q 274 818 281 817 q 267 820 268 819 q 279 828 265 821 q 274 857 276 843 q 264 882 272 871 q 243 749 261 813 q 201 624 225 685 q 188 686 186 651 q 182 753 189 721 q 140 906 163 831 q 72 1049 117 981 q 122 1045 99 1053 q 167 1031 144 1038 q 210 1024 189 1024 q 253 1047 231 1025 q 308 1027 281 1026 q 365 1038 336 1028 q 424 1058 394 1047 q 483 1071 453 1069 q 588 1063 540 1079 q 679 1021 635 1047 q 708 1047 692 1039 q 743 1060 725 1054 m 281 767 q 273 763 278 761 q 264 763 268 764 l 264 771 q 272 771 267 769 q 279 765 276 772 l 281 767 m 283 746 q 282 740 285 743 q 276 736 279 736 q 263 739 269 733 q 261 749 256 744 q 273 749 267 749 q 285 744 279 750 l 283 746 m 253 717 q 274 725 260 728 q 299 725 288 722 l 299 717 l 253 717 m 304 692 q 278 687 293 686 q 247 685 263 688 q 256 695 250 693 q 271 697 263 697 q 288 697 279 697 q 304 699 297 696 l 304 690 l 304 692 m 246 663 l 246 672 l 310 672 l 310 665 l 246 663 m 325 639 q 276 635 299 632 q 229 639 254 638 q 248 649 236 647 q 274 651 260 651 q 301 649 288 651 q 325 646 314 647 l 325 639 m 319 574 q 317 535 325 553 q 297 503 308 518 q 274 497 286 500 q 249 500 261 493 q 222 538 231 517 q 224 582 214 558 q 244 601 232 594 q 268 611 256 607 q 301 602 288 613 q 321 574 314 592 l 319 574 m 311 414 q 305 381 308 399 q 282 361 301 363 q 265 359 272 357 q 253 367 258 361 q 242 379 247 372 q 233 390 238 386 q 236 426 231 406 q 263 450 242 447 q 294 441 279 453 q 311 414 310 429 m 297 274 q 295 251 297 263 q 282 238 293 240 q 256 249 264 233 q 256 269 257 258 q 265 285 254 279 q 283 283 275 285 q 297 274 290 282 z "},"g":{"ha":988,"x_min":-3,"x_max":949,"o":"m 936 374 q 885 303 918 332 q 851 319 865 306 q 824 344 838 333 l 810 331 q 804 249 807 289 q 801 170 801 210 q 805 92 800 131 q 822 15 810 53 q 735 28 778 7 q 657 81 693 50 q 613 52 633 68 q 569 26 593 36 q 489 4 532 11 q 403 0 446 -3 q 319 15 360 3 q 246 51 279 28 q 103 200 158 114 q 22 384 47 286 q 1 585 -3 482 q 33 788 4 689 q 78 897 50 842 q 148 997 107 951 q 240 1074 189 1043 q 354 1108 292 1104 q 416 1108 386 1117 q 476 1097 446 1100 l 571 1039 q 633 1065 600 1054 q 703 1065 667 1075 l 765 986 q 734 931 739 961 q 734 869 729 901 q 747 806 739 838 q 752 747 754 774 q 732 697 750 719 q 668 664 714 675 q 618 674 642 664 q 574 702 594 685 q 537 742 553 719 q 508 785 521 764 q 513 804 515 796 q 505 819 511 813 q 490 830 499 825 q 474 838 481 835 q 434 832 454 835 q 399 818 414 829 q 369 767 379 794 q 355 709 360 739 q 348 648 350 679 q 340 588 346 617 q 331 424 335 504 q 335 264 328 343 q 379 240 353 246 q 431 242 406 235 q 469 276 454 254 q 490 321 483 297 q 477 356 488 340 q 453 387 467 372 q 428 417 440 401 q 408 449 415 432 q 389 542 381 490 q 411 581 397 561 q 449 607 425 600 q 503 615 475 614 q 557 604 532 617 q 596 574 578 593 q 625 532 614 554 q 677 579 643 564 q 746 604 711 594 q 813 596 782 606 q 868 560 844 586 q 927 475 906 522 q 938 375 949 428 l 936 374 m 872 497 q 853 539 865 518 q 818 571 842 560 q 775 585 797 583 q 731 581 753 586 q 690 565 710 576 q 653 540 669 554 q 635 510 640 528 q 615 486 631 493 q 607 528 603 503 q 563 578 592 556 q 501 600 533 601 q 445 585 472 599 q 407 542 418 572 q 403 505 404 526 q 414 472 401 483 q 439 486 426 481 q 467 489 451 492 q 493 469 482 483 q 507 440 504 456 q 509 325 519 383 q 447 231 499 267 q 361 222 410 211 q 314 256 332 235 q 285 305 296 278 q 268 361 274 332 q 258 419 263 390 q 256 554 258 485 q 259 690 253 624 q 286 819 265 757 q 356 929 307 881 q 404 951 376 946 q 460 950 432 956 q 499 924 485 944 q 531 886 514 903 q 534 835 538 861 q 524 786 531 810 q 574 758 544 768 q 642 772 621 757 q 669 810 664 786 q 671 866 675 835 q 663 930 667 897 q 658 992 658 963 q 674 1046 658 1022 q 617 1041 642 1050 q 568 1021 592 1032 q 502 1060 535 1040 q 432 1088 469 1081 q 338 1089 383 1099 q 251 1060 292 1079 q 142 963 186 1018 q 72 842 99 907 q 32 708 44 778 q 17 567 19 638 q 23 436 14 501 q 57 313 32 371 q 124 209 82 256 q 232 135 167 163 q 327 110 276 115 q 428 113 378 104 q 524 144 478 121 q 604 206 569 167 q 665 145 631 171 q 742 117 699 119 l 740 124 q 722 212 728 165 q 719 303 715 258 q 739 390 724 349 q 783 464 754 431 q 823 463 804 475 q 850 436 842 451 q 872 497 876 460 m 642 1026 q 631 961 625 996 q 644 893 638 926 q 647 830 650 860 q 607 779 643 800 q 576 783 590 776 q 554 799 563 789 q 559 858 557 826 q 544 913 561 889 q 501 958 526 940 q 443 978 475 975 q 367 964 403 975 q 304 914 332 953 q 271 851 283 885 q 251 783 258 818 q 240 711 244 747 q 231 639 236 675 q 216 644 221 639 q 209 658 211 650 q 206 673 207 665 q 201 688 206 681 q 196 794 190 739 q 206 897 201 849 q 173 840 190 868 q 143 783 156 813 q 162 785 150 790 q 183 779 174 781 q 175 769 183 769 q 155 772 164 769 q 143 785 146 774 q 122 756 129 771 q 106 726 115 742 l 183 721 l 185 713 q 144 712 169 714 q 106 721 119 710 l 53 656 l 47 661 q 76 786 57 722 q 128 905 96 850 q 207 1002 160 960 q 319 1063 254 1044 q 449 1058 386 1081 q 564 994 513 1036 q 601 1016 582 1007 q 642 1028 619 1025 l 642 1026 m 658 367 q 651 363 656 364 q 643 357 647 361 q 631 362 636 356 q 624 374 626 368 q 613 363 618 369 q 597 364 607 356 q 583 401 582 379 q 599 439 583 422 q 615 433 614 442 q 624 417 617 424 q 640 429 635 419 q 656 431 644 439 q 667 400 668 417 q 660 367 667 383 l 658 367 m 186 814 q 185 808 188 810 q 179 803 182 806 l 168 808 q 174 818 165 817 q 186 815 182 819 l 186 814 m 126 738 q 134 747 128 744 q 147 749 140 749 q 164 748 156 749 q 179 749 172 747 l 179 738 l 126 738 m 632 256 q 627 241 631 249 q 614 232 624 233 q 588 244 600 229 l 596 274 q 632 256 622 276 m 94 681 l 99 693 q 122 690 110 690 q 147 689 135 689 q 173 688 161 689 q 194 681 185 686 l 94 681 m 201 644 q 138 644 169 647 q 74 653 106 642 l 75 660 q 138 658 108 653 q 200 653 168 663 l 200 646 l 201 644 m 206 590 q 203 544 207 567 q 178 510 200 521 q 136 507 158 506 q 99 524 114 508 q 84 558 86 538 q 93 594 82 579 q 118 619 103 611 q 150 626 133 626 q 182 616 167 625 q 206 592 197 607 l 206 590 m 194 424 q 185 391 197 406 q 156 372 172 376 q 124 383 136 369 q 106 414 111 396 q 110 438 101 429 q 125 456 119 446 q 169 458 146 469 q 196 424 193 447 l 194 424 m 200 288 q 198 272 203 279 q 186 264 193 265 q 168 264 178 264 q 154 274 158 264 q 156 294 154 285 q 168 307 157 304 q 190 304 179 308 q 200 289 200 300 l 200 288 z "},"h":{"ha":1136,"x_min":-15,"x_max":1082,"o":"m 1082 969 q 950 641 978 821 q 953 274 922 461 q 997 228 975 251 q 1035 177 1019 204 q 1056 120 1051 150 q 1047 56 1061 90 q 990 6 1026 15 q 913 -1 954 -4 q 872 12 892 0 q 833 31 851 24 q 796 34 814 38 q 760 3 778 31 q 708 -4 736 -8 q 656 11 679 0 q 575 97 614 50 q 528 200 536 143 q 537 238 532 219 q 556 267 542 256 q 577 247 567 258 q 604 242 588 235 q 635 281 624 258 q 649 328 646 303 q 651 378 653 353 q 644 428 650 404 q 592 453 622 447 q 535 451 563 458 q 481 422 506 439 q 442 374 456 406 q 438 307 428 340 q 468 241 449 274 q 508 176 488 208 q 534 115 528 144 q 524 59 540 86 q 453 8 507 32 q 413 6 432 3 q 376 15 393 8 q 342 33 358 22 q 308 53 325 43 q 259 20 285 35 q 200 8 233 6 q 135 24 167 10 q 78 60 104 38 q 32 113 51 83 q 4 171 13 142 q 38 285 -15 239 q 50 279 46 286 q 58 265 54 272 q 67 253 61 257 q 86 256 74 249 q 124 360 111 304 q 142 474 138 415 q 144 591 146 532 q 138 707 142 650 q 97 914 131 815 q 11 1104 63 1013 q 94 1108 51 1118 q 174 1078 138 1097 q 243 1110 217 1078 q 266 1097 254 1104 q 290 1085 278 1090 q 317 1080 303 1081 q 346 1086 331 1079 q 407 1106 374 1097 q 472 1099 440 1114 q 515 1040 499 1072 q 547 974 532 1007 q 502 912 524 944 q 467 844 481 879 q 449 770 453 808 q 456 693 444 732 q 490 682 472 683 q 526 685 508 681 q 560 698 543 689 q 590 718 576 707 q 626 781 621 744 q 635 856 632 817 q 594 979 625 922 q 524 1089 564 1036 q 583 1099 553 1106 q 644 1085 614 1093 q 702 1077 674 1078 q 756 1104 731 1076 q 772 1101 765 1106 q 783 1091 778 1097 q 794 1079 789 1085 q 807 1074 800 1074 q 858 1077 832 1071 q 910 1090 885 1083 q 961 1097 936 1096 q 1011 1085 986 1097 q 1053 1031 1039 1061 q 1082 971 1068 1000 l 1082 969 m 993 1069 q 932 1078 961 1086 q 874 1060 903 1069 q 818 1049 846 1050 q 763 1079 790 1049 q 714 1057 739 1057 q 663 1063 689 1057 q 608 1076 636 1069 q 553 1072 581 1082 q 590 1024 571 1050 q 619 969 608 997 q 641 903 632 939 q 650 832 650 868 q 639 765 650 797 q 600 706 628 732 q 569 677 588 685 q 528 669 550 669 q 485 669 507 668 q 446 669 464 671 q 397 707 417 683 q 363 758 376 731 q 353 845 350 803 q 369 928 356 888 q 406 1005 383 968 q 456 1075 429 1042 q 401 1079 429 1085 q 347 1067 374 1074 q 294 1062 319 1061 q 243 1085 268 1063 q 194 1058 218 1057 q 147 1069 171 1058 q 97 1089 122 1079 q 43 1090 71 1099 q 144 790 118 950 q 156 457 171 631 q 143 344 151 399 q 103 243 135 289 q 69 232 90 229 q 38 254 49 235 l 28 235 q 26 186 18 210 q 49 143 35 163 q 99 128 69 128 q 154 132 128 129 q 199 161 179 140 q 233 201 219 182 q 253 172 244 188 q 281 143 261 156 q 385 121 328 115 q 437 148 415 124 q 461 201 458 172 q 451 224 458 222 q 433 219 443 225 q 410 210 422 214 q 389 217 399 206 q 353 242 367 222 q 331 279 339 261 q 324 345 325 310 q 328 415 322 381 q 351 481 335 450 q 399 535 368 511 q 486 563 440 557 q 581 554 532 569 q 629 515 607 542 q 661 461 651 489 q 667 396 665 429 q 665 331 669 363 q 648 269 661 299 q 610 217 635 239 q 581 219 594 214 q 556 235 567 225 q 544 204 544 222 q 549 171 544 186 q 582 132 556 143 q 635 117 608 121 q 700 135 668 115 q 756 179 732 154 q 817 122 776 138 q 906 108 858 106 q 946 130 925 118 q 974 165 967 142 q 978 199 981 181 q 964 228 975 218 q 944 213 954 219 q 919 210 935 206 q 886 241 896 219 q 868 282 876 263 q 851 488 856 383 q 859 694 847 593 q 902 891 871 796 q 993 1068 933 986 l 993 1069 m 779 736 q 759 733 769 732 q 739 733 749 733 q 756 741 743 743 q 779 742 768 739 l 779 736 m 726 704 q 735 715 729 714 q 750 713 742 715 q 767 709 758 711 q 782 710 775 707 l 782 704 l 726 704 m 782 685 q 756 681 769 682 q 726 682 743 679 q 751 685 739 686 q 782 686 764 685 l 782 685 m 708 654 l 708 661 l 790 661 l 790 658 l 708 654 m 690 625 l 690 632 l 800 628 l 690 625 m 949 1054 q 866 853 896 958 q 826 635 836 749 q 801 698 807 665 q 781 761 794 731 q 767 758 774 757 q 753 758 760 758 l 751 767 q 768 765 758 768 q 782 772 778 761 q 781 782 785 779 q 775 788 778 785 q 767 784 772 783 q 756 785 761 785 l 756 799 q 767 797 763 801 q 779 799 772 792 q 772 812 782 810 q 760 817 763 814 q 770 831 768 822 q 770 849 772 839 q 766 867 768 858 q 764 883 764 876 q 746 796 758 840 q 711 713 733 751 q 655 644 689 674 q 574 603 621 615 q 433 606 499 583 q 317 669 368 628 q 267 661 296 661 q 219 669 239 661 l 304 671 q 307 684 311 678 q 299 694 303 690 q 224 694 260 685 q 211 677 215 686 q 203 658 207 668 q 195 638 200 647 q 182 621 190 629 q 154 849 178 738 q 79 1061 131 961 l 82 1069 q 122 1057 101 1065 q 165 1043 143 1049 q 206 1040 186 1038 q 244 1061 226 1043 q 285 1041 264 1044 q 327 1040 306 1038 q 370 1051 349 1043 q 413 1065 392 1058 q 381 997 399 1032 q 349 926 363 963 q 329 851 335 890 q 333 769 324 813 q 369 699 340 729 q 435 653 397 668 q 526 647 479 642 q 608 679 574 651 q 648 726 633 700 q 668 780 663 751 q 672 838 674 808 q 665 897 671 868 q 638 981 654 940 q 593 1058 621 1021 q 616 1060 604 1064 q 640 1051 628 1057 q 666 1040 653 1046 q 693 1033 679 1033 q 729 1036 714 1026 q 761 1054 744 1046 q 806 1031 783 1033 q 851 1035 828 1029 q 899 1047 875 1040 q 949 1053 924 1054 l 949 1054 m 808 574 q 810 535 817 554 q 790 500 803 515 q 753 492 772 493 q 718 504 735 490 q 702 540 708 519 q 708 579 696 560 q 731 599 717 593 q 760 604 746 606 q 788 595 775 603 q 808 574 801 588 m 801 406 q 797 370 806 386 q 772 347 789 354 q 738 353 753 344 q 715 379 722 361 q 722 415 708 403 q 754 433 735 428 q 800 404 786 433 l 801 406 m 775 267 q 757 238 779 242 q 739 240 747 236 q 729 253 731 243 q 731 272 725 264 q 745 281 736 279 q 763 281 754 283 q 775 268 772 278 l 775 267 m 206 633 l 210 643 q 275 644 242 640 q 336 636 308 647 l 336 629 l 206 633 m 294 533 q 288 517 294 524 q 274 507 281 510 q 231 506 251 497 q 200 536 210 515 q 197 583 189 558 q 232 611 206 608 q 260 611 247 614 q 283 596 274 608 q 298 567 299 588 q 294 533 297 547 m 299 422 q 299 394 307 407 q 288 365 290 381 q 258 351 275 353 q 221 354 240 350 q 196 388 199 365 q 200 429 193 410 q 219 451 206 444 q 249 457 233 458 q 279 447 265 456 q 299 422 293 438 m 281 278 q 273 249 283 263 q 247 235 263 235 q 219 241 233 233 q 203 264 206 249 q 210 294 204 279 q 238 311 217 310 q 264 302 251 311 q 281 278 276 293 m 274 760 q 260 832 263 793 q 256 908 258 871 q 255 838 257 869 q 265 781 253 806 q 258 768 268 769 q 243 763 247 767 q 258 763 250 763 q 274 760 267 764 m 276 751 q 270 742 275 744 q 258 740 265 740 q 246 740 253 740 q 236 736 240 740 l 281 733 l 276 751 m 286 710 q 260 715 275 717 q 232 715 246 714 l 232 704 l 286 710 z "},"i":{"ha":626,"x_min":0,"x_max":606,"o":"m 586 92 q 554 42 576 64 q 504 11 532 21 q 454 3 479 1 q 406 13 429 4 q 362 34 383 21 q 321 63 340 47 q 251 11 292 31 q 167 3 211 -8 q 73 65 114 21 q 11 158 32 110 q 8 191 10 174 q 8 225 7 208 q 15 256 8 242 q 38 281 22 271 q 65 259 51 272 q 96 251 78 246 q 128 331 121 288 q 139 421 136 374 q 119 779 150 606 q 0 1104 88 953 q 68 1108 35 1117 q 133 1088 101 1099 q 196 1078 165 1078 q 257 1108 228 1078 q 279 1094 268 1103 q 302 1080 290 1086 q 326 1072 314 1074 q 351 1076 338 1069 q 413 1104 378 1094 q 481 1110 447 1114 q 542 1085 515 1106 q 581 1024 569 1064 q 501 852 535 944 q 453 663 468 760 q 443 467 438 565 q 481 276 449 368 q 510 274 496 281 q 535 255 524 267 q 556 230 546 243 q 576 207 567 217 q 586 92 606 151 m 518 178 q 522 200 519 189 q 524 222 524 211 q 519 243 524 233 q 504 261 515 253 q 488 245 493 257 q 468 236 482 233 q 429 260 442 240 q 401 299 417 279 q 372 467 379 378 q 369 645 364 556 q 394 822 375 735 q 442 983 413 908 q 451 1010 444 997 q 465 1036 458 1024 q 478 1060 472 1049 q 486 1085 485 1072 q 424 1088 454 1092 q 369 1065 393 1083 q 339 1057 354 1057 q 309 1061 324 1057 q 281 1072 294 1065 q 254 1085 267 1079 q 200 1056 228 1056 q 144 1065 172 1056 q 88 1084 117 1075 q 29 1083 58 1093 q 117 868 83 979 q 157 633 150 757 q 158 431 164 532 q 117 243 153 331 q 99 229 108 231 q 78 231 89 228 q 58 238 68 233 q 40 246 47 243 q 31 234 33 243 q 26 217 29 225 q 33 168 26 192 q 63 128 40 144 q 118 110 86 111 q 181 115 150 108 q 211 128 197 118 q 238 153 225 139 q 261 180 250 167 q 283 203 272 193 q 303 168 286 181 q 335 136 319 156 q 385 114 357 121 q 442 115 414 107 q 486 137 468 119 q 518 178 504 154 m 450 1072 q 378 865 406 972 q 343 649 350 757 q 326 668 335 656 q 313 693 317 681 q 303 723 306 707 q 296 755 300 739 q 285 783 292 771 q 263 803 278 796 q 276 810 274 804 q 276 823 278 815 q 272 840 275 831 q 269 856 268 849 l 264 858 q 231 747 253 800 q 185 640 210 693 q 172 672 175 654 q 167 709 168 690 q 164 747 165 728 q 157 783 163 767 q 117 924 138 854 q 63 1056 97 993 q 113 1053 88 1060 q 162 1040 138 1046 q 210 1035 186 1033 q 257 1057 235 1036 q 305 1038 281 1047 q 357 1039 329 1029 q 400 1060 378 1050 q 450 1072 422 1069 m 276 772 q 270 767 274 769 q 261 767 267 764 l 256 778 q 268 778 263 778 q 276 774 274 779 l 276 772 m 257 736 l 256 747 q 270 747 263 746 q 283 742 278 749 l 283 736 l 257 736 m 290 708 q 279 699 290 699 l 243 699 l 243 710 l 290 710 l 290 708 m 297 674 q 283 664 292 667 q 263 662 274 661 q 243 664 253 663 q 225 667 233 665 l 221 671 q 257 679 235 681 q 299 675 279 678 l 297 674 m 313 638 q 262 629 292 628 q 208 633 232 631 q 258 641 226 642 q 313 636 289 640 l 313 638 m 318 572 q 313 526 325 549 q 279 496 301 504 q 234 508 251 489 q 208 546 217 526 q 218 587 206 567 q 253 610 231 607 q 293 602 275 613 q 318 572 311 592 m 308 396 q 300 362 308 376 q 269 347 292 347 q 241 358 254 347 q 224 383 228 368 q 233 413 226 397 q 254 432 239 428 q 289 424 274 433 q 307 394 304 414 l 308 396 m 290 261 q 285 248 288 254 q 276 238 283 242 q 258 240 267 235 q 251 256 249 246 q 254 272 249 265 q 268 279 260 278 q 284 276 276 281 q 290 260 292 271 l 290 261 z "},"j":{"ha":849,"x_min":-4,"x_max":808,"o":"m 808 988 q 719 769 750 889 q 681 525 688 650 q 692 276 675 400 q 744 44 708 153 q 658 51 701 36 q 578 88 614 65 q 515 38 550 58 q 440 8 479 18 q 358 1 400 -1 q 278 19 317 3 q 242 33 261 26 q 201 43 222 40 q 160 42 181 46 q 124 24 140 38 q 113 17 117 22 q 104 8 108 13 q 95 3 100 4 q 82 7 90 1 q 52 45 69 25 q 23 86 35 65 q 11 128 11 107 q 32 172 11 150 q 51 212 56 193 q 34 249 47 231 q 8 286 21 267 q 3 329 -4 306 q 15 383 6 357 q 53 431 25 410 q 161 451 101 467 q 210 414 190 436 q 247 366 231 392 q 280 313 264 340 q 315 263 296 286 q 364 342 350 297 q 380 435 378 386 q 378 537 382 485 q 372 639 374 589 q 323 872 357 760 q 229 1085 289 983 q 280 1103 249 1100 q 338 1096 311 1106 q 367 1090 353 1096 q 394 1078 381 1083 q 422 1070 408 1072 q 453 1079 436 1068 q 464 1087 460 1081 q 472 1099 468 1093 q 480 1109 475 1106 q 494 1110 485 1113 l 535 1075 q 587 1085 561 1078 q 639 1098 613 1092 q 692 1106 665 1104 q 747 1100 718 1107 q 787 1047 767 1076 q 808 988 807 1018 m 703 1082 q 635 1074 667 1083 q 575 1053 604 1065 q 528 1057 551 1046 q 485 1078 506 1068 q 456 1055 472 1061 q 421 1050 439 1049 q 385 1058 403 1051 q 356 1075 368 1064 q 301 1082 332 1079 q 258 1071 269 1085 q 373 752 336 921 q 394 401 410 583 q 375 318 385 361 q 332 242 365 275 q 285 221 313 225 q 232 224 258 217 q 214 232 224 228 q 196 241 204 236 q 182 254 188 246 q 178 276 176 263 q 204 326 201 296 q 200 383 207 356 q 170 418 189 403 q 128 432 151 433 q 78 422 100 433 q 38 393 57 411 q 22 335 21 367 q 31 275 22 303 q 72 243 67 261 q 68 206 76 225 q 47 165 60 186 q 39 126 35 144 q 108 141 72 142 q 182 133 144 140 q 257 118 219 126 q 331 109 294 110 q 403 119 368 108 q 471 163 439 131 q 482 178 478 169 q 490 197 486 188 q 499 213 494 206 q 514 224 504 219 q 568 167 532 190 q 640 147 604 143 q 619 235 629 190 q 611 325 610 281 l 604 331 q 596 528 597 429 q 603 722 594 626 q 636 909 613 818 q 704 1082 660 1000 l 703 1082 m 660 1053 q 632 951 647 1001 q 603 850 617 901 q 580 747 589 799 q 569 642 571 696 l 563 635 q 551 667 563 661 q 522 673 539 674 q 488 670 506 672 q 457 678 469 668 l 538 683 q 517 789 528 733 q 490 897 506 844 l 486 897 q 463 763 474 832 q 425 631 453 693 l 418 631 l 378 822 q 385 831 386 828 q 381 835 385 833 q 372 841 376 838 q 371 850 368 844 q 338 956 356 903 q 296 1056 319 1010 q 344 1047 319 1056 q 392 1033 368 1039 q 440 1028 417 1026 q 483 1054 463 1031 q 525 1030 503 1032 q 570 1033 547 1028 q 616 1047 593 1039 q 660 1053 639 1054 m 500 811 q 499 801 503 803 q 489 797 496 800 q 483 806 485 800 q 488 815 481 813 q 494 815 490 814 q 500 811 497 817 m 508 772 q 497 764 507 761 q 479 764 486 767 l 475 769 q 490 779 478 776 q 508 772 501 782 m 517 736 q 507 730 513 731 q 496 731 501 729 q 483 733 490 732 q 471 732 476 733 q 473 744 468 742 q 485 747 478 747 q 500 745 492 747 q 513 743 508 743 q 515 740 514 740 q 515 736 517 739 l 517 736 m 526 703 q 496 697 513 692 q 467 707 479 701 q 475 717 469 715 q 488 716 481 718 q 504 712 496 714 q 521 713 513 710 q 526 708 524 710 q 528 703 529 707 l 526 703 m 543 643 q 503 635 529 632 q 453 635 476 638 q 446 646 447 638 q 454 651 444 654 q 475 649 464 649 q 499 649 488 649 q 523 649 511 650 q 544 642 535 647 l 543 643 m 547 579 q 535 521 558 549 q 503 506 521 504 q 467 515 485 508 q 444 547 449 528 q 446 586 439 567 q 463 603 450 600 q 486 615 475 607 q 523 607 506 615 q 547 579 540 599 m 532 379 q 508 366 524 368 q 482 374 493 364 q 463 394 469 381 q 463 422 457 408 q 495 445 471 442 q 532 432 519 449 q 540 406 540 422 q 532 379 540 390 m 524 278 q 504 250 526 253 q 485 256 493 247 q 479 272 478 264 q 485 287 482 279 q 496 297 488 294 q 525 276 515 296 l 524 278 z "}}}
